SplineFontDB: 3.0
FontName: MountainsofChristmas-Regular
FullName: Mountains of Christmas
FamilyName: Mountains of Christmas
Weight: Regular
Copyright: Copyright (c) 2010 2011, Font Diner, Inc DBA Tart Workshop (diner@fontdiner.com) with Reserved Font Name "Mountains of Christmas"
Version: 1.001
ItalicAngle: 0
UnderlinePosition: -116
UnderlineWidth: 20
Ascent: 819
Descent: 205
sfntRevision: 0x00010000
LayerCount: 2
Layer: 0 1 "Back"  1
Layer: 1 1 "Fore"  0
NeedsXUIDChange: 1
XUID: [1021 288 713564382 3734003]
FSType: 0
OS2Version: 3
OS2_WeightWidthSlopeOnly: 0
OS2_UseTypoMetrics: 1
CreationTime: 1292286877
ModificationTime: 1321467101
PfmFamily: 65
TTFWeight: 400
TTFWidth: 5
LineGap: 0
VLineGap: 0
Panose: 3 0 5 0 5 6 0 10 0 4
OS2TypoAscent: 1066
OS2TypoAOffset: 0
OS2TypoDescent: -354
OS2TypoDOffset: 0
OS2TypoLinegap: 0
OS2WinAscent: 1066
OS2WinAOffset: 0
OS2WinDescent: 354
OS2WinDOffset: 0
HheadAscent: 1066
HheadAOffset: 0
HheadDescent: -354
HheadDOffset: 0
OS2SubXSize: 717
OS2SubYSize: 666
OS2SubXOff: 0
OS2SubYOff: 143
OS2SupXSize: 717
OS2SupYSize: 666
OS2SupXOff: 0
OS2SupYOff: 488
OS2StrikeYSize: 51
OS2StrikeYPos: 256
OS2Vendor: 'dinr'
OS2CodePages: 00000001.00000000
OS2UnicodeRanges: 80000027.40000042.00000000.00000000
Lookup: 258 0 0 "'kern' Horizontal Kerning in Latin lookup 0"  {"'kern' Horizontal Kerning in Latin lookup 0 subtable"  } ['kern' ('DFLT' <'dflt' > 'latn' <'dflt' > ) ]
MarkAttachClasses: 1
DEI: 91125
TtTable: prep
PUSHW_1
 511
SCANCTRL
PUSHB_1
 4
SCANTYPE
EndTTInstrs

StartChar: exclam
Encoding: 33 33 2
Width: 206
Flags: HW
LayerCount: 2
Fore
SplineSet
60 463 m 1,0,-1
 61 498 l 1,1,2
 61 570.333333333 61 570.333333333 55.5 605.166666667 c 128,-1,3
 50 640 50 640 50 651 c 0,4,5
 50 663 50 663 54.5 673.5 c 128,-1,6
 59 684 59 684 60 689 c 128,-1,7
 61 694 61 694 63 695 c 128,-1,8
 65 696 65 696 66 695.5 c 0,9,10
 69.3636363636 693.818181818 69.3636363636 693.818181818 70.1818181818 697.909090909 c 128,-1,11
 71 702 71 702 73 702 c 0,12,13
 86 702 86 702 92.5 696 c 128,-1,14
 99 690 99 690 104.5 684.5 c 128,-1,15
 110 679 110 679 111.5 678 c 0,16,17
 113.428571429 676.714285714 113.428571429 676.714285714 116 669 c 1,18,-1
 120 667 l 1,19,20
 121 665 121 665 120.5 662 c 128,-1,21
 120 659 120 659 122 657 c 2,22,-1
 126 655 l 1,23,24
 130 645 130 645 130 637 c 1,25,-1
 123 588 l 257,26,-1
 126 539 l 1,27,28
 126 516 126 516 126 493 c 128,-1,29
 126 470 126 470 123 454.5 c 128,-1,30
 120 439 120 439 120 432 c 128,-1,31
 120 425 120 425 117.956521739 395.956521739 c 128,-1,32
 115.913043478 366.913043478 115.913043478 366.913043478 114 321 c 1,33,-1
 115 289 l 2,34,35
 115 268 115 268 108 268 c 0,36,37
 105 268 105 268 108 266 c 1,38,39
 104 259 104 259 99.5 248 c 128,-1,40
 95 237 95 237 88 237 c 0,41,42
 75.4 237 75.4 237 67 258 c 1,43,44
 60 270.25 60 270.25 60 303.125 c 2,45,-1
 60 344 l 257,46,-1
 58 377 l 1,47,-1
 60 419 l 1,48,-1
 58 439 l 1,49,-1
 62 451 l 1,50,-1
 60 463 l 1,0,-1
131.5 78 m 128,-1,52
 134 76 134 76 134 61.5 c 128,-1,53
 134 47 134 47 124 24 c 1,54,55
 111.857142857 19.1428571429 111.857142857 19.1428571429 105.928571429 17.5714285714 c 128,-1,56
 100 16 100 16 96.5 13 c 128,-1,57
 93 10 93 10 88 8 c 1,58,59
 61 14 61 14 65 40 c 1,60,61
 59 43 59 43 52.5 45 c 128,-1,62
 46 47 46 47 41 51 c 1,63,-1
 41 81 l 1,64,65
 46 87 46 87 49 94 c 128,-1,66
 52 101 52 101 56 105 c 128,-1,67
 60 109 60 109 63.5 109 c 128,-1,68
 67 109 67 109 69 110.5 c 128,-1,69
 71 112 71 112 72 114 c 128,-1,70
 73 116 73 116 75 117 c 2,71,-1
 89 119 l 2,72,73
 99 121 99 121 103 121 c 0,74,75
 117 121 117 121 123 107.5 c 128,-1,76
 129 94 129 94 129 87 c 128,-1,51
 129 80 129 80 131.5 78 c 128,-1,52
EndSplineSet
EndChar

StartChar: quotedbl
Encoding: 34 34 3
Width: 250
Flags: HW
LayerCount: 2
Fore
SplineSet
174 715 m 1,0,1
 209 710 209 710 209 684 c 1,2,-1
 205 652 l 1,3,4
 207 643 l 1,5,-1
 202 626 l 1,6,-1
 205 612 l 1,7,8
 205 606 205 606 204 600 c 128,-1,9
 203 594 203 594 202 588 c 1,10,11
 200 586 200 586 201 584 c 128,-1,12
 202 582 202 582 202 580.5 c 128,-1,13
 202 579 202 579 199.5 569.5 c 128,-1,14
 197 560 197 560 193.5 548.5 c 128,-1,15
 190 537 190 537 187.5 527.5 c 128,-1,16
 185 518 185 518 184 517 c 0,17,18
 174 513 174 513 168.5 508 c 128,-1,19
 163 503 163 503 152 503 c 2,20,-1
 148 503 l 1,21,22
 140 513 140 513 140 524 c 2,23,-1
 143 560 l 2,24,25
 143 565 143 565 145.5 567.5 c 128,-1,26
 148 570 148 570 148 572 c 2,27,-1
 145 578 l 1,28,-1
 152 592 l 1,29,30
 153 601 153 601 153 616.5 c 128,-1,31
 153 632 153 632 153.5 649 c 0,32,33
 154.71875 690.4375 154.71875 690.4375 160 701 c 256,34,35
 163 707 163 707 168 708.5 c 128,-1,36
 173 710 173 710 174 715 c 1,0,1
78 616 m 1,37,-1
 83 578 l 1,38,39
 80 569 80 569 80 562 c 2,40,-1
 83 534 l 257,41,42
 83 522.777777778 83 522.777777778 77.5 517.888888889 c 128,-1,43
 72 513 72 513 66.5 509.5 c 0,44,45
 52.2 500.4 52.2 500.4 48 499 c 1,46,47
 46 502 46 502 40.5 506 c 128,-1,48
 35 510 35 510 33 515 c 128,-1,49
 31 520 31 520 32 525.5 c 128,-1,50
 33 531 33 531 33 536 c 258,51,-1
 31 554 l 1,52,-1
 33 565 l 1,53,-1
 29 582 l 1,54,-1
 31 591 l 1,55,-1
 25 632 l 1,56,-1
 27 642 l 1,57,58
 27 648 27 648 23.5 653.5 c 128,-1,59
 20 659 20 659 20 665.5 c 2,60,-1
 20 680 l 2,61,62
 20 696.333333333 20 696.333333333 27 705.666666667 c 128,-1,63
 34 715 34 715 43 715 c 256,64,65
 52 715 52 715 55.5 708 c 128,-1,66
 59 701 59 701 68 699 c 1,67,68
 70 693 70 693 71.5 687 c 128,-1,69
 73 681 73 681 78 676 c 1,70,71
 76 673 76 673 76 666 c 257,72,-1
 80 642 l 1,73,-1
 78 632 l 258,74,75
 78 629 78 629 80 625 c 1,76,-1
 78 616 l 1,37,-1
EndSplineSet
EndChar

StartChar: numbersign
Encoding: 35 35 4
Width: 577
Flags: HW
LayerCount: 2
Fore
SplineSet
134 173 m 0,0,1
 119 134 119 134 115 126 c 1,2,3
 115 121 115 121 110 122 c 128,-1,4
 105 123 105 123 101 120.5 c 128,-1,5
 97 118 97 118 95 114.5 c 128,-1,6
 93 111 93 111 89 106 c 1,7,8
 76 112 76 112 76 124 c 128,-1,9
 76 136 76 136 82.5 153.5 c 128,-1,10
 89 171 89 171 93 183 c 2,11,-1
 96 194 l 2,12,13
 97 196 97 196 96.5 198.5 c 128,-1,14
 96 201 96 201 96 205 c 128,-1,15
 96 209 96 209 102.5 221 c 128,-1,16
 109 233 109 233 109 245 c 2,17,-1
 109 248 l 1,18,19
 99.0606060606 260.424242424 99.0606060606 260.424242424 62.5 258.5 c 0,20,21
 53 258 53 258 47 258 c 256,22,23
 41 258 41 258 38 262 c 1,24,25
 33 261 33 261 31 256.5 c 128,-1,26
 29 252 29 252 24 252 c 2,27,-1
 -3 252 l 1,28,29
 -10 259 -10 259 -10 267 c 128,-1,30
 -10 275 -10 275 -9 278 c 1,31,32
 -2 280 -2 280 0.5 281 c 128,-1,33
 3 282 3 282 9 282 c 128,-1,34
 15 282 15 282 25.5 286 c 128,-1,35
 36 290 36 290 42.5 290 c 128,-1,36
 49 290 49 290 51 289 c 128,-1,37
 53 288 53 288 73 292 c 1,38,-1
 90 291 l 2,39,40
 98 291 98 291 104.5 293 c 128,-1,41
 111 295 111 295 119 297 c 1,42,43
 129.6 318.2 129.6 318.2 136.3 348.6 c 128,-1,44
 143 379 143 379 143 384.5 c 0,45,46
 143 392.8 143 392.8 147.5 400.9 c 128,-1,47
 152 409 152 409 154 414.5 c 0,48,49
 161 433.75 161 433.75 161 448.375 c 0,50,51
 161 469 161 469 147 469 c 1,52,-1
 128 466 l 2,53,54
 126 466 126 466 120 468 c 1,55,56
 109.5 461 109.5 461 99 461 c 1,57,-1
 89 463 l 1,58,-1
 35 456 l 1,59,60
 17 456 17 456 8 465 c 1,61,62
 6 475 6 475 6 481 c 2,63,-1
 6 486 l 1,64,65
 17.25 495 17.25 495 28 495 c 1,66,-1
 45 493 l 258,67,68
 50 493 50 493 53 495 c 128,-1,69
 56 497 56 497 67.5 499.5 c 128,-1,70
 79 502 79 502 98.5 500.5 c 128,-1,71
 118 499 118 499 131 501.5 c 128,-1,72
 144 504 144 504 153.5 506 c 128,-1,73
 163 508 163 508 171 508 c 1,74,75
 173 512 173 512 175 514.5 c 0,76,77
 181.413793103 522.517241379 181.413793103 522.517241379 180.706896552 526.75862069 c 0,78,79
 179.606060606 533.363636364 179.606060606 533.363636364 183.303030303 541.681818182 c 128,-1,80
 187 550 187 550 189 555 c 2,81,-1
 195 577 l 2,82,83
 198 589 198 589 203.5 602.5 c 128,-1,84
 209 616 209 616 211 630 c 1,85,86
 211 688 211 688 230 688 c 0,87,88
 240 688 240 688 244 677.5 c 128,-1,89
 248 667 248 667 248 659 c 1,90,-1
 244 638 l 1,91,-1
 246 613 l 1,92,93
 246 599 246 599 242 596 c 128,-1,94
 238 593 238 593 234 585 c 1,95,96
 231 574 231 574 230 563.5 c 128,-1,97
 229 553 229 553 227 547 c 128,-1,98
 225 541 225 541 224 540.5 c 0,99,100
 220 538.5 220 538.5 221.5 534.75 c 128,-1,101
 223 531 223 531 223 528 c 128,-1,102
 223 525 223 525 219.5 522 c 128,-1,103
 216 519 216 519 217 515 c 1,104,-1
 217 514 l 1,105,106
 223.25 504 223.25 504 253 504 c 2,107,-1
 321 504 l 1,108,-1
 347 502 l 2,109,110
 353 502 353 502 365 506 c 0,111,112
 370 508 370 508 369.5 513 c 128,-1,113
 369 518 369 518 373 522 c 128,-1,114
 377 526 377 526 377.5 535.5 c 128,-1,115
 378 545 378 545 381 548.5 c 128,-1,116
 384 552 384 552 384.5 552 c 128,-1,117
 385 552 385 552 384 553.5 c 128,-1,118
 383 555 383 555 383 558 c 128,-1,119
 383 561 383 561 385.5 563.5 c 128,-1,120
 388 566 388 566 389 569.5 c 128,-1,121
 390 573 390 573 391.5 581 c 128,-1,122
 393 589 393 589 394.5 597 c 128,-1,123
 396 605 396 605 397.5 612.5 c 128,-1,124
 399 620 399 620 399 622 c 256,125,126
 399 624 399 624 402.5 628 c 128,-1,127
 406 632 406 632 408 636.5 c 128,-1,128
 410 641 410 641 410 647 c 128,-1,129
 410 653 410 653 411.5 658 c 128,-1,130
 413 663 413 663 416 669 c 128,-1,131
 419 675 419 675 423 681 c 0,132,133
 433 696 433 696 439 696 c 128,-1,134
 445 696 445 696 448 693 c 128,-1,135
 451 690 451 690 455 688 c 1,136,-1
 455 683 l 1,137,-1
 453 659 l 1,138,139
 444.826086957 654.913043478 444.826086957 654.913043478 443.913043478 643.956521739 c 0,140,141
 442.377777778 625.533333333 442.377777778 625.533333333 435 620 c 1,142,-1
 435 613 l 2,143,144
 435 608 435 608 432.5 595.5 c 128,-1,145
 430 583 430 583 429 575.5 c 128,-1,146
 428 568 428 568 426.5 564.5 c 128,-1,147
 425 561 425 561 424 562 c 128,-1,148
 423 563 423 563 423 555 c 128,-1,149
 423 547 423 547 419.5 536 c 128,-1,150
 416 525 416 525 416 514 c 0,151,152
 416 506 416 506 427 506 c 128,-1,153
 438 506 438 506 442 510 c 1,154,155
 445 508 445 508 452 508 c 2,156,-1
 471 510 l 1,157,-1
 488 510 l 2,158,159
 536 510 536 510 536 489 c 0,160,161
 536 482 536 482 529 477 c 128,-1,162
 522 472 522 472 515 472 c 1,163,-1
 488 476 l 1,164,-1
 468 472 l 1,165,-1
 461 474 l 257,166,-1
 455 472 l 1,167,-1
 435 473 l 1,168,169
 401.363636364 473 401.363636364 473 398.5 462.5 c 0,170,171
 397 457 397 457 391 455 c 1,172,173
 392 454 392 454 392 450.5 c 128,-1,174
 392 447 392 447 391 440 c 128,-1,175
 390 433 390 433 388 425.5 c 0,176,177
 382.390243902 404.463414634 382.390243902 404.463414634 378 403 c 1,178,-1
 378 398 l 1,179,-1
 372 352 l 2,180,181
 370 341 370 341 364 332 c 128,-1,182
 358 323 358 323 358 311 c 1,183,184
 360.8 304 360.8 304 376 304 c 1,185,-1
 431 309 l 1,186,-1
 460 308 l 2,187,188
 471 308 471 308 480.5 312.5 c 128,-1,189
 490 317 490 317 499 317 c 128,-1,190
 508 317 508 317 514.5 311.5 c 128,-1,191
 521 306 521 306 519 299 c 1,192,-1
 519 298 l 2,193,194
 519 295 519 295 516.5 295 c 128,-1,195
 514 295 514 295 509.5 293 c 128,-1,196
 505 291 505 291 500 286 c 128,-1,197
 495 281 495 281 488 278 c 1,198,-1
 486 278 l 2,199,200
 480 278 480 278 472 282 c 1,201,202
 467 278 467 278 460.5 279 c 128,-1,203
 454 280 454 280 447 280 c 257,204,-1
 420 275 l 1,205,206
 414 275 414 275 412 278 c 1,207,208
 402 274 402 274 396.5 271 c 128,-1,209
 391 268 391 268 380 270 c 1,210,211
 372 267 372 267 367 263.5 c 128,-1,212
 362 260 362 260 352 262 c 1,213,214
 346 259 346 259 340 246.5 c 128,-1,215
 334 234 334 234 334.5 231.5 c 128,-1,216
 335 229 335 229 335 227 c 2,217,-1
 335 226 l 1,218,-1
 331 221 l 1,219,220
 329 210 329 210 328 200 c 128,-1,221
 327 190 327 190 323 175.5 c 128,-1,222
 319 161 319 161 314.5 153.5 c 128,-1,223
 310 146 310 146 310.5 142.5 c 128,-1,224
 311 139 311 139 311 135.5 c 128,-1,225
 311 132 311 132 309.5 130.5 c 128,-1,226
 308 129 308 129 307 126 c 2,227,-1
 303 104 l 1,228,229
 294.875 91 294.875 91 265 91 c 2,230,-1
 260 91 l 1,231,232
 257 97 257 97 257 104 c 128,-1,233
 257 111 257 111 259 119.5 c 128,-1,234
 261 128 261 128 263.5 137.5 c 128,-1,235
 266 147 266 147 268.5 156.5 c 0,236,237
 272.636363636 172.218181818 272.636363636 172.218181818 276.318181818 178.109090909 c 128,-1,238
 280 184 280 184 282 190 c 128,-1,239
 284 196 284 196 283 202 c 128,-1,240
 282 208 282 208 284 218 c 128,-1,241
 286 228 286 228 290.5 241 c 128,-1,242
 295 254 295 254 295 268 c 1,243,244
 293 271 293 271 291 271 c 258,245,-1
 283 269 l 1,246,-1
 267 273 l 1,247,-1
 260 271 l 258,248,249
 258 271 258 271 257 272.5 c 128,-1,250
 256 274 256 274 254 273 c 2,251,-1
 224 268 l 1,252,253
 223 269 223 269 221 269 c 2,254,-1
 209 266 l 2,255,256
 206 265 206 265 202.5 265.5 c 128,-1,257
 199 266 199 266 196.5 266 c 128,-1,258
 194 266 194 266 187 264.5 c 128,-1,259
 180 263 180 263 172.5 261 c 0,260,261
 154.090909091 256.090909091 154.090909091 256.090909091 152 254 c 1,262,263
 151 250 151 250 151 241 c 128,-1,264
 151 232 151 232 148 230.5 c 128,-1,265
 145 229 145 229 143.5 222.5 c 128,-1,266
 142 216 142 216 142 208 c 0,267,268
 142 199 142 199 137.5 190 c 128,-1,269
 133 181 133 181 133.5 178 c 128,-1,270
 134 175 134 175 134 173 c 0,0,1
250 303 m 1,271,-1
 300 301 l 1,272,-1
 307 301 l 1,273,-1
 318 323 l 2,274,275
 329.631578947 346.263157895 329.631578947 346.263157895 328.315789474 356.131578947 c 128,-1,276
 327 366 327 366 328.5 371.5 c 128,-1,277
 330 377 330 377 332.5 381 c 128,-1,278
 335 385 335 385 336.5 389.5 c 128,-1,279
 338 394 338 394 337.5 400.5 c 128,-1,280
 337 407 337 407 338.5 409.5 c 128,-1,281
 340 412 340 412 341 412 c 128,-1,282
 342 412 342 412 342.5 413.5 c 128,-1,283
 343 415 343 415 344 420 c 128,-1,284
 345 425 345 425 346 431.5 c 128,-1,285
 347 438 347 438 348 444 c 128,-1,286
 349 450 349 450 349 453.5 c 128,-1,287
 349 457 349 457 346 465 c 1,288,289
 344 466 344 466 339 466 c 258,290,-1
 318 463 l 1,291,292
 309.25 468 309.25 468 285.125 468 c 128,-1,293
 261 468 261 468 244.5 466.5 c 128,-1,294
 228 465 228 465 211 467 c 1,295,296
 207 464 207 464 206 459.5 c 128,-1,297
 205 455 205 455 203.5 450 c 128,-1,298
 202 445 202 445 199.5 442.5 c 128,-1,299
 197 440 197 440 195.5 435 c 128,-1,300
 194 430 194 430 195 425 c 128,-1,301
 196 420 196 420 196 413.5 c 128,-1,302
 196 407 196 407 192.5 404 c 0,303,304
 188.176470588 400.294117647 188.176470588 400.294117647 185 386 c 1,305,306
 178.875 373.75 178.875 373.75 179.9375 367.375 c 128,-1,307
 181 361 181 361 179.5 356.5 c 128,-1,308
 178 352 178 352 177.5 351 c 128,-1,309
 177 350 177 350 176.5 349 c 128,-1,310
 176 348 176 348 176 346 c 2,311,-1
 176 339 l 2,312,313
 176 333 176 333 170.5 323.5 c 128,-1,314
 165 314 165 314 165 308.5 c 128,-1,315
 165 303 165 303 166 301 c 1,316,-1
 184 300 l 1,317,-1
 250 303 l 1,271,-1
EndSplineSet
EndChar

StartChar: dollar
Encoding: 36 36 5
Width: 357
Flags: HW
LayerCount: 2
Fore
SplineSet
197 425 m 1,0,-1
 194 404 l 1,1,2
 194 390.666666667 194 390.666666667 210 380 c 0,3,4
 212 378 212 378 214 378 c 128,-1,5
 216 378 216 378 218 376 c 256,6,7
 220 374 220 374 220 372 c 128,-1,8
 220 370 220 370 222 367.5 c 128,-1,9
 224 365 224 365 228 362.5 c 128,-1,10
 232 360 232 360 236 357 c 1,11,-1
 238 354 l 1,12,-1
 242 354 l 1,13,14
 282.352941176 322.294117647 282.352941176 322.294117647 295 297 c 0,15,16
 297 294 297 294 297 290.5 c 128,-1,17
 297 287 297 287 298.5 284 c 128,-1,18
 300 281 300 281 302 278.5 c 0,19,20
 307.5 271.625 307.5 271.625 311.75 257.8125 c 128,-1,21
 316 244 316 244 316 241 c 2,22,-1
 314 230 l 1,23,-1
 316 220 l 258,24,25
 316 217 316 217 312.5 209 c 128,-1,26
 309 201 309 201 303 184 c 128,-1,27
 297 167 297 167 294 163 c 128,-1,28
 291 159 291 159 289 158.5 c 0,29,30
 283 157 283 157 283 153.5 c 0,31,32
 283 145.777777778 283 145.777777778 276.5 142.888888889 c 128,-1,33
 270 140 270 140 264.5 135.5 c 128,-1,34
 259 131 259 131 255.5 127.5 c 128,-1,35
 252 124 252 124 244.5 121 c 128,-1,36
 237 118 237 118 234 112 c 128,-1,37
 231 106 231 106 226 104 c 1,38,39
 219.75 104 219.75 104 214.875 104 c 128,-1,40
 210 104 210 104 206 102 c 1,41,42
 205 98 205 98 205 94 c 2,43,-1
 205 85 l 2,44,45
 205 75 205 75 202 71 c 1,46,47
 203 69 203 69 205 68.5 c 128,-1,48
 207 68 207 68 207 66 c 2,49,-1
 204 13 l 1,50,51
 196 9 196 9 190 4.5 c 128,-1,52
 184 0 184 0 173 0 c 1,53,54
 162 7.85714285714 162 7.85714285714 162 28 c 2,55,-1
 164 69 l 2,56,57
 164 80.5 164 80.5 161 88 c 1,58,59
 140 92 140 92 120 98 c 128,-1,60
 100 104 100 104 79 104 c 1,61,62
 74 110 74 110 68.5 118.5 c 128,-1,63
 63 127 63 127 56 130 c 1,64,-1
 56 135 l 2,65,66
 56 144 56 144 48.5 156.5 c 2,67,-1
 36.5 176.5 l 2,68,69
 20 204 20 204 20 240 c 0,70,71
 20 251 20 251 39 251 c 0,72,73
 45 251 45 251 53 248 c 1,74,75
 50 227 50 227 50 215.2 c 128,-1,76
 50 203.4 50 203.4 58 197 c 1,77,-1
 58 193 l 1,78,-1
 65 173.5 l 1,79,80
 65 166.538461538 65 166.538461538 75 155.769230769 c 128,-1,81
 85 145 85 145 88 135 c 1,82,83
 101 132 101 132 114 127.5 c 128,-1,84
 127 123 127 123 135 123 c 2,85,-1
 147 123 l 2,86,87
 158 123 158 123 158 131.5 c 1,88,-1
 163 161 l 257,89,-1
 159 177 l 1,90,-1
 161 183 l 1,91,-1
 157 190 l 1,92,-1
 163 240 l 1,93,-1
 161 254 l 1,94,-1
 165 312 l 1,95,96
 165 340 165 340 159 337 c 0,97,98
 157 336 157 336 155 338 c 256,99,100
 153 340 153 340 153.5 342 c 128,-1,101
 154 344 154 344 152 346 c 256,102,103
 150 348 150 348 147.5 348 c 0,104,105
 141 348 141 348 141 354 c 0,106,107
 141 357.666666667 141 357.666666667 131 361 c 1,108,109
 117 370 117 370 105.5 384.5 c 128,-1,110
 94 399 94 399 79 407 c 1,111,-1
 79 409 l 2,112,113
 79 417 79 417 73.5 420.5 c 128,-1,114
 68 424 68 424 62 429 c 1,115,116
 61 432 61 432 59 433.5 c 128,-1,117
 57 435 57 435 58 440 c 1,118,119
 47.8 440 47.8 440 42.4 458 c 0,120,121
 33.4 488 33.4 488 31.7 495 c 128,-1,122
 30 502 30 502 29 505 c 128,-1,123
 28 508 28 508 28 510.5 c 128,-1,124
 28 513 28 513 30 519 c 1,125,-1
 29 540 l 2,126,127
 29 547 29 547 30 551 c 1,128,129
 40 564 40 564 40 569 c 128,-1,130
 40 574 40 574 44 580.5 c 128,-1,131
 48 587 48 587 53.5 590 c 128,-1,132
 59 593 59 593 60 600 c 1,133,134
 75 605 75 605 81 611.5 c 128,-1,135
 87 618 87 618 93.5 623.5 c 128,-1,136
 100 629 100 629 101.5 629 c 128,-1,137
 103 629 103 629 105.5 631 c 128,-1,138
 108 633 108 633 108 634.5 c 128,-1,139
 108 636 108 636 110 637 c 2,140,-1
 139 649 l 1,141,-1
 139 659 l 2,142,143
 139 671 139 671 143 675 c 1,144,145
 142 680 142 680 139.5 682 c 128,-1,146
 137 684 137 684 137 692 c 256,147,148
 137 700 137 700 139 707 c 128,-1,149
 141 714 141 714 143 722 c 1,150,151
 147 725 147 725 155 725 c 0,152,153
 173 725 173 725 173 692 c 1,154,-1
 175 691 l 1,155,-1
 173 686 l 1,156,157
 173 681 173 681 175 670.5 c 0,158,159
 180.759493671 640.262658228 180.759493671 640.262658228 204 633 c 1,160,161
 208.704545455 620.454545455 208.704545455 620.454545455 221.352272727 613.227272727 c 128,-1,162
 234 606 234 606 241 601.5 c 128,-1,163
 248 597 248 597 251 590 c 1,164,-1
 253 590 l 1,165,166
 259 591 259 591 262 586.5 c 128,-1,167
 265 582 265 582 272.5 580 c 128,-1,168
 280 578 280 578 285 571 c 128,-1,169
 290 564 290 564 295 558 c 1,170,-1
 295 536 l 2,171,172
 295 530 295 530 293 525 c 1,173,174
 278 513 278 513 267.5 513 c 128,-1,175
 257 513 257 513 257.5 525 c 128,-1,176
 258 537 258 537 257 543 c 1,177,-1
 257 547 l 1,178,179
 254 552 254 552 250 554.5 c 128,-1,180
 246 557 246 557 242 560.5 c 128,-1,181
 238 564 238 564 235 568.5 c 128,-1,182
 232 573 232 573 228.5 576 c 128,-1,183
 225 579 225 579 221.5 578.5 c 0,184,185
 216.133333333 577.733333333 216.133333333 577.733333333 214.066666667 581.866666667 c 0,186,187
 209.888888889 590.222222222 209.888888889 590.222222222 202.944444444 591.611111111 c 128,-1,188
 196 593 196 593 193 598 c 1,189,190
 189 590 189 590 189 584 c 2,191,-1
 193 554 l 1,192,193
 193 544 193 544 195.5 535.5 c 128,-1,194
 198 527 198 527 197.5 521.5 c 128,-1,195
 197 516 197 516 197 511 c 2,196,-1
 199 498 l 1,197,-1
 195 478 l 1,198,-1
 197 464 l 1,199,-1
 196 452 l 1,200,-1
 197 425 l 1,0,-1
158 498 m 1,201,-1
 160 513 l 1,202,203
 160 530 160 530 157 530 c 1,204,-1
 159 535 l 1,205,-1
 155 551 l 1,206,-1
 157 561 l 1,207,208
 157 574 157 574 152 588 c 128,-1,209
 147 602 147 602 145 615 c 1,210,-1
 141 615 l 2,211,212
 130 615 130 615 125 608 c 128,-1,213
 120 601 120 601 105 603 c 1,214,215
 97 597 97 597 91 589.5 c 128,-1,216
 85 582 85 582 77 577 c 1,217,218
 76 569 76 569 74.5 562.5 c 128,-1,219
 73 556 73 556 73 548 c 257,220,-1
 80 520 l 1,221,-1
 80 519 l 1,222,-1
 84 515 l 1,223,224
 91.1111111111 499 91.1111111111 499 96.0555555556 490.5 c 128,-1,225
 101 482 101 482 100.5 480.5 c 128,-1,226
 100 479 100 479 101.5 477.5 c 128,-1,227
 103 476 103 476 104.5 476 c 128,-1,228
 106 476 106 476 108 473.5 c 128,-1,229
 110 471 110 471 111 468 c 128,-1,230
 112 465 112 465 114 462 c 2,231,-1
 133 444 l 2,232,233
 138 439 138 439 142 434 c 128,-1,234
 146 429 146 429 153 427 c 1,235,236
 159 431 159 431 159 438 c 2,237,-1
 157 455 l 1,238,-1
 159 483 l 1,239,-1
 158 498 l 1,201,-1
201 143 m 2,240,241
 201 131 201 131 205 131 c 128,-1,242
 209 131 209 131 216.5 134.5 c 128,-1,243
 224 138 224 138 231 143 c 0,244,245
 246.555555556 154.111111111 246.555555556 154.111111111 251 163 c 1,246,-1
 255 165 l 1,247,248
 257 168 257 168 256.5 171 c 128,-1,249
 256 174 256 174 258 179 c 128,-1,250
 260 184 260 184 262 185.5 c 128,-1,251
 264 187 264 187 264 197 c 256,252,253
 264 207 264 207 261.5 216 c 128,-1,254
 259 225 259 225 261 236 c 1,255,256
 245 247 245 247 244 263 c 1,257,258
 239 265 239 265 236 269.5 c 128,-1,259
 233 274 233 274 227 275 c 1,260,261
 225 291 225 291 211 289 c 1,262,-1
 208 289 l 1,263,264
 202 283 202 283 202 263 c 1,265,-1
 199 236 l 1,266,-1
 201 213 l 1,267,-1
 199 201 l 1,268,-1
 203 173 l 1,269,-1
 201 143 l 2,240,241
EndSplineSet
EndChar

StartChar: percent
Encoding: 37 37 6
Width: 500
Flags: HW
LayerCount: 2
Fore
SplineSet
203 609 m 1,0,-1
 214 612 l 2,1,2
 216 612 216 612 216 610.5 c 0,3,4
 216 608 216 608 220 612 c 1,5,6
 226 614 226 614 233.5 613.5 c 128,-1,7
 241 613 241 613 248.5 615.5 c 128,-1,8
 256 618 256 618 258 620 c 128,-1,9
 260 622 260 622 270 622 c 2,10,-1
 273 622 l 1,11,-1
 279 626 l 1,12,13
 284 627 284 627 288 626.5 c 128,-1,14
 292 626 292 626 298.5 628 c 128,-1,15
 305 630 305 630 312 634 c 128,-1,16
 319 638 319 638 328 638 c 1,17,18
 339 641 339 641 348 646 c 128,-1,19
 357 651 357 651 367.5 651 c 0,20,21
 387 651 387 651 387 628 c 0,22,23
 387 625 387 625 385.5 623 c 128,-1,24
 384 621 384 621 383 618 c 128,-1,25
 382 615 382 615 382.5 611.5 c 128,-1,26
 383 608 383 608 381 604.5 c 128,-1,27
 379 601 379 601 378 602.5 c 128,-1,28
 377 604 377 604 377 598 c 128,-1,29
 377 592 377 592 375 590 c 1,30,-1
 372 589 l 1,31,32
 370 585 370 585 368 579.5 c 128,-1,33
 366 574 366 574 364 572 c 128,-1,34
 362 570 362 570 361 568 c 2,35,-1
 353 549 l 2,36,37
 345 528 345 528 337 508 c 128,-1,38
 329 488 329 488 325 475.5 c 128,-1,39
 321 463 321 463 318.5 460.5 c 128,-1,40
 316 458 316 458 313.5 453.5 c 128,-1,41
 311 449 311 449 310.5 442 c 128,-1,42
 310 435 310 435 306.5 429.5 c 128,-1,43
 303 424 303 424 299 419.5 c 128,-1,44
 295 415 295 415 293 411.5 c 128,-1,45
 291 408 291 408 291.5 404.5 c 0,46,47
 292.762711864 395.661016949 292.762711864 395.661016949 279 376 c 1,48,49
 278 361 278 361 271 345.5 c 128,-1,50
 264 330 264 330 261 321 c 128,-1,51
 258 312 258 312 256 310 c 128,-1,52
 254 308 254 308 253 305 c 1,53,-1
 254 299 l 2,54,55
 254 296 254 296 249 294 c 1,56,57
 248 291 248 291 248 288 c 128,-1,58
 248 285 248 285 245 279.5 c 128,-1,59
 242 274 242 274 236.5 264.5 c 128,-1,60
 231 255 231 255 229.5 250.5 c 128,-1,61
 228 246 228 246 228.5 243.5 c 128,-1,62
 229 241 229 241 229 238 c 2,63,-1
 229 237 l 1,64,-1
 225 232 l 1,65,66
 221.75 215.75 221.75 215.75 217.875 211.875 c 128,-1,67
 214 208 214 208 212 204.5 c 128,-1,68
 210 201 210 201 210 196 c 0,69,70
 210 189 210 189 206 183 c 128,-1,71
 202 177 202 177 200 173 c 2,72,-1
 195 158 l 2,73,74
 193 154 193 154 190.5 150.5 c 128,-1,75
 188 147 188 147 185.5 141.5 c 128,-1,76
 183 136 183 136 183 128 c 128,-1,77
 183 120 183 120 175 115 c 1,78,79
 172.212121212 102.454545455 172.212121212 102.454545455 161 89 c 1,80,-1
 143 89 l 1,81,82
 140 84 140 84 137 78.5 c 128,-1,83
 134 73 134 73 126 73 c 128,-1,84
 118 73 118 73 111.5 80 c 128,-1,85
 105 87 105 87 105 98 c 128,-1,86
 105 109 105 109 110 117 c 0,87,88
 123.636363636 138.818181818 123.636363636 138.818181818 126.818181818 157.909090909 c 128,-1,89
 130 177 130 177 141 185 c 1,90,-1
 141 187 l 2,91,92
 141 197 141 197 144 203 c 2,93,-1
 151 217 l 2,94,95
 153 221 153 221 153 224.5 c 0,96,97
 153 228.5 153 228.5 157 236.25 c 0,98,99
 161.653061224 245.265306122 161.653061224 245.265306122 165 262 c 1,100,101
 170 264 170 264 171.5 271 c 128,-1,102
 173 278 173 278 178 282 c 1,103,104
 180 287 180 287 180 293.5 c 128,-1,105
 180 300 180 300 181.5 304 c 128,-1,106
 183 308 183 308 184.5 310 c 128,-1,107
 186 312 186 312 190.5 321 c 128,-1,108
 195 330 195 330 200 345.5 c 128,-1,109
 205 361 205 361 212 376 c 1,110,-1
 216 380 l 1,111,-1
 216 384 l 2,112,113
 216 388 216 388 227.5 411 c 0,114,115
 249 454 249 454 249 467 c 1,116,117
 255 471 255 471 256 477.5 c 128,-1,118
 257 484 257 484 261 490 c 1,119,-1
 265 492 l 1,120,121
 266 495 266 495 265.5 497.5 c 128,-1,122
 265 500 265 500 272 514 c 128,-1,123
 279 528 279 528 293.5 553 c 128,-1,124
 308 578 308 578 321 604 c 1,125,126
 317 605 317 605 308 605 c 128,-1,127
 299 605 299 605 289 599 c 128,-1,128
 279 593 279 593 271 590 c 128,-1,129
 263 587 263 587 259.5 588 c 128,-1,130
 256 589 256 589 252 589 c 128,-1,131
 248 589 248 589 242 585.5 c 128,-1,132
 236 582 236 582 230.5 581 c 128,-1,133
 225 580 225 580 221.5 580.5 c 128,-1,134
 218 581 218 581 213.5 581 c 128,-1,135
 209 581 209 581 197.5 575.5 c 128,-1,136
 186 570 186 570 181 565.5 c 128,-1,137
 176 561 176 561 167 558.5 c 128,-1,138
 158 556 158 556 155 547 c 1,139,-1
 155 545 l 2,140,141
 155 530 155 530 160 512.5 c 128,-1,142
 165 495 165 495 165 482 c 1,143,-1
 163 470 l 1,144,145
 165 468 165 468 165 466.5 c 128,-1,146
 165 465 165 465 163.5 459.5 c 128,-1,147
 162 454 162 454 160.5 448 c 0,148,149
 157.333333333 435.333333333 157.333333333 435.333333333 153 431 c 1,150,151
 154 429 154 429 154 423 c 128,-1,152
 154 417 154 417 150 409 c 128,-1,153
 146 401 146 401 145 393 c 1,154,155
 140 390 140 390 134.5 387.5 c 128,-1,156
 129 385 129 385 127 378 c 1,157,-1
 125 378 l 1,158,159
 117 379 117 379 113 374.5 c 128,-1,160
 109 370 109 370 103 365 c 1,161,-1
 101 365 l 1,162,163
 93 366 93 366 88 360 c 128,-1,164
 83 354 83 354 77.5 354 c 128,-1,165
 72 354 72 354 70.5 357 c 128,-1,166
 69 360 69 360 62 358 c 1,167,168
 61 364 61 364 54 369 c 1,169,-1
 53 369 l 2,170,171
 51 369 51 369 50.5 366.5 c 128,-1,172
 50 364 50 364 48 364 c 128,-1,173
 46 364 46 364 45 365 c 0,174,175
 44 371 44 371 38.5 372 c 128,-1,176
 33 373 33 373 29 376.5 c 128,-1,177
 25 380 25 380 22.5 385 c 128,-1,178
 20 390 20 390 15 393 c 1,179,180
 15 402 15 402 10 411 c 0,181,182
 0 429 0 429 0 458.5 c 128,-1,183
 0 488 0 488 3 506 c 1,184,185
 5 511 5 511 7 514 c 0,186,187
 13.3333333333 523.5 13.3333333333 523.5 12.1666666667 528.75 c 128,-1,188
 11 534 11 534 13 538.5 c 128,-1,189
 15 543 15 543 19 548.5 c 128,-1,190
 23 554 23 554 27 562 c 128,-1,191
 31 570 31 570 36 582 c 128,-1,192
 41 594 41 594 49 602 c 1,193,-1
 52 602 l 1,194,195
 54 604 54 604 54 606 c 128,-1,196
 54 608 54 608 57 611 c 0,197,198
 69 623 69 623 76 623 c 0,199,200
 102 623 102 623 122 600 c 1,201,-1
 155 604 l 1,202,-1
 166 602 l 1,203,-1
 203 609 l 1,0,-1
481 303 m 258,204,-1
 479 297 l 1,205,206
 479 291 479 291 484 280.5 c 128,-1,207
 489 270 489 270 489 263.5 c 128,-1,208
 489 257 489 257 486.5 252.5 c 128,-1,209
 484 248 484 248 482.5 241 c 128,-1,210
 481 234 481 234 482 226.5 c 128,-1,211
 483 219 483 219 480.5 208 c 128,-1,212
 478 197 478 197 469 181 c 128,-1,213
 460 165 460 165 458 150 c 1,214,215
 450 146 450 146 444.5 138 c 128,-1,216
 439 130 439 130 433 122 c 0,217,218
 417.25 101 417.25 101 397 101 c 1,219,-1
 367 104 l 2,220,221
 361 104 361 104 353 102 c 1,222,223
 335.111111111 112.222222222 335.111111111 112.222222222 324 115 c 1,224,225
 319 120 319 120 316.5 126 c 128,-1,226
 314 132 314 132 308 134 c 1,227,228
 294 173.666666667 294 173.666666667 294 192.833333333 c 128,-1,229
 294 212 294 212 296 219.5 c 128,-1,230
 298 227 298 227 300 234.5 c 128,-1,231
 302 242 302 242 301 248 c 0,232,233
 299.550561798 256.696629213 299.550561798 256.696629213 307.275280899 272.848314607 c 128,-1,234
 315 289 315 289 321 294 c 1,235,-1
 319 297 l 1,236,-1
 323 319 l 1,237,238
 327 323 327 323 332.5 332.5 c 128,-1,239
 338 342 338 342 345.5 347 c 128,-1,240
 353 352 353 352 358.5 356 c 128,-1,241
 364 360 364 360 365.5 362.5 c 128,-1,242
 367 365 367 365 369.5 367 c 128,-1,243
 372 369 372 369 375 369 c 128,-1,244
 378 369 378 369 380.5 370.5 c 0,245,246
 393.365853659 378.219512195 393.365853659 378.219512195 400.682926829 377.609756098 c 128,-1,247
 408 377 408 377 413 380 c 1,248,249
 426 378 426 378 433 374 c 128,-1,250
 440 370 440 370 447 358 c 1,251,252
 450 356 450 356 452 356 c 128,-1,253
 454 356 454 356 455.5 354.5 c 128,-1,254
 457 353 457 353 459.5 348 c 128,-1,255
 462 343 462 343 465.5 336.5 c 128,-1,256
 469 330 469 330 471.5 323.5 c 128,-1,257
 474 317 474 317 475.5 314.5 c 0,258,259
 481 305.333333333 481 305.333333333 481 303 c 258,204,-1
361 176 m 0,260,261
 361 131 361 131 383 131 c 0,262,263
 405.333333333 131 405.333333333 131 413.666666667 141 c 128,-1,264
 422 151 422 151 425 155.5 c 128,-1,265
 428 160 428 160 430 160 c 1,266,-1
 430 161 l 2,267,268
 430 168 430 168 433.5 173.5 c 128,-1,269
 437 179 437 179 439.5 183.5 c 128,-1,270
 442 188 442 188 442 192 c 128,-1,271
 442 196 442 196 443.5 199 c 128,-1,272
 445 202 445 202 447 205 c 128,-1,273
 449 208 449 208 450.5 212 c 128,-1,274
 452 216 452 216 451.5 221.5 c 0,275,276
 450.79245283 229.283018868 450.79245283 229.283018868 455.396226415 240.141509434 c 128,-1,277
 460 251 460 251 460 262 c 1,278,-1
 455 276 l 1,279,280
 455 281 455 281 458 284 c 1,281,282
 451 287 451 287 450.5 295 c 128,-1,283
 450 303 450 303 447 309 c 1,284,285
 446 316 446 316 442 320.5 c 128,-1,286
 438 325 438 325 436 331 c 1,287,288
 426 331 426 331 420 335.5 c 128,-1,289
 414 340 414 340 402 339 c 1,290,291
 402 341 402 341 400 341 c 1,292,293
 398 336 398 336 394.5 333.5 c 128,-1,294
 391 331 391 331 389 328 c 128,-1,295
 387 325 387 325 387.5 321 c 128,-1,296
 388 317 388 317 387 315 c 1,297,-1
 383 313 l 1,298,299
 382 311 382 311 382.5 309.5 c 128,-1,300
 383 308 383 308 383 306 c 2,301,-1
 373 288 l 1,302,-1
 373 270 l 1,303,304
 365 259 365 259 366 241.5 c 128,-1,305
 367 224 367 224 366 213 c 128,-1,306
 365 202 365 202 363 193.5 c 128,-1,307
 361 185 361 185 361 176 c 0,260,261
127 434 m 1,308,-1
 133 461 l 2,309,310
 133 465 133 465 131 467 c 1,311,312
 131 470 131 470 133 474 c 1,313,-1
 133 478 l 1,314,-1
 131 525 l 1,315,316
 118 551 118 551 94 555 c 1,317,-1
 92 555 l 2,318,319
 90 555 90 555 84.5 551.5 c 0,320,321
 75.686746988 545.891566265 75.686746988 545.891566265 73.843373494 535.445783133 c 128,-1,322
 72 525 72 525 70.5 515 c 0,323,324
 68 498.333333333 68 498.333333333 68 484.166666667 c 0,325,326
 68 421.666666667 68 421.666666667 71.5 415.833333333 c 128,-1,327
 75 410 75 410 76.5 405.5 c 128,-1,328
 78 401 78 401 78 396.5 c 128,-1,329
 78 392 78 392 82 390 c 1,330,331
 114.363636364 398.090909091 114.363636364 398.090909091 122.5 422.5 c 0,332,333
 124 427 124 427 127 429 c 1,334,-1
 127 434 l 1,308,-1
EndSplineSet
EndChar

StartChar: ampersand
Encoding: 38 38 7
Width: 672
Flags: HW
LayerCount: 2
Fore
SplineSet
528 509 m 1,0,1
 522 521 522 521 522 526.5 c 128,-1,2
 522 532 522 532 528 537.5 c 128,-1,3
 534 543 534 543 541 546.5 c 128,-1,4
 548 550 548 550 555.5 553 c 128,-1,5
 563 556 563 556 567 560 c 1,6,7
 578 559 578 559 587.5 557 c 128,-1,8
 597 555 597 555 607 554 c 1,9,10
 608 549 608 549 612.5 549 c 128,-1,11
 617 549 617 549 621.5 546.5 c 128,-1,12
 626 544 626 544 629 539.5 c 0,13,14
 637.894736842 526.157894737 637.894736842 526.157894737 654 519 c 1,15,16
 656 513 656 513 661 508 c 128,-1,17
 666 503 666 503 670 498 c 1,18,19
 672 488 672 488 672 477.5 c 128,-1,20
 672 467 672 467 669.5 463 c 128,-1,21
 667 459 667 459 663 451 c 1,22,23
 660 449 660 449 661 446.5 c 128,-1,24
 662 444 662 444 659.5 439 c 128,-1,25
 657 434 657 434 651.5 425.5 c 128,-1,26
 646 417 646 417 642 409 c 1,27,28
 634 404 634 404 628.5 399 c 128,-1,29
 623 394 623 394 618 390.5 c 128,-1,30
 613 387 613 387 611 387 c 128,-1,31
 609 387 609 387 607 385 c 256,32,33
 605 383 605 383 605 379.5 c 128,-1,34
 605 376 605 376 601 376 c 128,-1,35
 597 376 597 376 595 374 c 2,36,-1
 592 368 l 2,37,38
 590 366 590 366 585 365.5 c 128,-1,39
 580 365 580 365 574.5 362.5 c 128,-1,40
 569 360 569 360 562.5 356 c 128,-1,41
 556 352 556 352 550 349 c 128,-1,42
 544 346 544 346 536 343 c 128,-1,43
 528 340 528 340 519.5 337.5 c 0,44,45
 500.8 332 500.8 332 489 332 c 258,46,-1
 473 333 l 2,47,48
 464 333 464 333 460 327 c 1,49,-1
 455 327 l 2,50,51
 446 327 446 327 441.5 324 c 128,-1,52
 437 321 437 321 430 318 c 1,53,-1
 424 318 l 2,54,55
 410.4 318 410.4 318 404 310 c 1,56,57
 404 303 404 303 407.5 299 c 128,-1,58
 411 295 411 295 414.5 290.5 c 0,59,60
 423.492307692 278.938461538 423.492307692 278.938461538 422 267 c 1,61,62
 424 264 424 264 427.5 262.5 c 128,-1,63
 431 261 431 261 434 259 c 1,64,-1
 434 258 l 2,65,66
 434 255 434 255 437 252 c 128,-1,67
 440 249 440 249 441.5 246.5 c 128,-1,68
 443 244 443 244 442.5 241 c 128,-1,69
 442 238 442 238 447 233 c 0,70,71
 454 226 454 226 454 203.333333333 c 128,-1,72
 454 180.666666667 454 180.666666667 444 169 c 1,73,-1
 444 150 l 1,74,75
 437 138 437 138 427 132.5 c 128,-1,76
 417 127 417 127 415 112 c 1,77,78
 404.826086957 108.608695652 404.826086957 108.608695652 390.913043478 93.3043478261 c 128,-1,79
 377 78 377 78 375 75 c 1,80,-1
 372 75 l 2,81,82
 361 75 361 75 357.5 69 c 128,-1,83
 354 63 354 63 347 58 c 1,84,85
 338 58 338 58 330 53.5 c 128,-1,86
 322 49 322 49 315 49 c 1,87,-1
 304 51 l 2,88,89
 300 51 300 51 298 48 c 128,-1,90
 296 45 296 45 285 45 c 2,91,-1
 283 45 l 1,92,-1
 279 41 l 1,93,-1
 278 41 l 1,94,-1
 225 47 l 1,95,-1
 212 45 l 1,96,-1
 151 56 l 1,97,98
 145.666666667 61.3333333333 145.666666667 61.3333333333 139.833333333 63.6666666667 c 128,-1,99
 134 66 134 66 135 71 c 1,100,101
 123 71 123 71 110 84 c 128,-1,102
 97 97 97 97 90 100 c 1,103,104
 90 105 90 105 86.5 107.5 c 128,-1,105
 83 110 83 110 84 116 c 1,106,107
 63 126 63 126 53.5 144 c 128,-1,108
 44 162 44 162 40.5 175 c 128,-1,109
 37 188 37 188 35 193 c 128,-1,110
 33 198 33 198 33 203 c 128,-1,111
 33 208 33 208 35 212 c 1,112,113
 31 216 31 216 31 222 c 1,114,-1
 35 244 l 1,115,-1
 33 254 l 2,116,117
 33 255 33 255 37 259 c 1,118,-1
 35 273 l 1,119,120
 35 281 35 281 36.5 287.5 c 128,-1,121
 38 294 38 294 39 300.5 c 128,-1,122
 40 307 40 307 39.5 314.5 c 128,-1,123
 39 322 39 322 40.5 327.5 c 128,-1,124
 42 333 42 333 48 343.5 c 128,-1,125
 54 354 54 354 61.5 365.5 c 0,126,127
 78.8936170213 392.170212766 78.8936170213 392.170212766 88 399 c 1,128,-1
 94 402 l 1,129,-1
 96 407 l 1,130,-1
 99 407 l 1,131,-1
 99 411 l 1,132,-1
 103 411 l 1,133,134
 105 413 105 413 105 414 c 128,-1,135
 105 415 105 415 108.5 417.5 c 128,-1,136
 112 420 112 420 116 421 c 128,-1,137
 120 422 120 422 122 428 c 1,138,139
 139.571428571 433.857142857 139.571428571 433.857142857 145 442 c 1,140,141
 158 443 158 443 167 458 c 1,142,143
 166 463 166 463 162 466 c 128,-1,144
 158 469 158 469 158 472 c 2,145,-1
 158 477 l 1,146,-1
 153 494 l 1,147,-1
 155 500 l 1,148,-1
 152 526 l 1,149,150
 152 540 152 540 167 564 c 1,151,152
 178 567 178 567 185.5 572 c 128,-1,153
 193 577 193 577 199.5 581 c 0,154,155
 215.75 591 215.75 591 231.875 591 c 128,-1,156
 248 591 248 591 251 584 c 1,157,158
 255 588 255 588 260 588 c 128,-1,159
 265 588 265 588 272.5 583 c 128,-1,160
 280 578 280 578 287 575 c 1,161,162
 296.923076923 581.615384615 296.923076923 581.615384615 299.461538462 594.307692308 c 128,-1,163
 302 607 302 607 303.5 615.5 c 128,-1,164
 305 624 305 624 308 629 c 1,165,-1
 319 633 l 1,166,167
 328 633 328 633 333.5 626.5 c 128,-1,168
 339 620 339 620 339 613 c 0,169,170
 339 588 339 588 332 581 c 0,171,172
 331 580 331 580 330 578 c 1,173,-1
 330 570 l 2,174,175
 330 568 330 568 326 560 c 128,-1,176
 322 552 322 552 322 539 c 1,177,-1
 326 522 l 1,178,179
 326 514 326 514 319.5 503.5 c 128,-1,180
 313 493 313 493 303 493 c 128,-1,181
 293 493 293 493 291 503 c 128,-1,182
 289 513 289 513 287 521 c 1,183,184
 279 532 279 532 262.5 541 c 128,-1,185
 246 550 246 550 232 550 c 1,186,-1
 221 549 l 1,187,188
 221 546 221 546 220.5 546.5 c 128,-1,189
 220 547 220 547 213.5 547 c 128,-1,190
 207 547 207 547 201.5 539.5 c 128,-1,191
 196 532 196 532 190 524 c 1,192,193
 194 510 194 510 196.5 498 c 128,-1,194
 199 486 199 486 204 478.5 c 0,195,196
 214.857142857 462.214285714 214.857142857 462.214285714 247 464 c 1,197,198
 254 459 254 459 263.5 454.5 c 128,-1,199
 273 450 273 450 273 439 c 0,200,201
 273 423 273 423 246 423 c 0,202,203
 241 423 241 423 239 425.5 c 128,-1,204
 237 428 237 428 233 430 c 1,205,-1
 228 430 l 2,206,207
 219 430 219 430 214 434 c 1,208,-1
 212 434 l 2,209,210
 209 434 209 434 208 431.5 c 128,-1,211
 207 429 207 429 197 427.5 c 128,-1,212
 187 426 187 426 180 419 c 128,-1,213
 173 412 173 412 161 411 c 1,214,215
 154 402 154 402 144 399 c 128,-1,216
 134 396 134 396 125 391 c 1,217,218
 120 383 120 383 112 375 c 128,-1,219
 104 367 104 367 96.5 358 c 0,220,221
 78 335.8 78 335.8 78 319 c 1,222,-1
 80 297 l 1,223,-1
 78 268 l 1,224,-1
 82 248 l 1,225,-1
 81 236 l 2,226,227
 81 229 81 229 86 224 c 1,228,-1
 86 222 l 1,229,-1
 84 214 l 1,230,231
 84 208.25 84 208.25 91 191.625 c 0,232,233
 105.247058824 157.788235294 105.247058824 157.788235294 112.123529412 151.894117647 c 0,234,235
 123.052631579 142.526315789 123.052631579 142.526315789 125.026315789 137.263157895 c 128,-1,236
 127 132 127 132 129.5 129 c 128,-1,237
 132 126 132 126 136.5 124.5 c 128,-1,238
 141 123 141 123 145 120 c 1,239,240
 148.333333333 110 148.333333333 110 169.666666667 98 c 128,-1,241
 191 86 191 86 195 86 c 2,242,-1
 206 87 l 1,243,244
 220 87 220 87 234.5 81.5 c 128,-1,245
 249 76 249 76 262 76 c 128,-1,246
 275 76 275 76 287.5 80 c 128,-1,247
 300 84 300 84 312 82 c 1,248,249
 321 88 321 88 331 90 c 128,-1,250
 341 92 341 92 347.5 96.5 c 0,251,252
 360.724137931 105.655172414 360.724137931 105.655172414 369 116 c 1,253,-1
 377 128 l 1,254,255
 382 133 382 133 386.5 136 c 128,-1,256
 391 139 391 139 397 149 c 0,257,258
 413 175.666666667 413 175.666666667 417 193 c 1,259,260
 415 200 415 200 413 206 c 128,-1,261
 411 212 411 212 409 219 c 128,-1,262
 407 226 407 226 403.5 232 c 128,-1,263
 400 238 400 238 398 244 c 1,264,265
 375.333333333 272.333333333 375.333333333 272.333333333 369 285 c 1,266,267
 360 285 360 285 356.5 289.5 c 128,-1,268
 353 294 353 294 347 299 c 1,269,270
 343 300 343 300 330.5 300 c 0,271,272
 287.333333333 300 287.333333333 300 269 285 c 0,273,274
 264 281 264 281 253.5 275.5 c 128,-1,275
 243 270 243 270 240 265 c 1,276,-1
 238 259 l 1,277,-1
 233 257 l 1,278,279
 229 250 229 250 228.5 241.5 c 128,-1,280
 228 233 228 233 221 228 c 1,281,-1
 209 227 l 2,282,283
 197 227 197 227 196.5 232 c 128,-1,284
 196 237 196 237 195 248 c 1,285,286
 197 250 197 250 197 253.5 c 128,-1,287
 197 257 197 257 194 257.5 c 128,-1,288
 191 258 191 258 191 261 c 128,-1,289
 191 264 191 264 198 268.5 c 128,-1,290
 205 273 205 273 204 285 c 1,291,292
 212 287.666666667 212 287.666666667 220 301 c 1,293,294
 229 303 229 303 236 310 c 128,-1,295
 243 317 243 317 251 323 c 1,296,297
 257 326 257 326 259 334 c 1,298,-1
 260 334 l 2,299,300
 272 334 272 334 283 341 c 128,-1,301
 294 348 294 348 308 348 c 1,302,-1
 344 344 l 1,303,-1
 351 346 l 1,304,-1
 368 345 l 2,305,306
 375 345 375 345 379.5 346.5 c 128,-1,307
 384 348 384 348 391 350 c 2,308,-1
 445 361 l 2,309,310
 456 364 456 364 465.5 365.5 c 128,-1,311
 475 367 475 367 482 369 c 128,-1,312
 489 371 489 371 499 376 c 1,313,314
 505 377 505 377 508.5 377 c 2,315,-1
 515 377 l 2,316,317
 522.666666667 377 522.666666667 377 528.833333333 380 c 128,-1,318
 535 383 535 383 538 382.5 c 128,-1,319
 541 382 541 382 543.5 383.5 c 128,-1,320
 546 385 546 385 548.5 388 c 128,-1,321
 551 391 551 391 554 393 c 1,322,323
 569.75 394.75 569.75 394.75 582.875 404.375 c 128,-1,324
 596 414 596 414 602 418.5 c 128,-1,325
 608 423 608 423 611 423 c 1,326,-1
 635 456 l 1,327,-1
 635 465 l 2,328,329
 635 484.272727273 635 484.272727273 626 491.636363636 c 128,-1,330
 617 499 617 499 612.5 502 c 128,-1,331
 608 505 608 505 607 509 c 1,332,333
 599 516 599 516 595.5 518 c 128,-1,334
 592 520 592 520 574.3 520 c 128,-1,335
 556.6 520 556.6 520 528 509 c 1,0,1
EndSplineSet
EndChar

StartChar: quotesingle
Encoding: 39 39 8
Width: 170
Flags: HW
LayerCount: 2
Fore
SplineSet
96 596 m 1,0,-1
 98 583 l 1,1,-1
 96 569 l 1,2,-1
 96 554 l 2,3,4
 96 546 96 546 93 533.5 c 128,-1,5
 90 521 90 521 88 512 c 128,-1,6
 86 503 86 503 73 503 c 128,-1,7
 60 503 60 503 49 512 c 1,8,9
 51 520 51 520 51 525 c 2,10,-1
 49 552 l 1,11,-1
 49 568 l 2,12,13
 49 615 49 615 45 655 c 1,14,-1
 43 656 l 1,15,-1
 43 657 l 1,16,17
 45 664 45 664 45 666 c 2,18,-1
 41 681 l 1,19,20
 41 693 41 693 43 707 c 1,21,-1
 47 717 l 1,22,-1
 45 727 l 2,23,24
 45 732 45 732 47.5 735.5 c 128,-1,25
 50 739 50 739 51 744 c 1,26,27
 58 750 58 750 69 750 c 128,-1,28
 80 750 80 750 88 737.5 c 128,-1,29
 96 725 96 725 96 713 c 1,30,-1
 94 703 l 1,31,-1
 98 689 l 1,32,-1
 96 676 l 1,33,-1
 96 596 l 1,0,-1
EndSplineSet
EndChar

StartChar: parenleft
Encoding: 40 40 9
Width: 292
Flags: HW
LayerCount: 2
Fore
SplineSet
20 443 m 1,0,-1
 27 489 l 2,1,2
 28 492 28 492 29 494.5 c 128,-1,3
 30 497 30 497 31.5 502 c 128,-1,4
 33 507 33 507 32.5 515 c 128,-1,5
 32 523 32 523 34 529.5 c 128,-1,6
 36 536 36 536 39 540.5 c 128,-1,7
 42 545 42 545 44.5 552 c 128,-1,8
 47 559 47 559 49 568.5 c 128,-1,9
 51 578 51 578 56 586 c 1,10,11
 58 593 58 593 62.5 599 c 128,-1,12
 67 605 67 605 71.5 615 c 128,-1,13
 76 625 76 625 81.5 638 c 128,-1,14
 87 651 87 651 92.5 659 c 128,-1,15
 98 667 98 667 102 670 c 128,-1,16
 106 673 106 673 111 680.5 c 128,-1,17
 116 688 116 688 124 696.5 c 128,-1,18
 132 705 132 705 137 710.5 c 128,-1,19
 142 716 142 716 144 718.5 c 0,20,21
 148.666666667 724.333333333 148.666666667 724.333333333 153.333333333 725.666666667 c 128,-1,22
 158 727 158 727 162 731 c 128,-1,23
 166 735 166 735 169.5 738 c 128,-1,24
 173 741 173 741 177.5 743.5 c 128,-1,25
 182 746 182 746 187 751 c 1,26,27
 199 759 199 759 209.5 768 c 128,-1,28
 220 777 220 777 235.5 777 c 128,-1,29
 251 777 251 777 251 763 c 128,-1,30
 251 749 251 749 232 749 c 1,31,-1
 217 733 l 1,32,-1
 214 733 l 2,33,34
 208 733 208 733 199.5 724 c 128,-1,35
 191 715 191 715 191 708 c 1,36,37
 190 707 190 707 189 707 c 2,38,-1
 182 708 l 1,39,-1
 180 708 l 1,40,41
 166 690 166 690 152.5 674.5 c 128,-1,42
 139 659 139 659 133 637 c 1,43,44
 127.666666667 633 127.666666667 633 116.333333333 607.5 c 0,45,46
 97 564 97 564 97 552 c 2,47,-1
 97 549 l 1,48,49
 85 522.6 85 522.6 85 507 c 2,50,-1
 86 478 l 2,51,52
 86 463 86 463 82 452 c 1,53,54
 85 437 85 437 85 407 c 1,55,-1
 84 402 l 1,56,57
 84 394 84 394 85 383 c 128,-1,58
 86 372 86 372 87 362.5 c 0,59,60
 89 343.5 89 343.5 89 328 c 1,61,-1
 87 321 l 1,62,-1
 91 307 l 2,63,64
 91 305 91 305 89 303 c 1,65,66
 100 286 100 286 102 262.5 c 128,-1,67
 104 239 104 239 113 220 c 1,68,69
 113 206.75 113 206.75 116.5 198.875 c 0,70,71
 123 184.25 123 184.25 123 177 c 1,72,73
 132 166 132 166 138.5 145 c 128,-1,74
 145 124 145 124 153 110 c 1,75,76
 166 80 166 80 183 47 c 1,77,78
 188 43 188 43 192 37 c 128,-1,79
 196 31 196 31 199.5 25.5 c 128,-1,80
 203 20 203 20 206.5 17 c 128,-1,81
 210 14 210 14 213 9 c 2,82,-1
 232 -16 l 2,83,84
 237 -22 237 -22 242.5 -27 c 128,-1,85
 248 -32 248 -32 249 -38 c 1,86,-1
 249 -41 l 2,87,88
 249 -43 249 -43 243 -55 c 128,-1,89
 237 -67 237 -67 234 -69 c 1,90,91
 219 -72 219 -72 212 -72 c 128,-1,92
 205 -72 205 -72 198 -69 c 1,93,94
 195 -65 195 -65 192 -61 c 128,-1,95
 189 -57 189 -57 183 -57 c 1,96,97
 180 -43 180 -43 166 -38 c 1,98,-1
 167 -36 l 2,99,100
 167 -34 167 -34 164.5 -33 c 0,101,102
 158.5625 -30.625 158.5625 -30.625 159.28125 -26.3125 c 128,-1,103
 160 -22 160 -22 158.5 -19.5 c 128,-1,104
 157 -17 157 -17 155 -16.5 c 128,-1,105
 153 -16 153 -16 147.5 -11 c 128,-1,106
 142 -6 142 -6 135.5 2.5 c 128,-1,107
 129 11 129 11 119 17 c 1,108,109
 118 26 118 26 112 34.5 c 128,-1,110
 106 43 106 43 103 51 c 0,111,112
 102 52 102 52 98.5 53 c 0,113,114
 91 55.1428571429 91 55.1428571429 91 62.5714285714 c 128,-1,115
 91 70 91 70 89 75 c 1,116,-1
 85 77 l 1,117,-1
 80 96 l 1,118,119
 77 102 77 102 73 108 c 128,-1,120
 69 114 69 114 67 118.5 c 128,-1,121
 65 123 65 123 65.5 126 c 128,-1,122
 66 129 66 129 63 131 c 1,123,124
 61 138 61 138 58.5 144.5 c 128,-1,125
 56 151 56 151 54 157 c 1,126,-1
 50 161 l 1,127,128
 42 185 42 185 42 198.5 c 128,-1,129
 42 212 42 212 41 220 c 128,-1,130
 40 228 40 228 38 237 c 0,131,132
 33.2 258.6 33.2 258.6 31 263 c 1,133,134
 31 285 31 285 27.5 296.5 c 128,-1,135
 24 308 24 308 24 312 c 2,136,-1
 25 323 l 2,137,138
 25 326 25 326 23 328 c 1,139,-1
 24 352 l 1,140,-1
 24 385.5 l 2,141,142
 24 401 24 401 23 419 c 1,143,-1
 20 443 l 1,0,-1
EndSplineSet
EndChar

StartChar: parenright
Encoding: 41 41 10
Width: 292
Flags: HW
LayerCount: 2
Fore
SplineSet
187 377 m 1,0,-1
 189 402 l 1,1,-1
 189 415 l 1,2,3
 187 417 187 417 187 421 c 1,4,5
 189 423 189 423 189 425.5 c 128,-1,6
 189 428 189 428 187.5 431.5 c 128,-1,7
 186 435 186 435 185 440 c 128,-1,8
 184 445 184 445 184.5 452 c 128,-1,9
 185 459 185 459 183 465 c 128,-1,10
 181 471 181 471 180.5 472 c 128,-1,11
 180 473 180 473 179.5 474 c 128,-1,12
 179 475 179 475 179 476.5 c 2,13,-1
 179 485 l 2,14,15
 179 496 179 496 173.5 510 c 128,-1,16
 168 524 168 524 168 527.5 c 128,-1,17
 168 531 168 531 170 532 c 1,18,19
 148 558 148 558 142 592 c 1,20,21
 138 597 138 597 134.5 602.5 c 128,-1,22
 131 608 131 608 126 613 c 1,23,24
 120 622 120 622 116 632 c 128,-1,25
 112 642 112 642 100 647 c 1,26,27
 100 663 100 663 93.5 669.5 c 128,-1,28
 87 676 87 676 85.5 676 c 0,29,30
 81 676 81 676 82 680 c 128,-1,31
 83 684 83 684 80.5 687.5 c 128,-1,32
 78 691 78 691 73 696.5 c 128,-1,33
 68 702 68 702 59.5 712.5 c 0,34,35
 30.1009174312 748.816513761 30.1009174312 748.816513761 26.5504587156 762.908256881 c 128,-1,36
 23 777 23 777 21.5 780.5 c 128,-1,37
 20 784 20 784 20 791 c 128,-1,38
 20 798 20 798 33.5 801 c 128,-1,39
 47 804 47 804 54.5 804 c 128,-1,40
 62 804 62 804 75 793.5 c 128,-1,41
 88 783 88 783 91.5 778.5 c 128,-1,42
 95 774 95 774 95 772.5 c 128,-1,43
 95 771 95 771 98.5 766.5 c 128,-1,44
 102 762 102 762 107 757 c 128,-1,45
 112 752 112 752 113 743 c 1,46,47
 119.692307692 740.769230769 119.692307692 740.769230769 126 725 c 1,48,49
 143.142857143 714.714285714 143.142857143 714.714285714 150 701 c 0,50,51
 152 699 152 699 152 696.5 c 128,-1,52
 152 694 152 694 159.5 686.5 c 0,53,54
 170.75 675.25 170.75 675.25 175.875 664.125 c 128,-1,55
 181 653 181 653 181 650 c 128,-1,56
 181 647 181 647 183 643.5 c 128,-1,57
 185 640 185 640 189.5 635.5 c 128,-1,58
 194 631 194 631 195.5 627 c 128,-1,59
 197 623 197 623 196.5 619.5 c 128,-1,60
 196 616 196 616 197.5 613 c 128,-1,61
 199 610 199 610 200.5 608 c 0,62,63
 207.432432432 598.756756757 207.432432432 598.756756757 215 570 c 1,64,65
 220 565 220 565 223.5 558.5 c 128,-1,66
 227 552 227 552 232 547 c 1,67,68
 232 534 232 534 236.5 521.5 c 128,-1,69
 241 509 241 509 241 500.5 c 128,-1,70
 241 492 241 492 239 483 c 1,71,72
 251 459 251 459 251 397.5 c 128,-1,73
 251 336 251 336 249 318.5 c 128,-1,74
 247 301 247 301 245 294 c 128,-1,75
 243 287 243 287 243 279 c 1,76,-1
 245 273 l 1,77,78
 245 269 245 269 243.5 266.5 c 128,-1,79
 242 264 242 264 240 258.5 c 128,-1,80
 238 253 238 253 237 240.5 c 128,-1,81
 236 228 236 228 234 216 c 0,82,83
 228.870967742 185.225806452 228.870967742 185.225806452 219 177 c 1,84,85
 221 173 221 173 221 169.5 c 128,-1,86
 221 166 221 166 217.5 162.5 c 128,-1,87
 214 159 214 159 212.5 153 c 0,88,89
 209 139 209 139 209 130 c 1,90,91
 199 118 199 118 197 100 c 1,92,93
 189.610526316 93.8421052632 189.610526316 93.8421052632 179.305263158 70.4210526316 c 0,94,95
 160.943661972 28.6901408451 160.943661972 28.6901408451 150 24 c 1,96,97
 148 18 148 18 146 14.5 c 128,-1,98
 144 11 144 11 144 6 c 1,99,100
 133 -1 133 -1 129.5 -8.5 c 128,-1,101
 126 -16 126 -16 113 -22 c 1,102,103
 113 -29.8 113 -29.8 98.5 -41.4 c 128,-1,104
 84 -53 84 -53 80 -53 c 128,-1,105
 76 -53 76 -53 72 -50 c 128,-1,106
 68 -47 68 -47 63 -45 c 1,107,108
 62 -43 62 -43 62 -34.5 c 128,-1,109
 62 -26 62 -26 76 -13 c 128,-1,110
 90 0 90 0 98 7 c 1,111,112
 98 14 98 14 104.5 27 c 128,-1,113
 111 40 111 40 114 43.5 c 128,-1,114
 117 47 117 47 119 48.5 c 128,-1,115
 121 50 121 50 123 53.5 c 128,-1,116
 125 57 125 57 125.5 62.5 c 128,-1,117
 126 68 126 68 128 71.5 c 128,-1,118
 130 75 130 75 133 78.5 c 128,-1,119
 136 82 136 82 138 90.5 c 128,-1,120
 140 99 140 99 145 114 c 128,-1,121
 150 129 150 129 159 153 c 128,-1,122
 168 177 168 177 173 195 c 128,-1,123
 178 213 178 213 181 233.5 c 128,-1,124
 184 254 184 254 186 277 c 0,125,126
 191 334.5 191 334.5 191 353 c 1,127,-1
 187 377 l 1,0,-1
EndSplineSet
EndChar

StartChar: asterisk
Encoding: 42 42 11
Width: 376
Flags: HW
LayerCount: 2
Fore
SplineSet
201 580 m 1,0,-1
 202 568 l 1,1,2
 212 569 212 569 217 577.5 c 128,-1,3
 222 586 222 586 230 593 c 128,-1,4
 238 600 238 600 247.5 605.5 c 128,-1,5
 257 611 257 611 266 619 c 128,-1,6
 275 627 275 627 283.5 635.5 c 128,-1,7
 292 644 292 644 304 647 c 1,8,9
 308 659 308 659 326 659 c 0,10,11
 330 659 330 659 332 658 c 1,12,13
 335 653 335 653 335 646 c 128,-1,14
 335 639 335 639 328 629 c 1,15,16
 323 627 323 627 318 625.5 c 128,-1,17
 313 624 313 624 308 622 c 1,18,19
 301 616 301 616 297 610 c 128,-1,20
 293 604 293 604 285 601 c 1,21,22
 283 598 283 598 282 594.5 c 128,-1,23
 281 591 281 591 279 588 c 1,24,25
 270 583 270 583 260.5 580 c 128,-1,26
 251 577 251 577 247 564 c 1,27,28
 231 560 231 560 224 547.5 c 128,-1,29
 217 535 217 535 204 526 c 1,30,-1
 200 510 l 1,31,32
 200 502 200 502 211 496 c 128,-1,33
 222 490 222 490 227 477 c 1,34,35
 236 477 236 477 264.5 448.5 c 2,36,-1
 296 417 l 2,37,38
 298 414 298 414 299 410.5 c 128,-1,39
 300 407 300 407 303.5 400.5 c 128,-1,40
 307 394 307 394 315.5 387 c 128,-1,41
 324 380 324 380 324 368 c 2,42,-1
 324 366 l 1,43,-1
 315 364 l 2,44,45
 314 364 314 364 312 366 c 1,46,47
 308 359 308 359 302 359 c 128,-1,48
 296 359 296 359 288 367 c 128,-1,49
 280 375 280 375 272 385 c 128,-1,50
 264 395 264 395 257 405.5 c 128,-1,51
 250 416 250 416 247 419 c 128,-1,52
 244 422 244 422 242.5 422.5 c 128,-1,53
 241 423 241 423 239.5 424.5 c 128,-1,54
 238 426 238 426 238.5 427.5 c 128,-1,55
 239 429 239 429 233.5 436.5 c 128,-1,56
 228 444 228 444 215 451 c 1,57,58
 212 456 212 456 209.5 461 c 128,-1,59
 207 466 207 466 200 468 c 1,60,61
 195 464 195 464 195.5 458 c 128,-1,62
 196 452 196 452 196 446 c 1,63,-1
 191 428 l 1,64,65
 194 411 l 1,66,-1
 191 397 l 1,67,-1
 196 383 l 1,68,-1
 194 374 l 1,69,-1
 197 327 l 1,70,-1
 197 317.5 l 2,71,72
 197 313 197 313 196 308 c 1,73,74
 189 305 189 305 183 305 c 2,75,-1
 172 306 l 1,76,77
 170 313 170 313 167 317.5 c 128,-1,78
 164 322 164 322 164 330 c 1,79,-1
 169 349 l 1,80,-1
 166 374 l 1,81,-1
 166 389 l 2,82,83
 166 392 166 392 164.5 404 c 128,-1,84
 163 416 163 416 161.5 429.5 c 0,85,86
 158 461 158 461 155 470 c 1,87,88
 143 470 143 470 139 462 c 128,-1,89
 135 454 135 454 130 449 c 128,-1,90
 125 444 125 444 117 440 c 128,-1,91
 109 436 109 436 105 432 c 1,92,-1
 105 428 l 1,93,94
 100 423 100 423 94.5 422.5 c 128,-1,95
 89 422 89 422 86 409 c 1,96,97
 69 400 69 400 58 384.5 c 128,-1,98
 47 369 47 369 31 357 c 1,99,100
 15 366.6 15 366.6 15 374.3 c 128,-1,101
 15 382 15 382 19.5 387 c 128,-1,102
 24 392 24 392 29.5 396.5 c 0,103,104
 41.8378378378 406.594594595 41.8378378378 406.594594595 46 417 c 1,105,106
 50 417 50 417 52 420 c 128,-1,107
 54 423 54 423 56 425 c 1,108,-1
 60 425 l 1,109,-1
 60 428 l 1,110,111
 76.5 439 76.5 439 79.75 445.5 c 128,-1,112
 83 452 83 452 86 454 c 2,113,-1
 92 456 l 1,114,115
 96 459 96 459 98.5 463 c 128,-1,116
 101 467 101 467 105 470 c 2,117,-1
 119 479 l 1,118,119
 125 485 125 485 130.5 491.5 c 128,-1,120
 136 498 136 498 139.5 501 c 128,-1,121
 143 504 143 504 143 506 c 256,122,123
 143 509 143 509 135 513 c 1,124,-1
 135 517 l 1,125,126
 124 528 124 528 117 528 c 1,127,-1
 117 537 l 1,128,129
 112 539 112 539 106.5 543.5 c 128,-1,130
 101 548 101 548 95 550 c 1,131,132
 93 554 93 554 91.5 555.5 c 128,-1,133
 90 557 90 557 90 562 c 1,134,135
 80 564 80 564 75.5 573 c 128,-1,136
 71 582 71 582 60 584 c 1,137,138
 60 590 60 590 55.5 592 c 128,-1,139
 51 594 51 594 50 599 c 1,140,141
 45 600 45 600 42.5 602 c 128,-1,142
 40 604 40 604 35 605 c 1,143,144
 33.7441860465 611.279069767 33.7441860465 611.279069767 25.3720930233 617.139534884 c 0,145,146
 10 627.9 10 627.9 10 643.45 c 128,-1,147
 10 659 10 659 25 659 c 0,148,149
 36.2307692308 659 36.2307692308 659 48.6153846154 647.5 c 128,-1,150
 61 636 61 636 68 629 c 2,151,-1
 80 617 l 2,152,153
 84 614 84 614 88 612 c 128,-1,154
 92 610 92 610 97 605.5 c 128,-1,155
 102 601 102 601 108 594.5 c 128,-1,156
 114 588 114 588 121 582 c 2,157,-1
 135 572 l 1,158,159
 140 567 140 567 146.5 557.5 c 128,-1,160
 153 548 153 548 161 548 c 1,161,162
 168.230769231 551.615384615 168.230769231 551.615384615 167.115384615 558.307692308 c 128,-1,163
 166 565 166 565 166 571 c 2,164,-1
 170 596 l 1,165,-1
 168 612 l 1,166,-1
 172 639 l 1,167,168
 170 641 170 641 170 643 c 2,169,-1
 172 674 l 1,170,-1
 170 699 l 257,171,-1
 174 715 l 257,172,-1
 172 729 l 2,173,174
 172 734 172 734 178 741 c 128,-1,175
 184 748 184 748 189 748 c 1,176,-1
 191 746 l 1,177,178
 196 746 196 746 201.5 737.5 c 128,-1,179
 207 729 207 729 207.5 723 c 128,-1,180
 208 717 208 717 208.5 709 c 128,-1,181
 209 701 209 701 209 694 c 2,182,-1
 209 684 l 2,183,184
 209 674 209 674 206 667 c 1,185,186
 208 662 208 662 208 656.5 c 2,187,-1
 208 646 l 1,188,-1
 201 580 l 1,0,-1
EndSplineSet
EndChar

StartChar: plus
Encoding: 43 43 12
Width: 509
Flags: HW
LayerCount: 2
Fore
SplineSet
478 357 m 1,0,-1
 488 345 l 1,1,2
 486 338 486 338 481 334.5 c 128,-1,3
 476 331 476 331 471 326 c 1,4,-1
 450 330 l 1,5,6
 444 330 444 330 439 327.5 c 128,-1,7
 434 325 434 325 428.5 323.5 c 128,-1,8
 423 322 423 322 416 322.5 c 128,-1,9
 409 323 409 323 401 318 c 1,10,-1
 401 317 l 1,11,12
 399 317 399 317 399 318 c 128,-1,13
 399 319 399 319 397 319 c 258,14,-1
 390 317 l 1,15,-1
 376 319 l 1,16,17
 368 319 368 319 328 311 c 1,18,19
 322 311 322 311 319 304 c 1,20,21
 317 306 317 306 310 306 c 2,22,-1
 300 306 l 2,23,24
 298 306 298 306 297.5 304.5 c 128,-1,25
 297 303 297 303 294.5 301.5 c 128,-1,26
 292 300 292 300 283.5 299 c 128,-1,27
 275 298 275 298 275 292 c 1,28,-1
 279 283 l 1,29,-1
 274 274 l 257,30,-1
 276 264 l 1,31,-1
 275 249 l 1,32,33
 275 220.666666667 275 220.666666667 280 207.333333333 c 128,-1,34
 285 194 285 194 285 187 c 2,35,-1
 282 153 l 1,36,-1
 285 117 l 2,37,38
 285 106.75 285 106.75 280 104.875 c 0,39,40
 271.5 101.6875 271.5 101.6875 265.25 99.34375 c 128,-1,41
 259 97 259 97 256.5 97 c 128,-1,42
 254 97 254 97 252.5 100 c 128,-1,43
 251 103 251 103 249 103 c 258,44,-1
 242 102 l 1,45,46
 231 102 231 102 231 127 c 1,47,-1
 234 170 l 1,48,-1
 230 208 l 1,49,-1
 231 226 l 1,50,-1
 225 252 l 1,51,-1
 227 276 l 2,52,53
 227 288 227 288 221.5 290 c 128,-1,54
 216 292 216 292 211 298 c 1,55,-1
 203 298 l 1,56,57
 186.714285714 300.714285714 186.714285714 300.714285714 178 292 c 1,58,-1
 160 298 l 1,59,-1
 142 292 l 1,60,-1
 141 292 l 1,61,-1
 132 295 l 257,62,63
 125 295 125 295 119 292 c 1,64,65
 109 290 109 290 98.5 291 c 128,-1,66
 88 292 88 292 72.5 292 c 128,-1,67
 57 292 57 292 42 288 c 1,68,69
 40 294 40 294 32.5 294 c 128,-1,70
 25 294 25 294 23 300 c 1,71,-1
 23 301 l 1,72,-1
 20 306 l 1,73,74
 20 322 20 322 32.5 322 c 2,75,-1
 56 322 l 1,76,-1
 72 324 l 1,77,-1
 89 319 l 1,78,79
 93 319 93 319 97 322 c 1,80,-1
 105 319 l 1,81,-1
 109 322 l 1,82,-1
 115 319 l 1,83,84
 118 319 118 319 121.5 321 c 128,-1,85
 125 323 125 323 130.5 324 c 0,86,87
 141.5 326 141.5 326 158 326 c 1,88,-1
 178 324 l 1,89,-1
 189 328 l 1,90,-1
 198 326 l 1,91,92
 205 326 205 326 223 332 c 1,93,94
 224 337 224 337 224 342.5 c 2,95,-1
 224 353 l 1,96,-1
 223 402 l 1,97,-1
 227 465 l 1,98,-1
 223 534 l 2,99,100
 223 544 223 544 227 552 c 1,101,102
 236 558 236 558 245 558 c 0,103,104
 259.090909091 558 259.090909091 558 262 526 c 1,105,106
 264 520 264 520 264 515 c 2,107,-1
 267 482 l 2,108,109
 267 474 267 474 264 471 c 1,110,-1
 267 461 l 2,111,112
 267 458 267 458 264 458 c 1,113,114
 270 442 270 442 270 427 c 128,-1,115
 270 412 270 412 266 402 c 1,116,117
 268 400 268 400 270 392 c 128,-1,118
 272 384 272 384 272 382 c 258,119,-1
 268 373 l 257,120,-1
 270 360 l 257,121,-1
 268 343 l 1,122,-1
 268 339 l 1,123,124
 275 332 275 332 289.5 332 c 128,-1,125
 304 332 304 332 320 336.5 c 128,-1,126
 336 341 336 341 347 341 c 128,-1,127
 358 341 358 341 361 342.5 c 128,-1,128
 364 344 364 344 369.5 345 c 128,-1,129
 375 346 375 346 381 345.5 c 128,-1,130
 387 345 387 345 395.5 345 c 128,-1,131
 404 345 404 345 417 349 c 128,-1,132
 430 353 430 353 438 353 c 2,133,-1
 439 353 l 1,134,135
 441 351 441 351 443 351 c 2,136,-1
 478 357 l 1,0,-1
EndSplineSet
EndChar

StartChar: comma
Encoding: 44 44 13
Width: 145
Flags: HW
LayerCount: 2
Fore
SplineSet
23 60 m 1,0,1
 10 60 10 60 10 73.5 c 128,-1,2
 10 87 10 87 23.5 101 c 128,-1,3
 37 115 37 115 47 118 c 128,-1,4
 57 121 57 121 65 120.5 c 128,-1,5
 73 120 73 120 78 127 c 1,6,-1
 86 127 l 2,7,8
 91 127 91 127 91 126 c 128,-1,9
 91 125 91 125 93 123.5 c 128,-1,10
 95 122 95 122 97 122.5 c 128,-1,11
 99 123 99 123 101 121.5 c 128,-1,12
 103 120 103 120 104 117 c 128,-1,13
 105 114 105 114 108 112 c 1,14,15
 112 106 112 106 114.5 103.5 c 128,-1,16
 117 101 117 101 119 93.5 c 0,17,18
 125 71 125 71 125 55.5 c 128,-1,19
 125 40 125 40 114 29 c 1,20,21
 112 25 112 25 112.5 18 c 128,-1,22
 113 11 113 11 108 11 c 1,23,-1
 110 2 l 1,24,25
 110 -3 110 -3 103.5 -10 c 128,-1,26
 97 -17 97 -17 95 -25 c 1,27,28
 90 -28 90 -28 86 -32 c 128,-1,29
 82 -36 82 -36 78 -40 c 1,30,31
 78 -49 78 -49 76 -54 c 256,32,33
 74 -59 74 -59 61.5 -67.5 c 128,-1,34
 49 -76 49 -76 44 -76 c 128,-1,35
 39 -76 39 -76 37 -72.5 c 128,-1,36
 35 -69 35 -69 31 -68 c 1,37,-1
 31 -58 l 258,38,39
 31 -52 31 -52 35.5 -49 c 128,-1,40
 40 -46 40 -46 42 -44 c 0,41,42
 43 -42 43 -42 47 -37 c 128,-1,43
 51 -32 51 -32 54.5 -26 c 128,-1,44
 58 -20 58 -20 62 -15 c 0,45,46
 76 2.5 76 2.5 76 52 c 1,47,48
 72 54 72 54 66 54 c 128,-1,49
 60 54 60 54 56 48 c 1,50,51
 48 52 48 52 42.5 52 c 128,-1,52
 37 52 37 52 33 50 c 1,53,54
 24 51 24 51 23 60 c 1,0,1
EndSplineSet
EndChar

StartChar: hyphen
Encoding: 45 45 14
Width: 307
Flags: HW
LayerCount: 2
Fore
SplineSet
220.5 293 m 128,-1,1
 223 295 223 295 231 295 c 128,-1,2
 239 295 239 295 259 303 c 1,3,4
 266 299 266 299 271 295.5 c 128,-1,5
 276 292 276 292 276 283 c 2,6,-1
 276 280 l 1,7,8
 271 275 271 275 266.5 275.5 c 128,-1,9
 262 276 262 276 257 271 c 1,10,-1
 254 271 l 1,11,-1
 245 273 l 257,12,-1
 239 271 l 1,13,-1
 236 273 l 1,14,15
 225 273 225 273 216.5 267.5 c 128,-1,16
 208 262 208 262 199 262 c 1,17,18
 186 264 l 1,19,-1
 164 258 l 1,20,-1
 146 260 l 1,21,-1
 124 256 l 257,22,23
 118 256 118 256 112 260 c 1,24,25
 108 258 108 258 103.5 257.5 c 128,-1,26
 99 257 99 257 97 252 c 1,27,28
 95 252 95 252 80 258 c 1,29,30
 65.9130434783 252.130434783 65.9130434783 252.130434783 23 246 c 1,31,32
 20 249 20 249 20 253.5 c 128,-1,33
 20 258 20 258 23 270 c 1,34,35
 31 270 31 270 37 274 c 128,-1,36
 43 278 43 278 48.5 278 c 128,-1,37
 54 278 54 278 58 275 c 1,38,39
 67 287 67 287 137 287 c 0,40,41
 143 287 143 287 146 284 c 1,42,43
 150 284 150 284 152 285.5 c 0,44,45
 157.2 289.4 157.2 289.4 162.1 288.7 c 128,-1,46
 167 288 167 288 171 288 c 2,47,-1
 213 291 l 2,48,0
 218 291 218 291 220.5 293 c 128,-1,1
EndSplineSet
EndChar

StartChar: period
Encoding: 46 46 15
Width: 156
Flags: HW
LayerCount: 2
Fore
SplineSet
52 41 m 1,0,-1
 47 39 l 1,1,2
 33 39 33 39 26.5 50 c 128,-1,3
 20 61 20 61 20 70 c 128,-1,4
 20 79 20 79 21 81.5 c 128,-1,5
 22 84 22 84 25 89.5 c 128,-1,6
 28 95 28 95 31.5 101.5 c 0,7,8
 42.4016393443 121.745901639 42.4016393443 121.745901639 50.2008196721 123.87295082 c 128,-1,9
 58 126 58 126 60 129 c 1,10,-1
 67 129 l 1,11,12
 80 119 80 119 94 115 c 1,13,14
 96 109 96 109 101 106.5 c 2,15,-1
 112 101 l 1,16,17
 115 93 115 93 115 78.75 c 128,-1,18
 115 64.5 115 64.5 98 56 c 1,19,-1
 98 52 l 1,20,21
 96 50 96 50 92.5 48.5 c 128,-1,22
 89 47 89 47 88 44 c 1,23,24
 80 44 80 44 71.5 41 c 128,-1,25
 63 38 63 38 55 39 c 1,26,-1
 53 39 l 2,27,28
 52 39 52 39 52 40 c 2,29,-1
 52 41 l 1,0,-1
EndSplineSet
EndChar

StartChar: slash
Encoding: 47 47 16
Width: 218
Flags: HW
LayerCount: 2
Fore
SplineSet
38 69 m 0,0,1
 10 69 10 69 10 86 c 256,2,3
 10 107 10 107 14 112 c 128,-1,4
 18 117 18 117 19 121 c 2,5,-1
 22 134 l 2,6,7
 24 147 24 147 28 160 c 128,-1,8
 32 173 32 173 33 187 c 1,9,10
 42 199 42 199 42 208.5 c 128,-1,11
 42 218 42 218 45 225.5 c 0,12,13
 48.5 234.25 48.5 234.25 52.25 241.125 c 128,-1,14
 56 248 56 248 57 255.5 c 128,-1,15
 58 263 58 263 60 271 c 1,16,17
 62 271 62 271 62 280 c 128,-1,18
 62 289 62 289 70 307.5 c 128,-1,19
 78 326 78 326 78 341 c 2,20,-1
 78 343 l 1,21,-1
 82 346 l 1,22,23
 92 376 92 376 92 388 c 2,24,-1
 92 390 l 1,25,-1
 96 393 l 1,26,27
 98 399 98 399 98 405.5 c 128,-1,28
 98 412 98 412 103 416 c 1,29,30
 103 430 103 430 112 441 c 1,31,-1
 112 444 l 2,32,33
 112 451 112 451 114.5 466 c 128,-1,34
 117 481 117 481 118 489 c 0,35,36
 119.692307692 502.538461538 119.692307692 502.538461538 123.346153846 508.769230769 c 128,-1,37
 127 515 127 515 126.5 518.5 c 128,-1,38
 126 522 126 522 128 526.5 c 0,39,40
 140.258823529 554.082352941 140.258823529 554.082352941 142.129411765 571.541176471 c 128,-1,41
 144 589 144 589 146 598 c 128,-1,42
 148 607 148 607 147.5 611 c 128,-1,43
 147 615 147 615 149 619.5 c 128,-1,44
 151 624 151 624 153 627 c 0,45,46
 156.666666667 632.5 156.666666667 632.5 159.833333333 643.25 c 128,-1,47
 163 654 163 654 169.5 666.5 c 128,-1,48
 176 679 176 679 184.5 679 c 0,49,50
 195 679 195 679 201 677 c 1,51,52
 208 667 208 667 208 652 c 256,53,54
 208 637 208 637 204.5 632 c 128,-1,55
 201 627 201 627 199 619.5 c 128,-1,56
 197 612 197 612 197.5 607.5 c 128,-1,57
 198 603 198 603 198 595 c 128,-1,58
 198 587 198 587 196 584.5 c 128,-1,59
 194 582 194 582 192.5 577 c 128,-1,60
 191 572 191 572 192 568.5 c 128,-1,61
 193 565 193 565 193 559.5 c 128,-1,62
 193 554 193 554 190.5 553 c 128,-1,63
 188 552 188 552 188 544.5 c 128,-1,64
 188 537 188 537 186 529 c 128,-1,65
 184 521 184 521 182 512 c 0,66,67
 178 494 178 494 175.5 483 c 128,-1,68
 173 472 173 472 172 462.5 c 128,-1,69
 171 453 171 453 169 443.5 c 128,-1,70
 167 434 167 434 163.5 425 c 128,-1,71
 160 416 160 416 159.5 409 c 128,-1,72
 159 402 159 402 157 401.5 c 128,-1,73
 155 401 155 401 153 396.5 c 128,-1,74
 151 392 151 392 151.5 386 c 128,-1,75
 152 380 152 380 150 374 c 1,76,77
 142.727272727 370.363636364 142.727272727 370.363636364 140.863636364 359.181818182 c 128,-1,78
 139 348 139 348 133.5 330 c 128,-1,79
 128 312 128 312 123 286.5 c 128,-1,80
 118 261 118 261 109 237 c 0,81,82
 93.25 195 93.25 195 82.125 152 c 128,-1,83
 71 109 71 109 66 97 c 128,-1,84
 61 85 61 85 60.5 82 c 128,-1,85
 60 79 60 79 58.5 77.5 c 128,-1,86
 57 76 57 76 55.5 76.5 c 128,-1,87
 54 77 54 77 51 74.5 c 128,-1,88
 48 72 48 72 47 70.5 c 128,-1,89
 46 69 46 69 38 69 c 0,0,1
EndSplineSet
EndChar

StartChar: zero
Encoding: 48 48 17
Width: 351
Flags: HW
LayerCount: 2
Fore
SplineSet
318 403 m 1,0,-1
 321 383 l 258,1,2
 321 378 321 378 318.5 374.5 c 128,-1,3
 316 371 316 371 314 365.5 c 128,-1,4
 312 360 312 360 312.5 354 c 128,-1,5
 313 348 313 348 312.5 343 c 128,-1,6
 312 338 312 338 309 336 c 128,-1,7
 306 334 306 334 304.5 328 c 0,8,9
 298.142857143 302.571428571 298.142857143 302.571428571 288 297.5 c 0,10,11
 285 296 285 296 285 290 c 1,12,-1
 283 290 l 2,13,14
 275 290 275 290 272 284 c 128,-1,15
 269 278 269 278 261 278 c 1,16,17
 259 276 259 276 259.5 273 c 0,18,19
 260.333333333 268 260.333333333 268 251.666666667 264 c 128,-1,20
 243 260 243 260 238 252 c 1,21,22
 227 251 227 251 219.5 247 c 128,-1,23
 212 243 212 243 203 239 c 1,24,-1
 195 239 l 1,25,-1
 166 238 l 2,26,27
 158 238 158 238 152.5 239.5 c 128,-1,28
 147 241 147 241 140.5 240 c 128,-1,29
 134 239 134 239 128.5 239 c 128,-1,30
 123 239 123 239 114 241 c 128,-1,31
 105 243 105 243 100.5 247 c 128,-1,32
 96 251 96 251 88 249 c 1,33,34
 88 254 88 254 84.5 253 c 128,-1,35
 81 252 81 252 77.5 255 c 128,-1,36
 74 258 74 258 68 266.5 c 128,-1,37
 62 275 62 275 57 278 c 1,38,39
 55 282 55 282 55 289 c 128,-1,40
 55 296 55 296 52 296 c 128,-1,41
 49 296 49 296 47 298 c 1,42,-1
 45 305 l 2,43,44
 42 312 42 312 39 319 c 128,-1,45
 36 326 36 326 32 331 c 1,46,-1
 33 340 l 2,47,48
 33 349 33 349 30.5 351.5 c 128,-1,49
 28 354 28 354 25.5 364 c 0,50,51
 20 386 20 386 20 407.5 c 0,52,53
 20 453.2 20 453.2 59 500 c 1,54,55
 62.3333333333 510 62.3333333333 510 65.1666666667 510 c 128,-1,56
 68 510 68 510 72.5 515 c 128,-1,57
 77 520 77 520 80.5 525.5 c 128,-1,58
 84 531 84 531 90 535 c 128,-1,59
 96 539 96 539 96.5 540 c 0,60,61
 98.4 543.8 98.4 543.8 100.2 542.9 c 0,62,63
 102.5 541.75 102.5 541.75 106 547 c 1,64,65
 112 550 112 550 117 551.5 c 128,-1,66
 122 553 122 553 126 557 c 1,67,-1
 133 556 l 1,68,-1
 188 559 l 1,69,70
 195 554 195 554 201.5 549.5 c 128,-1,71
 208 545 208 545 212 538 c 1,72,73
 223 536 223 536 232 528.5 c 128,-1,74
 241 521 241 521 247 517.5 c 128,-1,75
 253 514 253 514 256 513 c 128,-1,76
 259 512 259 512 266.5 505.5 c 128,-1,77
 274 499 274 499 284 483.5 c 128,-1,78
 294 468 294 468 305 455 c 1,79,-1
 304 451 l 1,80,81
 304 441 304 441 312 435 c 1,82,83
 311 433 311 433 311 430.25 c 128,-1,84
 311 427.5 311 427.5 318 410 c 1,85,-1
 318 403 l 1,0,-1
81 437 m 1,86,-1
 86 399 l 1,87,88
 86 391 86 391 91 384.5 c 128,-1,89
 96 378 96 378 94 367 c 1,90,91
 100 356 100 356 102 344.5 c 128,-1,92
 104 333 104 333 106 322 c 1,93,94
 118 308 118 308 124 294.5 c 128,-1,95
 130 281 130 281 143 275.5 c 128,-1,96
 156 270 156 270 169 271 c 128,-1,97
 182 272 182 272 187.5 272 c 128,-1,98
 193 272 193 272 193 270 c 1,99,-1
 198 269 l 1,100,101
 207 269 207 269 213.5 272.5 c 128,-1,102
 220 276 220 276 228 280 c 1,103,104
 240 294 240 294 253 305.5 c 128,-1,105
 266 317 266 317 278 331 c 1,106,-1
 278 334 l 1,107,108
 276 342 276 342 280.5 349 c 128,-1,109
 285 356 285 356 286.5 361.5 c 128,-1,110
 288 367 288 367 287.5 369.5 c 128,-1,111
 287 372 287 372 287 374 c 2,112,-1
 287 376 l 1,113,-1
 291 378 l 1,114,115
 292 380 292 380 292 384.5 c 0,116,117
 292 390.5 292 390.5 287 403 c 1,118,-1
 285 431 l 1,119,120
 274 442 274 442 267 456 c 128,-1,121
 260 470 260 470 260 472 c 1,122,-1
 257 472 l 2,123,124
 254 472 254 472 254 474 c 0,125,126
 254 480 254 480 246 480 c 0,127,128
 242 480 242 480 240 482 c 1,129,130
 241 487 241 487 235.5 487.5 c 128,-1,131
 230 488 230 488 232 495 c 1,132,133
 231 494 231 494 228.5 494 c 128,-1,134
 226 494 226 494 224 496.5 c 128,-1,135
 222 499 222 499 220 500.5 c 128,-1,136
 218 502 218 502 215.5 501.5 c 0,137,138
 208.714285714 500.142857143 208.714285714 500.142857143 194.357142857 507.071428571 c 128,-1,139
 180 514 180 514 180 514.5 c 128,-1,140
 180 515 180 515 179 515 c 2,141,-1
 171 510 l 2,142,143
 170 510 170 510 168.5 513 c 128,-1,144
 167 516 167 516 164 518.5 c 0,145,146
 158.6 523 158.6 523 141 523 c 256,147,148
 124 523 124 523 118 520 c 1,149,150
 112.769230769 506.923076923 112.769230769 506.923076923 104 504 c 1,151,152
 103 489 103 489 90 482 c 1,153,154
 88 471 88 471 84.5 460 c 128,-1,155
 81 449 81 449 81 437 c 1,86,-1
EndSplineSet
EndChar

StartChar: one
Encoding: 49 49 18
Width: 326
Flags: HW
LayerCount: 2
Fore
SplineSet
222 372 m 1,0,-1
 223 352 l 257,1,-1
 220 333 l 1,2,-1
 222 293 l 1,3,-1
 222 243 l 1,4,-1
 217 161 l 1,5,-1
 219 104 l 1,6,-1
 221 83 l 2,7,8
 221 75 221 75 220 71 c 1,9,10
 208 59 208 59 210 57 c 1,11,12
 202 53 202 53 197 53 c 2,13,-1
 195 53 l 2,14,15
 193 53 193 53 191.5 51 c 128,-1,16
 190 49 190 49 188 47 c 1,17,18
 182 45 182 45 176.5 45 c 0,19,20
 167 45 167 45 157 49 c 1,21,22
 151 58 151 58 151 71 c 1,23,-1
 153 94 l 1,24,-1
 151 145 l 2,25,26
 151 154 151 154 152.5 160.5 c 0,27,28
 157 180 157 180 157 207 c 2,29,-1
 155 287 l 1,30,-1
 157 312 l 1,31,-1
 157 414 l 1,32,-1
 153 453 l 1,33,-1
 157 486 l 1,34,-1
 157 499 l 2,35,36
 157 505 157 505 155 511 c 1,37,-1
 154 511 l 2,38,39
 148 511 148 511 144.5 506.5 c 128,-1,40
 141 502 141 502 137.5 500 c 128,-1,41
 134 498 134 498 126 493 c 128,-1,42
 118 488 118 488 109.5 483 c 128,-1,43
 101 478 101 478 94 474 c 128,-1,44
 87 470 87 470 86 468 c 1,45,46
 72 468 72 468 59.5 462 c 128,-1,47
 47 456 47 456 33 456 c 1,48,49
 29 454 29 454 24.5 453 c 128,-1,50
 20 452 20 452 17 449 c 1,51,52
 13 450 13 450 -6 450 c 128,-1,53
 -25 450 -25 450 -30 455 c 1,54,-1
 -31 465 l 2,55,56
 -31 473 -31 473 -20.5 476.5 c 128,-1,57
 -10 480 -10 480 -5 480 c 258,58,-1
 11 478 l 1,59,60
 20.5 478 20.5 478 45 485 c 0,61,62
 101 501 101 501 143 543 c 2,63,-1
 153 553 l 2,64,65
 163.714285714 563.714285714 163.714285714 563.714285714 164.357142857 577.857142857 c 128,-1,66
 165 592 165 592 167 602.5 c 0,67,68
 172.238095238 630 172.238095238 630 187.119047619 630 c 128,-1,69
 202 630 202 630 207 615.5 c 128,-1,70
 212 601 212 601 213.5 594.5 c 128,-1,71
 215 588 215 588 216.5 584 c 128,-1,72
 218 580 218 580 218 577 c 2,73,-1
 214 552 l 1,74,-1
 215 525 l 2,75,76
 215 523 215 523 217 511 c 128,-1,77
 219 499 219 499 219 476.5 c 128,-1,78
 219 454 219 454 220 431 c 2,79,-1
 222 372 l 1,0,-1
EndSplineSet
EndChar

StartChar: two
Encoding: 50 50 19
Width: 395
Flags: HW
LayerCount: 2
Fore
SplineSet
249 62 m 1,0,-1
 236.5 62 l 2,1,2
 234 62 234 62 232 65 c 1,3,4
 225 60 225 60 213 57 c 1,5,6
 210 60 210 60 205 60 c 2,7,-1
 193 59 l 2,8,9
 188 59 188 59 185 62 c 1,10,-1
 162 53 l 1,11,-1
 160 53 l 2,12,13
 157.333333333 52.3333333333 157.333333333 52.3333333333 148 57 c 1,14,15
 143 55 143 55 138 53 c 128,-1,16
 133 51 133 51 128 51 c 2,17,-1
 127 51 l 1,18,-1
 125 47 l 1,19,20
 115 43 115 43 92 43 c 1,21,-1
 80 45 l 1,22,-1
 80 48 l 1,23,-1
 78 60 l 2,24,25
 78 65.3333333333 78 65.3333333333 83 73.6666666667 c 2,26,-1
 91 87 l 2,27,28
 95.5 94.5 95.5 94.5 103 102 c 1,29,30
 110 113 110 113 115 124 c 128,-1,31
 120 135 120 135 129 143 c 1,32,33
 129 162.333333333 129 162.333333333 158 201 c 1,34,-1
 162 203 l 1,35,36
 176.166666667 231.333333333 176.166666667 231.333333333 178 246 c 1,37,38
 182 248 182 248 183 252 c 128,-1,39
 184 256 184 256 187 258 c 1,40,-1
 187 260 l 2,41,42
 187 274 187 274 196 285 c 128,-1,43
 205 296 205 296 207 304.5 c 128,-1,44
 209 313 209 313 208.5 318 c 128,-1,45
 208 323 208 323 208 329 c 128,-1,46
 208 335 208 335 209.5 338 c 0,47,48
 216.8 352.6 216.8 352.6 217.4 359.8 c 128,-1,49
 218 367 218 367 220.5 371.5 c 128,-1,50
 223 376 223 376 225 379.5 c 0,51,52
 230.35483871 388.870967742 230.35483871 388.870967742 229.677419355 392.935483871 c 128,-1,53
 229 397 229 397 230 401 c 1,54,55
 233 402 233 402 234 406 c 1,56,57
 239.176470588 408.588235294 239.176470588 408.588235294 245.088235294 461.794117647 c 128,-1,58
 251 515 251 515 251 519 c 2,59,-1
 249 537 l 1,60,-1
 249 567 l 2,61,62
 249 601.4 249 601.4 241 611 c 1,63,-1
 237 613 l 1,64,65
 236 615 236 615 237 617.5 c 128,-1,66
 238 620 238 620 238 622.5 c 128,-1,67
 238 625 238 625 234 630 c 128,-1,68
 230 635 230 635 225.5 641 c 0,69,70
 218 651 218 651 209 660 c 1,71,-1
 202 659 l 2,72,73
 197 659 197 659 191.5 661.5 c 128,-1,74
 186 664 186 664 181 665 c 1,75,76
 180 669 180 669 177 669.5 c 128,-1,77
 174 670 174 670 176 677 c 1,78,-1
 174 677 l 2,79,80
 168 677 168 677 167 671.5 c 128,-1,81
 166 666 166 666 162 663 c 1,82,83
 152 660 152 660 140 656.5 c 128,-1,84
 128 653 128 653 123 643 c 1,85,86
 115 643 115 643 108 638 c 128,-1,87
 101 633 101 633 101 625 c 2,88,-1
 101 624 l 1,89,-1
 97 622 l 1,90,91
 95 617 95 617 93.5 613 c 128,-1,92
 92 609 92 609 89.5 605.5 c 128,-1,93
 87 602 87 602 83 600.5 c 128,-1,94
 79 599 79 599 80 594 c 1,95,96
 77 592 77 592 70 592 c 1,97,98
 69 584 69 584 64 575.5 c 128,-1,99
 59 567 59 567 59 558 c 1,100,-1
 61 550 l 1,101,-1
 57 527 l 1,102,103
 57 511 57 511 63 498 c 1,104,-1
 57 478 l 257,105,-1
 63 458 l 1,106,107
 72 453 72 453 79.5 450 c 128,-1,108
 87 447 87 447 87 436 c 1,109,110
 94.5 438.5 94.5 438.5 102.75 445.25 c 0,111,112
 118.333333333 458 118.333333333 458 123 458 c 1,113,114
 126 468 126 468 126 484.2 c 128,-1,115
 126 500.4 126 500.4 117 513 c 1,116,117
 118 515 118 515 118 519 c 258,118,-1
 117 534 l 1,119,-1
 117 537 l 1,120,121
 127.666666667 545 127.666666667 545 134 545 c 256,122,123
 143 545 143 545 156 532 c 1,124,-1
 156 528 l 2,125,126
 156 526 156 526 158.5 524.5 c 0,127,128
 163.5 521.5 163.5 521.5 162.75 517.75 c 128,-1,129
 162 514 162 514 162 511 c 128,-1,130
 162 508 162 508 164.5 505.5 c 128,-1,131
 167 503 167 503 168 499 c 128,-1,132
 169 495 169 495 168.5 490.5 c 128,-1,133
 168 486 168 486 168 481 c 258,134,-1
 168 475 l 2,135,136
 168 474 168 474 167 474 c 0,137,138
 164.666666667 474 164.666666667 474 162 470 c 256,139,140
 160 467 160 467 161 463.5 c 128,-1,141
 162 460 162 460 160 458 c 0,142,143
 154 455 154 455 150 449.5 c 128,-1,144
 146 444 146 444 140 442 c 1,145,146
 134 434 134 434 131 427 c 1,147,148
 120 422 120 422 109 418.5 c 128,-1,149
 98 415 98 415 87 411 c 1,150,151
 82 415 82 415 77.5 419.5 c 2,152,-1
 68 429 l 1,153,154
 65 428 65 428 57 428 c 128,-1,155
 49 428 49 428 42 431 c 1,156,157
 38 434 38 434 38 442 c 0,158,159
 38 451.666666667 38 451.666666667 33 460 c 1,160,161
 31 468 31 468 32 475.5 c 128,-1,162
 33 483 33 483 31.5 488.5 c 128,-1,163
 30 494 30 494 28.5 496.5 c 128,-1,164
 27 499 27 499 26.5 502.5 c 128,-1,165
 26 506 26 506 26 510 c 2,166,-1
 26 519 l 258,167,168
 26 533.4 26 533.4 20 537 c 1,169,170
 29.2 555.4 29.2 555.4 27 562 c 1,171,172
 33.1666666667 566.111111111 33.1666666667 566.111111111 37.0833333333 576.555555556 c 128,-1,173
 41 587 41 587 41 590 c 128,-1,174
 41 593 41 593 40.5 596 c 0,175,176
 39.75 600.5 39.75 600.5 46 613 c 1,177,-1
 48 624 l 1,178,-1
 52 626 l 1,179,180
 54 631 54 631 58 634 c 128,-1,181
 62 637 62 637 65 640 c 128,-1,182
 68 643 68 643 69 646.5 c 128,-1,183
 70 650 70 650 71.5 652 c 128,-1,184
 73 654 73 654 74.5 654 c 128,-1,185
 76 654 76 654 77.5 656 c 128,-1,186
 79 658 79 658 78.5 660 c 128,-1,187
 78 662 78 662 79.5 663.5 c 128,-1,188
 81 665 81 665 83 664 c 128,-1,189
 85 663 85 663 87 665 c 256,190,191
 89 667 89 667 88.5 668 c 0,192,193
 86.5 672 86.5 672 93.25 673.5 c 128,-1,194
 100 675 100 675 103 677 c 1,195,-1
 105 680 l 1,196,-1
 109 680 l 2,197,198
 109.4 680.4 109.4 680.4 140 694 c 1,199,-1
 151 694 l 1,200,-1
 164 698 l 258,201,202
 166 698 166 698 166 697 c 128,-1,203
 166 696 166 696 168 696 c 2,204,-1
 196 696 l 1,205,-1
 205 698 l 1,206,207
 210 698 210 698 217.5 692 c 128,-1,208
 225 686 225 686 237 688 c 1,209,210
 237 684 237 684 240 684.5 c 128,-1,211
 243 685 243 685 245 684 c 0,212,213
 246 683 246 683 245.5 682.5 c 128,-1,214
 245 682 245 682 247 680 c 0,215,216
 260 674 260 674 270 660 c 2,217,-1
 279 647 l 1,218,-1
 286 639 l 1,219,220
 289 634 289 634 289 632 c 128,-1,221
 289 630 289 630 292.5 626 c 128,-1,222
 296 622 296 622 296 618 c 128,-1,223
 296 614 296 614 298 611 c 1,224,-1
 302 609 l 1,225,226
 303 606 303 606 302.5 602 c 128,-1,227
 302 598 302 598 303.5 594 c 128,-1,228
 305 590 305 590 306.5 588.5 c 128,-1,229
 308 587 308 587 308 582 c 2,230,-1
 307 566 l 1,231,-1
 309 546 l 1,232,-1
 307 532 l 1,233,-1
 309 521 l 1,234,-1
 305 507 l 1,235,-1
 307 497 l 1,236,-1
 303 481 l 1,237,-1
 304 473 l 2,238,239
 304 467 304 467 298 455 c 1,240,241
 298 413.333333333 298 413.333333333 279 369 c 0,242,243
 273 355 273 355 266 348 c 1,244,245
 263.142857143 325.142857143 263.142857143 325.142857143 256 318 c 1,246,-1
 256 305 l 2,247,248
 256 302 256 302 250.5 293 c 128,-1,249
 245 284 245 284 243 279.5 c 128,-1,250
 241 275 241 275 241 271 c 128,-1,251
 241 267 241 267 238.5 260.5 c 128,-1,252
 236 254 236 254 228 242.5 c 128,-1,253
 220 231 220 231 221 222 c 1,254,255
 216 217 216 217 213 216 c 1,256,-1
 213 215 l 2,257,258
 213 208 213 208 206 194 c 128,-1,259
 199 180 199 180 197.5 178.5 c 128,-1,260
 196 177 196 177 195 177 c 128,-1,261
 194 177 194 177 191 175 c 1,262,263
 188 171 188 171 187 166.5 c 128,-1,264
 186 162 186 162 180 161 c 1,265,266
 178 143 178 143 166 135 c 1,267,-1
 166 133 l 1,268,269
 167 125 167 125 162 121.5 c 128,-1,270
 157 118 157 118 156 111 c 1,271,272
 148 105 148 105 143 98 c 128,-1,273
 138 91 138 91 132 85 c 1,274,275
 136 81 136 81 141 81 c 257,276,-1
 160 85 l 1,277,-1
 172 84 l 1,278,279
 186 84 186 84 200.5 88 c 128,-1,280
 215 92 215 92 228.5 94 c 128,-1,281
 242 96 242 96 257.5 95.5 c 128,-1,282
 273 95 273 95 284 102 c 1,283,284
 288 100 288 100 308.5 100 c 128,-1,285
 329 100 329 100 362 111 c 1,286,287
 367 105 367 105 371 103 c 128,-1,288
 375 101 375 101 375 93.5 c 128,-1,289
 375 86 375 86 366.5 80 c 128,-1,290
 358 74 358 74 351.5 74 c 128,-1,291
 345 74 345 74 341 77 c 1,292,293
 331 73 331 73 319 73 c 258,294,-1
 295 75 l 2,295,296
 287 75 287 75 284 73 c 0,297,298
 274.172413793 66.4482758621 274.172413793 66.4482758621 264.086206897 67.224137931 c 128,-1,299
 254 68 254 68 249 62 c 1,0,-1
EndSplineSet
EndChar

StartChar: three
Encoding: 51 51 20
Width: 362
Flags: HW
LayerCount: 2
Fore
SplineSet
306 658 m 1,0,1
 313.631578947 654.947368421 313.631578947 654.947368421 322 641 c 1,2,3
 319 635 319 635 314.5 633 c 128,-1,4
 310 631 310 631 306 628 c 1,5,6
 303 622 303 622 300 616 c 128,-1,7
 297 610 297 610 293.5 606.5 c 128,-1,8
 290 603 290 603 286.5 602.5 c 128,-1,9
 283 602 283 602 280.5 600 c 128,-1,10
 278 598 278 598 276.5 595 c 128,-1,11
 275 592 275 592 270 594 c 1,12,13
 268 592 268 592 268 588 c 128,-1,14
 268 584 268 584 264.5 580.5 c 0,15,16
 254.5 570.5 254.5 570.5 245.25 557.75 c 128,-1,17
 236 545 236 545 222 532 c 128,-1,18
 208 519 208 519 200 502 c 1,19,20
 195 497 195 497 189 492 c 128,-1,21
 183 487 183 487 179.5 483 c 128,-1,22
 176 479 176 479 176 477.5 c 128,-1,23
 176 476 176 476 173 472.5 c 128,-1,24
 170 469 170 469 166.5 466.5 c 128,-1,25
 163 464 163 464 161 458 c 1,26,27
 150 455 150 455 146 444 c 1,28,29
 150 437 150 437 159 435.5 c 128,-1,30
 168 434 168 434 174 432 c 1,31,-1
 175 432 l 1,32,33
 178 433 178 433 178.5 429 c 128,-1,34
 179 425 179 425 182 425 c 0,35,36
 187 424 187 424 192 423.5 c 128,-1,37
 197 423 197 423 200.5 421.5 c 128,-1,38
 204 420 204 420 205 418 c 0,39,40
 207.272727273 413.454545455 207.272727273 413.454545455 211.136363636 414.227272727 c 128,-1,41
 215 415 215 415 218.5 412.5 c 128,-1,42
 222 410 222 410 224.5 404 c 128,-1,43
 227 398 227 398 234 397 c 1,44,45
 236 389 236 389 241 386 c 128,-1,46
 246 383 246 383 251 378 c 1,47,48
 254 370 254 370 257.5 360.5 c 128,-1,49
 261 351 261 351 268 346 c 1,50,51
 273 316 273 316 279 308 c 128,-1,52
 285 300 285 300 286 297.5 c 128,-1,53
 287 295 287 295 286.5 292 c 128,-1,54
 286 289 286 289 286 287 c 2,55,-1
 290 275 l 257,56,-1
 288 263 l 1,57,-1
 290 254 l 257,58,-1
 288 246 l 1,59,-1
 289 236 l 1,60,-1
 288 226 l 1,61,-1
 290 215 l 1,62,63
 290 208 290 208 286.5 202.5 c 128,-1,64
 283 197 283 197 285 188 c 1,65,66
 273 177 273 177 268.5 161 c 128,-1,67
 264 145 264 145 255 132 c 1,68,-1
 255 129 l 2,69,70
 255 114.8 255 114.8 234 98 c 0,71,72
 229 94 229 94 227 88 c 1,73,-1
 226 88 l 1,74,75
 221.285714286 89.5714285714 221.285714286 89.5714285714 217 81 c 1,76,-1
 213 81 l 1,77,-1
 202 65 l 1,78,79
 200 65 200 65 188 60 c 128,-1,80
 176 55 176 55 168 47 c 1,81,-1
 166 47 l 2,82,83
 163 47 163 47 162 45.5 c 128,-1,84
 161 44 161 44 157 45 c 1,85,86
 155 41 155 41 150 40 c 128,-1,87
 145 39 145 39 144 34 c 1,88,89
 132.5 34 132.5 34 121.75 34 c 128,-1,90
 111 34 111 34 101 39 c 1,91,92
 95 36 95 36 86.5 36 c 128,-1,93
 78 36 78 36 68.5 40 c 128,-1,94
 59 44 59 44 48 45 c 1,95,96
 40.6666666667 54.1666666667 40.6666666667 54.1666666667 37.8333333333 62.5833333333 c 128,-1,97
 35 71 35 71 31.5 72 c 128,-1,98
 28 73 28 73 25 75 c 1,99,100
 25 86.4 25 86.4 11 92 c 1,101,-1
 11 94 l 2,102,103
 11 103 11 103 5.5 111.5 c 128,-1,104
 0 120 0 120 0 130.5 c 2,105,-1
 0 146 l 2,106,107
 0 153.75 0 153.75 3.5 163.375 c 128,-1,108
 7 173 7 173 7 180 c 128,-1,109
 7 187 7 187 9 195 c 1,110,-1
 13 199 l 1,111,112
 15 207 15 207 20.5 214.5 c 128,-1,113
 26 222 26 222 29 230 c 1,114,115
 43 239 43 239 69.5 244 c 128,-1,116
 96 249 96 249 109 249 c 128,-1,117
 122 249 122 249 128 246.5 c 128,-1,118
 134 244 134 244 139.5 238 c 128,-1,119
 145 232 145 232 150.5 225 c 0,120,121
 164 207.818181818 164 207.818181818 164 202.409090909 c 128,-1,122
 164 197 164 197 162.5 195.5 c 128,-1,123
 161 194 161 194 159 190 c 1,124,-1
 159 188 l 1,125,-1
 157 179 l 1,126,127
 152 178 152 178 149 175 c 128,-1,128
 146 172 146 172 142 169 c 1,129,-1
 139 169 l 1,130,131
 133 168 133 168 128.5 172 c 128,-1,132
 124 176 124 176 119 179 c 1,133,-1
 119 180 l 2,134,135
 119 190 119 190 114.5 196.5 c 128,-1,136
 110 203 110 203 110 212 c 1,137,-1
 108 212 l 2,138,139
 104 212 104 212 104 214 c 128,-1,140
 104 216 104 216 100 216 c 128,-1,141
 96 216 96 216 87 210 c 1,142,-1
 84 211 l 1,143,144
 74 211 74 211 68 205 c 1,145,146
 67 206 67 206 65 206 c 2,147,-1
 52 205 l 1,148,149
 47 201 47 201 43 196 c 128,-1,150
 39 191 39 191 35 186 c 1,151,152
 33 180 33 180 32.5 171.5 c 128,-1,153
 32 163 32 163 27 158 c 1,154,155
 29 150 29 150 29 145 c 128,-1,156
 29 140 29 140 25 130 c 1,157,158
 26 125 26 125 28.5 123 c 128,-1,159
 31 121 31 121 33.5 118.5 c 128,-1,160
 36 116 36 116 36.5 112.5 c 128,-1,161
 37 109 37 109 42 109 c 1,162,-1
 42 104 l 2,163,164
 42 96.2727272727 42 96.2727272727 51.5 87.6363636364 c 0,165,166
 69.8 71 69.8 71 80 71 c 1,167,-1
 80 69 l 2,168,169
 80 66 80 66 83.5 66 c 128,-1,170
 87 66 87 66 86 61 c 1,171,172
 92 65 92 65 99 65 c 258,173,-1
 125 62 l 1,174,175
 134 62 134 62 141 66 c 128,-1,176
 148 70 148 70 157 71 c 1,177,178
 165 80 165 80 173.5 87.5 c 128,-1,179
 182 95 182 95 187 106 c 1,180,181
 206 139 206 139 215 175 c 1,182,183
 219 183 219 183 219 186 c 2,184,-1
 217 193 l 1,185,-1
 221 218 l 1,186,187
 221 236 221 236 218.5 251.5 c 128,-1,188
 216 267 216 267 215 285 c 1,189,190
 211.571428571 293.571428571 211.571428571 293.571428571 206 301 c 1,191,-1
 206 304 l 2,192,193
 206 323.5 206 323.5 197.5 336.25 c 128,-1,194
 189 349 189 349 189 354 c 1,195,196
 183 360 183 360 180 369 c 128,-1,197
 177 378 177 378 172 385 c 1,198,-1
 168 385 l 1,199,-1
 168 389 l 1,200,201
 164 393 164 393 159.5 393.5 c 128,-1,202
 155 394 155 394 151.5 396 c 128,-1,203
 148 398 148 398 147 399.5 c 128,-1,204
 146 401 146 401 144 402.5 c 128,-1,205
 142 404 142 404 140 404 c 128,-1,206
 138 404 138 404 136 407 c 1,207,-1
 136 408 l 1,208,-1
 122 403 l 257,209,210
 114.571428571 403 114.571428571 403 100.285714286 390.5 c 0,211,212
 73.2941176471 366.882352941 73.2941176471 366.882352941 63 361 c 1,213,214
 52 367 52 367 52 377.5 c 128,-1,215
 52 388 52 388 54.5 390.5 c 128,-1,216
 57 393 57 393 61 398.5 c 128,-1,217
 65 404 65 404 65.5 408.5 c 128,-1,218
 66 413 66 413 68 415 c 0,219,220
 78 429 78 429 96 439.5 c 128,-1,221
 114 450 114 450 122.5 463.5 c 128,-1,222
 131 477 131 477 144 481 c 1,223,224
 146 487 146 487 150 490 c 128,-1,225
 154 493 154 493 156 496.5 c 128,-1,226
 158 500 158 500 157.5 501 c 128,-1,227
 157 502 157 502 159 504 c 2,228,-1
 168 511 l 1,229,230
 168 513 168 513 171 520 c 128,-1,231
 174 527 174 527 175.5 528.5 c 128,-1,232
 177 530 177 530 178.5 529.5 c 128,-1,233
 180 529 180 529 182 530 c 1,234,235
 183 532 183 532 182.5 533 c 128,-1,236
 182 534 182 534 184 535.5 c 128,-1,237
 186 537 186 537 187.5 538 c 128,-1,238
 189 539 189 539 191.5 541 c 128,-1,239
 194 543 194 543 193.5 544 c 128,-1,240
 193 545 193 545 194 547 c 1,241,-1
 198 549 l 2,242,243
 200 551 200 551 200 552.5 c 128,-1,244
 200 554 200 554 203.5 559 c 128,-1,245
 207 564 207 564 214.5 569 c 128,-1,246
 222 574 222 574 225.5 579.5 c 128,-1,247
 229 585 229 585 230 589 c 0,248,249
 232.255813953 598.023255814 232.255813953 598.023255814 241.627906977 604.511627907 c 128,-1,250
 251 611 251 611 253 620 c 1,251,252
 248 626 248 626 240 626 c 1,253,-1
 205 620 l 1,254,255
 199 620 199 620 194 623 c 128,-1,256
 189 626 189 626 182 625 c 128,-1,257
 175 624 175 624 168 624 c 128,-1,258
 161 624 161 624 157 628 c 1,259,260
 148 624 148 624 136.166666667 624 c 128,-1,261
 124.333333333 624 124.333333333 624 121 629 c 1,262,263
 119 627 119 627 115.5 627 c 2,264,-1
 110 627 l 2,265,266
 83.5714285714 627 83.5714285714 627 74.2857142857 633.5 c 128,-1,267
 65 640 65 640 65 645 c 0,268,269
 65 653 65 653 77 653.5 c 128,-1,270
 89 654 89 654 92.25 654 c 2,271,-1
 151 654 l 1,272,273
 157 656 157 656 162 656 c 257,274,-1
 174 652 l 1,275,-1
 194 654 l 1,276,-1
 222 652 l 1,277,-1
 262 652 l 1,278,-1
 293 658 l 1,279,-1
 306 658 l 1,0,1
EndSplineSet
EndChar

StartChar: four
Encoding: 52 52 21
Width: 385
Flags: HW
LayerCount: 2
Fore
SplineSet
270 318 m 1,0,1
 270 286 270 286 278 214 c 1,2,-1
 278 175 l 1,3,4
 286 173 286 173 296 173 c 128,-1,5
 306 173 306 173 321.5 179.5 c 128,-1,6
 337 186 337 186 354 186 c 1,7,-1
 365 175 l 1,8,9
 365 167 365 167 359.5 163 c 128,-1,10
 354 159 354 159 352 152 c 1,11,12
 315.166666667 139 315.166666667 139 286 139 c 1,13,14
 281 132.333333333 281 132.333333333 281 120 c 2,15,-1
 282 78 l 2,16,17
 282 74 282 74 285 73 c 128,-1,18
 288 72 288 72 288 67 c 257,19,-1
 284 51 l 1,20,-1
 286 45 l 1,21,22
 282 16 l 1,23,-1
 284 -24 l 1,24,-1
 281 -47 l 2,25,26
 281 -51 281 -51 282 -53 c 1,27,28
 276 -58 276 -58 274.5 -68 c 128,-1,29
 273 -78 273 -78 268 -80.5 c 128,-1,30
 263 -83 263 -83 253.5 -82 c 128,-1,31
 244 -81 244 -81 237 -83 c 1,32,33
 231 -79 231 -79 229 -74.5 c 128,-1,34
 227 -70 227 -70 222 -67 c 1,35,-1
 222 -65 l 1,36,-1
 224 -55 l 1,37,-1
 221 -47 l 1,38,-1
 222 -10 l 1,39,-1
 225 46 l 2,40,41
 225 53 225 53 224 59 c 128,-1,42
 223 65 223 65 222 71 c 1,43,-1
 223 84 l 1,44,-1
 219 120 l 1,45,46
 215 123 215 123 210 123 c 128,-1,47
 205 123 205 123 201 126 c 1,48,-1
 190 120 l 2,49,50
 187 118 187 118 179 114 c 1,51,-1
 168 118 l 257,52,53
 162 118 162 118 150 106 c 1,54,55
 143 109 143 109 139 109 c 2,56,-1
 120 106 l 1,57,58
 113 106 113 106 109 111 c 1,59,-1
 95 102 l 1,60,-1
 89 102 l 2,61,62
 77 102 77 102 74 96 c 1,63,-1
 61 100 l 2,64,65
 59 100 59 100 58 98.5 c 0,66,67
 55.1818181818 94.2727272727 55.1818181818 94.2727272727 52.5909090909 95.1363636364 c 128,-1,68
 50 96 50 96 45.5 96 c 128,-1,69
 41 96 41 96 31.5 90.5 c 128,-1,70
 22 85 22 85 13 85 c 0,71,72
 0 85 0 85 0 98 c 0,73,74
 0 122.714285714 0 122.714285714 6.5 133.857142857 c 128,-1,75
 13 145 13 145 19.5 158.5 c 0,76,77
 28.1666666667 176.5 28.1666666667 176.5 39.0833333333 208.75 c 128,-1,78
 50 241 50 241 52.5 245 c 128,-1,79
 55 249 55 249 59 258.5 c 128,-1,80
 63 268 63 268 69 285 c 128,-1,81
 75 302 75 302 80 310.5 c 128,-1,82
 85 319 85 319 87 321.5 c 128,-1,83
 89 324 89 324 91 327.5 c 128,-1,84
 93 331 93 331 93 335 c 128,-1,85
 93 339 93 339 94.5 342.5 c 128,-1,86
 96 346 96 346 98.5 353 c 128,-1,87
 101 360 101 360 103.5 368 c 0,88,89
 110.0625 389 110.0625 389 113 389 c 1,90,-1
 113 406 l 1,91,92
 116 412 116 412 121 417.5 c 128,-1,93
 126 423 126 423 128 431 c 1,94,95
 130 433 130 433 129.5 436 c 128,-1,96
 129 439 129 439 130 442 c 2,97,-1
 140 460 l 2,98,99
 142 465 142 465 142.5 470.5 c 128,-1,100
 143 476 143 476 148 480 c 1,101,102
 148 491.833333333 148 491.833333333 156.5 524.416666667 c 128,-1,103
 165 557 165 557 166 560 c 1,104,-1
 170 562 l 1,105,-1
 170 566 l 1,106,107
 177 582 177 582 180.5 601 c 128,-1,108
 184 620 184 620 196 631 c 1,109,-1
 196 634 l 2,110,111
 196 644 196 644 202 656.5 c 128,-1,112
 208 669 208 669 219 669 c 256,113,114
 230 669 230 669 235.5 658.5 c 128,-1,115
 241 648 241 648 241 635.5 c 128,-1,116
 241 623 241 623 235.5 606.5 c 128,-1,117
 230 590 230 590 227.5 579 c 128,-1,118
 225 568 225 568 225.5 564 c 0,119,120
 226.347826087 557.217391304 226.347826087 557.217391304 221.673913043 551.608695652 c 128,-1,121
 217 546 217 546 215 540 c 128,-1,122
 213 534 213 534 212 524.5 c 128,-1,123
 211 515 211 515 209.5 505 c 0,124,125
 205.705882353 479.705882353 205.705882353 479.705882353 198 472 c 1,126,-1
 199 467 l 2,127,128
 199 463 199 463 197 459.5 c 128,-1,129
 195 456 195 456 193 451.5 c 128,-1,130
 191 447 191 447 190 441.5 c 128,-1,131
 189 436 189 436 187.5 432.5 c 128,-1,132
 186 429 186 429 184.5 428 c 128,-1,133
 183 427 183 427 180.5 423.5 c 128,-1,134
 178 420 178 420 177.5 414 c 128,-1,135
 177 408 177 408 172 403 c 1,136,137
 170 398 170 398 170 393.5 c 128,-1,138
 170 389 170 389 166 383.5 c 128,-1,139
 162 378 162 378 164 368 c 1,140,141
 160 366 160 366 159 361 c 128,-1,142
 158 356 158 356 154 354 c 1,143,144
 153 347 153 347 152.5 340 c 128,-1,145
 152 333 152 333 149.5 325.5 c 128,-1,146
 147 318 147 318 142.5 313.5 c 128,-1,147
 138 309 138 309 140 299 c 1,148,149
 133 297 133 297 132.5 289.5 c 128,-1,150
 132 282 132 282 124 280 c 1,151,-1
 125 278 l 1,152,153
 125 272 125 272 122.5 268.5 c 128,-1,154
 120 265 120 265 121 259 c 1,155,156
 116 257 116 257 115 251 c 128,-1,157
 114 245 114 245 109 242 c 1,158,159
 106.894736842 225.157894737 106.894736842 225.157894737 101.447368421 216.078947368 c 128,-1,160
 96 207 96 207 94.5 203.5 c 128,-1,161
 93 200 93 200 94 194 c 128,-1,162
 95 188 95 188 93 183 c 1,163,-1
 89 179 l 1,164,165
 86 169 86 169 81.5 160 c 128,-1,166
 77 151 77 151 75 139 c 1,167,168
 78 135 78 135 88 135 c 128,-1,169
 98 135 98 135 109 139 c 128,-1,170
 120 143 120 143 129 145 c 128,-1,171
 138 147 138 147 144.5 146 c 128,-1,172
 151 145 151 145 156.5 147.5 c 128,-1,173
 162 150 162 150 167 152 c 128,-1,174
 172 154 172 154 179 156 c 128,-1,175
 186 158 186 158 199 158.5 c 128,-1,176
 212 159 212 159 215.5 164.5 c 128,-1,177
 219 170 219 170 219 174.5 c 2,178,-1
 219 183 l 2,179,180
 219 207 219 207 220 232 c 128,-1,181
 221 257 221 257 219 282 c 1,182,183
 217 286 217 286 217 289 c 2,184,-1
 219 295 l 1,185,-1
 216 330 l 257,186,-1
 221 359 l 1,187,-1
 219 370 l 1,188,-1
 219 383.5 l 2,189,190
 219 390 219 390 221 397 c 2,191,-1
 224 416 l 1,192,-1
 221 444 l 1,193,-1
 225 458 l 1,194,-1
 222 470 l 1,195,-1
 224 480 l 1,196,197
 224 497 224 497 228 507 c 1,198,199
 232 508 232 508 235.5 509.5 c 128,-1,200
 239 511 239 511 246.5 511 c 128,-1,201
 254 511 254 511 257.5 502.5 c 0,202,203
 269.06779661 474.406779661 269.06779661 474.406779661 268.533898305 471.203389831 c 128,-1,204
 268 468 268 468 268 465 c 2,205,-1
 273 434 l 1,206,-1
 271 427 l 1,207,-1
 273 409 l 1,208,-1
 271 382 l 1,209,-1
 273 366 l 1,210,-1
 270 346 l 1,211,-1
 271 331 l 1,212,-1
 270 318 l 1,0,1
EndSplineSet
EndChar

StartChar: five
Encoding: 53 53 22
Width: 360
Flags: HW
LayerCount: 2
Fore
SplineSet
84 28 m 128,-1,1
 82 29 82 29 82 31.25 c 2,2,-1
 82 37 l 1,3,-1
 78 39 l 1,4,5
 75.1428571429 51.8571428571 75.1428571429 51.8571428571 70.5714285714 56.4285714286 c 128,-1,6
 66 61 66 61 63.5 65.5 c 128,-1,7
 61 70 61 70 61.5 73.5 c 128,-1,8
 62 77 62 77 60 79.5 c 0,9,10
 54 87 54 87 54 91 c 2,11,-1
 56 99 l 257,12,-1
 54 109 l 1,13,14
 54 117 54 117 60 127.5 c 128,-1,15
 66 138 66 138 68 146 c 1,16,17
 74 152 74 152 79 156.5 c 128,-1,18
 84 161 84 161 87 167 c 1,19,20
 100 170 100 170 112 173.5 c 128,-1,21
 124 177 124 177 137 177 c 1,22,-1
 146 176 l 1,23,24
 151 171 151 171 153 169.5 c 128,-1,25
 155 168 155 168 156.5 166.5 c 128,-1,26
 158 165 158 165 162 157.5 c 128,-1,27
 166 150 166 150 167 148.5 c 128,-1,28
 168 147 168 147 168 139.5 c 128,-1,29
 168 132 168 132 153 114 c 1,30,31
 137.666666667 114 137.666666667 114 131 119 c 1,32,-1
 131 121 l 2,33,34
 131 131 131 131 119.5 131 c 128,-1,35
 108 131 108 131 99 125 c 128,-1,36
 90 119 90 119 90 112 c 2,37,-1
 91 97 l 2,38,39
 91 91 91 91 89 88 c 1,40,41
 94 78 94 78 98 68 c 128,-1,42
 102 58 102 58 108 48 c 1,43,44
 119 45 119 45 128 40.5 c 128,-1,45
 137 36 137 36 148 36 c 0,46,47
 173 36 173 36 200 48 c 1,48,49
 206 52 206 52 212 58.5 c 128,-1,50
 218 65 218 65 225 67 c 1,51,52
 232 79 232 79 243 86 c 1,53,54
 243 97 243 97 249.5 105.5 c 128,-1,55
 256 114 256 114 256 121.5 c 128,-1,56
 256 129 256 129 258.5 132 c 128,-1,57
 261 135 261 135 262 138 c 128,-1,58
 263 141 263 141 262.5 144 c 128,-1,59
 262 147 262 147 262 151 c 258,60,-1
 264 165 l 1,61,-1
 260 176 l 257,62,-1
 262 187 l 1,63,-1
 257 202 l 1,64,-1
 259 211 l 257,65,66
 259 219 259 219 253 231 c 1,67,-1
 249 233 l 1,68,69
 247 237 247 237 248 241.5 c 128,-1,70
 249 246 249 246 247 249.5 c 128,-1,71
 245 253 245 253 243 255.5 c 128,-1,72
 241 258 241 258 237 263 c 128,-1,73
 233 268 233 268 230.5 275 c 128,-1,74
 228 282 228 282 225 288 c 0,75,76
 217.5 303 217.5 303 208.25 309 c 0,77,78
 188.208333333 322 188.208333333 322 178.770833333 322 c 128,-1,79
 169.333333333 322 169.333333333 322 164 314 c 1,80,-1
 160 314 l 1,81,-1
 144 306 l 1,82,-1
 142 302 l 1,83,-1
 137 302 l 2,84,85
 134 302 134 302 131 296 c 1,86,87
 123 290 123 290 123 286 c 128,-1,88
 123 282 123 282 119.5 277 c 0,89,90
 109.56 262.8 109.56 262.8 107.78 256.4 c 128,-1,91
 106 250 106 250 106 241 c 128,-1,92
 106 232 106 232 105 229 c 1,93,94
 99 224 99 224 95.5 220 c 128,-1,95
 92 216 92 216 84 214 c 1,96,97
 79 209 79 209 73.5 209 c 128,-1,98
 68 209 68 209 64 213 c 128,-1,99
 60 217 60 217 58 222.5 c 0,100,101
 54 233.5 54 233.5 54 245 c 1,102,-1
 58 262 l 1,103,-1
 58 265 l 1,104,105
 56 265 56 265 56 266 c 258,106,-1
 58 274 l 1,107,-1
 57 289 l 2,108,109
 57 295 57 295 60 296 c 1,110,111
 56 303 56 303 56 312 c 2,112,-1
 60 351 l 1,113,-1
 58 389 l 1,114,-1
 60 398 l 257,115,-1
 58 409 l 1,116,-1
 60 418 l 1,117,-1
 58 445 l 1,118,-1
 58 467 l 1,119,-1
 51 587 l 2,120,121
 51 603 51 603 54 618 c 1,122,123
 61 625 61 625 73 625 c 128,-1,124
 85 625 85 625 93.5 622.5 c 128,-1,125
 102 620 102 620 113 618.5 c 128,-1,126
 124 617 124 617 135.5 617.5 c 128,-1,127
 147 618 147 618 161 618 c 1,128,-1
 172 616 l 1,129,-1
 182 618 l 1,130,-1
 185 616 l 1,131,132
 190 621 190 621 207.5 621 c 2,133,-1
 227 621 l 257,134,-1
 237 618 l 258,135,136
 240 618 240 618 243 620 c 128,-1,137
 246 622 246 622 252 623.5 c 128,-1,138
 258 625 258 625 267 624 c 128,-1,139
 276 623 276 623 286 625 c 1,140,141
 287 618 287 618 293 616.5 c 128,-1,142
 299 615 299 615 299 607 c 0,143,144
 299 596.5 299 596.5 294 584 c 1,145,146
 283 575 283 575 267.5 576.5 c 128,-1,147
 252 578 252 578 239 578 c 2,148,-1
 237 578 l 1,149,-1
 234 573 l 1,150,151
 232 572 232 572 229.5 572.5 c 128,-1,152
 227 573 227 573 225 573 c 2,153,-1
 204 567 l 1,154,-1
 190 569 l 1,155,-1
 164 563 l 1,156,-1
 136 568 l 1,157,158
 128.75 568 128.75 568 123.375 568 c 128,-1,159
 118 568 118 568 115 569 c 1,160,161
 108 565.5 108 565.5 108 546 c 2,162,-1
 108 542 l 1,163,-1
 109 542 l 1,164,-1
 110 541 l 1,165,-1
 108 530 l 1,166,-1
 115 480.5 l 1,167,-1
 115 462 l 1,168,-1
 114 383 l 1,169,-1
 114 362 l 2,170,171
 114 352 114 352 115 341 c 1,172,-1
 120 341 l 2,173,174
 131 341 131 341 141.5 347 c 128,-1,175
 152 353 152 353 163 353 c 2,176,-1
 164 353 l 1,177,-1
 166 357 l 1,178,179
 168 358 168 358 170.5 357.5 c 128,-1,180
 173 357 173 357 176 357 c 128,-1,181
 179 357 179 357 180 358.5 c 128,-1,182
 181 360 181 360 184.5 361 c 128,-1,183
 188 362 188 362 192.5 362 c 2,184,-1
 201 362 l 2,185,186
 221.428571429 362 221.428571429 362 252.5 333 c 0,187,188
 260 326 260 326 268 322 c 1,189,190
 273 309 273 309 283 299.5 c 128,-1,191
 293 290 293 290 297.5 282.5 c 128,-1,192
 302 275 302 275 303 271.5 c 128,-1,193
 304 268 304 268 305.5 265.5 c 128,-1,194
 307 263 307 263 308.5 262 c 128,-1,195
 310 261 310 261 311.5 259 c 128,-1,196
 313 257 313 257 312.5 255 c 128,-1,197
 312 253 312 253 313.5 250.5 c 128,-1,198
 315 248 315 248 318 245.5 c 128,-1,199
 321 243 321 243 322.5 238.5 c 128,-1,200
 324 234 324 234 323.5 227.5 c 0,201,202
 322.6 215.8 322.6 215.8 326.3 208.4 c 128,-1,203
 330 201 330 201 330 197 c 128,-1,204
 330 193 330 193 328.5 189 c 128,-1,205
 327 185 327 185 325.5 179 c 128,-1,206
 324 173 324 173 325 163.5 c 128,-1,207
 326 154 326 154 324 145.5 c 128,-1,208
 322 137 322 137 319 131.5 c 128,-1,209
 316 126 316 126 314 121.5 c 128,-1,210
 312 117 312 117 312 114.5 c 128,-1,211
 312 112 312 112 310.5 108.5 c 128,-1,212
 309 105 309 105 304.5 102.5 c 128,-1,213
 300 100 300 100 298 96.5 c 128,-1,214
 296 93 296 93 296 90.5 c 128,-1,215
 296 88 296 88 292.5 81.5 c 128,-1,216
 289 75 289 75 279.5 67.5 c 128,-1,217
 270 60 270 60 264 50 c 1,218,219
 261 49 261 49 257.5 48.5 c 128,-1,220
 254 48 254 48 251 46 c 1,221,222
 248 47 248 47 248.5 44.5 c 128,-1,223
 249 42 249 42 247 40.5 c 128,-1,224
 245 39 245 39 243 39.5 c 128,-1,225
 241 40 241 40 237 37.5 c 128,-1,226
 233 35 233 35 230.5 30.5 c 128,-1,227
 228 26 228 26 223 20 c 1,228,229
 213 19 213 19 204.5 13.5 c 128,-1,230
 196 8 196 8 188 8 c 128,-1,231
 180 8 180 8 176.5 8 c 128,-1,232
 173 8 173 8 170 3.5 c 128,-1,233
 167 -1 167 -1 157 -1 c 0,234,235
 121.25 -1 121.25 -1 105 9 c 0,236,237
 103 10 103 10 102 11.5 c 128,-1,238
 101 13 101 13 99 14.5 c 128,-1,239
 97 16 97 16 95 15.5 c 128,-1,240
 93 15 93 15 91.5 16 c 128,-1,241
 90 17 90 17 89.5 20.5 c 128,-1,242
 89 24 89 24 87.5 25.5 c 128,-1,0
 86 27 86 27 84 28 c 128,-1,1
EndSplineSet
EndChar

StartChar: six
Encoding: 54 54 23
Width: 403
Flags: HW
LayerCount: 2
Fore
SplineSet
251 596 m 1,0,-1
 263 594 l 1,1,-1
 275.5 594 l 2,2,3
 292.111111111 594 292.111111111 594 300.055555556 587.5 c 128,-1,4
 308 581 308 581 319 582 c 1,5,6
 326 577 326 577 336 572 c 128,-1,7
 346 567 346 567 357 561 c 0,8,9
 383 546.818181818 383 546.818181818 383 532 c 0,10,11
 383 527 383 527 377.5 522 c 128,-1,12
 372 517 372 517 366 517 c 128,-1,13
 360 517 360 517 357 523 c 128,-1,14
 354 529 354 529 349 532.5 c 128,-1,15
 344 536 344 536 343 535 c 128,-1,16
 342 534 342 534 338 537.5 c 128,-1,17
 334 541 334 541 330.5 540 c 128,-1,18
 327 539 327 539 322.5 541 c 128,-1,19
 318 543 318 543 314 547 c 128,-1,20
 310 551 310 551 305 553 c 1,21,-1
 302 552 l 1,22,23
 289 552 289 552 280.5 557 c 128,-1,24
 272 562 272 562 268 562 c 128,-1,25
 264 562 264 562 260 560 c 1,26,-1
 251 561 l 2,27,28
 243 561 243 561 239 554 c 1,29,-1
 234 555 l 1,30,31
 228 555 228 555 222 553 c 128,-1,32
 216 551 216 551 209 553 c 1,33,34
 201 547 201 547 194.5 537.5 c 128,-1,35
 188 528 188 528 177 525 c 1,36,37
 168 507 168 507 162 504 c 1,38,-1
 158 504 l 1,39,40
 153.263157895 489.789473684 153.263157895 489.789473684 140.631578947 475.894736842 c 128,-1,41
 128 462 128 462 125 462 c 1,42,43
 122 457 122 457 123 453 c 1,44,45
 118 453 118 453 117.5 448.5 c 0,46,47
 116.878787879 442.909090909 116.878787879 442.909090909 112.939393939 439.954545455 c 128,-1,48
 109 437 109 437 106 434 c 1,49,50
 103 426.5 103 426.5 103 409 c 1,51,52
 98 409 98 409 98.5 404.5 c 0,53,54
 99.2857142857 397.428571429 99.2857142857 397.428571429 94.6428571429 393.714285714 c 128,-1,55
 90 390 90 390 89 387.5 c 128,-1,56
 88 385 88 385 88.5 384 c 128,-1,57
 89 383 89 383 89 381 c 2,58,-1
 89 380 l 1,59,-1
 85 376 l 1,60,61
 83 367 83 367 83 357 c 128,-1,62
 83 347 83 347 81 338.5 c 128,-1,63
 79 330 79 330 76.5 321 c 128,-1,64
 74 312 74 312 74 302.5 c 128,-1,65
 74 293 74 293 75 286 c 128,-1,66
 76 279 76 279 75.5 269 c 128,-1,67
 75 259 75 259 75.5 248.5 c 0,68,69
 76.8048780488 221.097560976 76.8048780488 221.097560976 83 218 c 1,70,-1
 83 215 l 2,71,72
 83 201 83 201 91 184 c 1,73,-1
 91 180 l 2,74,75
 91 172 91 172 93.5 164 c 128,-1,76
 96 156 96 156 106.5 156 c 128,-1,77
 117 156 117 156 119 162.5 c 128,-1,78
 121 169 121 169 125 175 c 1,79,-1
 128 177 l 1,80,81
 134.4 189.8 134.4 189.8 151.2 202.4 c 128,-1,82
 168 215 168 215 171 218.5 c 0,83,84
 177.428571429 226 177.428571429 226 182.714285714 226 c 128,-1,85
 188 226 188 226 191.5 227.5 c 128,-1,86
 195 229 195 229 197.5 230.5 c 128,-1,87
 200 232 200 232 203.5 234 c 128,-1,88
 207 236 207 236 211 235 c 0,89,90
 218.2 233.2 218.2 233.2 221.6 236.6 c 128,-1,91
 225 240 225 240 230.5 240 c 128,-1,92
 236 240 236 240 244 235 c 128,-1,93
 252 230 252 230 260 223.5 c 0,94,95
 288 200.75 288 200.75 288 195.375 c 128,-1,96
 288 190 288 190 289.5 188 c 128,-1,97
 291 186 291 186 293 185.5 c 128,-1,98
 295 185 295 185 296.5 181.5 c 128,-1,99
 298 178 298 178 298.5 171.5 c 128,-1,100
 299 165 299 165 301 159.5 c 128,-1,101
 303 154 303 154 309 141.5 c 128,-1,102
 315 129 315 129 315 124 c 1,103,-1
 313 118 l 1,104,-1
 315 100 l 1,105,-1
 315 94 l 1,106,107
 313 94 313 94 313 92 c 2,108,-1
 313 90 l 2,109,110
 313 86 313 86 309.5 85.5 c 128,-1,111
 306 85 306 85 304.5 80.5 c 128,-1,112
 303 76 303 76 302.5 72 c 128,-1,113
 302 68 302 68 301 62 c 1,114,115
 291 60 291 60 287 52.5 c 128,-1,116
 283 45 283 45 278 37 c 1,117,118
 269 37 269 37 265.5 32 c 128,-1,119
 262 27 262 27 260 19 c 1,120,121
 244 16 244 16 232 2 c 1,122,-1
 216 2 l 1,123,-1
 196 6 l 1,124,125
 186 6 186 6 178 2.5 c 128,-1,126
 170 -1 170 -1 162 -1 c 2,127,-1
 140 0 l 258,128,129
 135 0 135 0 134 3 c 128,-1,130
 133 6 133 6 128 8 c 1,131,132
 127 10 127 10 125 9 c 128,-1,133
 123 8 123 8 121 8 c 256,134,135
 119 8 119 8 117 10 c 0,136,137
 104 18 104 18 89.5 36.5 c 128,-1,138
 75 55 75 55 67.5 63 c 128,-1,139
 60 71 60 71 58.5 75.5 c 128,-1,140
 57 80 57 80 54 85 c 1,141,-1
 46 94 l 1,142,143
 43 99 43 99 39 108 c 128,-1,144
 35 117 35 117 30.5 125.5 c 128,-1,145
 26 134 26 134 21.5 142.5 c 128,-1,146
 17 151 17 151 14 154 c 1,147,-1
 15 159 l 1,148,149
 15 169 15 169 9 182 c 128,-1,150
 3 195 3 195 3 214 c 1,151,-1
 5 226 l 1,152,-1
 0 268 l 1,153,154
 0 288.6 0 288.6 6 313.8 c 128,-1,155
 12 339 12 339 14 343.5 c 128,-1,156
 16 348 16 348 16 351.5 c 128,-1,157
 16 355 16 355 17.5 358 c 128,-1,158
 19 361 19 361 21.5 363.5 c 128,-1,159
 24 366 24 366 25.5 370 c 128,-1,160
 27 374 27 374 27 380.5 c 0,161,162
 27 393 27 393 33 402 c 128,-1,163
 39 411 39 411 41.5 415.5 c 128,-1,164
 44 420 44 420 45 423.5 c 128,-1,165
 46 427 46 427 48 431 c 1,166,-1
 52 432 l 1,167,168
 58 446 58 446 67 458.5 c 128,-1,169
 76 471 76 471 83 485 c 1,170,171
 100 497 100 497 118.5 516.5 c 128,-1,172
 137 536 137 536 147.5 545 c 128,-1,173
 158 554 158 554 163 555.5 c 0,174,175
 174 558.8 174 558.8 174 562.9 c 128,-1,176
 174 567 174 567 177 567 c 128,-1,177
 180 567 180 567 184.5 570 c 128,-1,178
 189 573 189 573 198 579.5 c 128,-1,179
 207 586 207 586 212 587.5 c 128,-1,180
 217 589 217 589 219.5 588.5 c 128,-1,181
 222 588 222 588 226 588 c 128,-1,182
 230 588 230 588 237 592 c 128,-1,183
 244 596 244 596 251 596 c 1,0,-1
286 101 m 1,184,-1
 283 123 l 258,185,186
 283 128 283 128 284 130 c 1,187,188
 275.866666667 139.488888889 275.866666667 139.488888889 272.933333333 150.244444444 c 128,-1,189
 270 161 270 161 266.5 167 c 128,-1,190
 263 173 263 173 253.5 179.5 c 128,-1,191
 244 186 244 186 237.5 190.5 c 128,-1,192
 231 195 231 195 222 195 c 128,-1,193
 213 195 213 195 206.5 192.5 c 128,-1,194
 200 190 200 190 194 188 c 1,195,196
 189 182 189 182 185.5 176 c 128,-1,197
 182 170 182 170 176 167 c 1,198,-1
 176 166 l 2,199,200
 176 160 176 160 173 157.5 c 128,-1,201
 170 155 170 155 168 150 c 1,202,-1
 168 137 l 1,203,204
 160 128 160 128 158.5 120.5 c 128,-1,205
 157 113 157 113 157 100 c 256,206,207
 157 80.4 157 80.4 161.5 73.2 c 0,208,209
 170 59.6 170 59.6 170 54.3 c 128,-1,210
 170 49 170 49 172 47 c 1,211,212
 177 45 177 45 177.5 42.5 c 128,-1,213
 178 40 178 40 185 41 c 1,214,215
 189 40 189 40 191 36.5 c 128,-1,216
 193 33 193 33 196.5 34.5 c 128,-1,217
 200 36 200 36 206.5 35.5 c 128,-1,218
 213 35 213 35 217 35 c 2,219,-1
 221 36 l 1,220,221
 233 48 233 48 251 51 c 1,222,223
 260.103448276 66.1724137931 260.103448276 66.1724137931 270 69 c 1,224,225
 272 73 272 73 272.5 77 c 0,226,227
 273.849056604 87.7924528302 273.849056604 87.7924528302 279.924528302 90.3962264151 c 128,-1,228
 286 93 286 93 286 101 c 1,184,-1
EndSplineSet
EndChar

StartChar: seven
Encoding: 55 55 24
Width: 404
Flags: HW
LayerCount: 2
Fore
SplineSet
91 386 m 1,0,1
 96.3333333333 402 96.3333333333 402 121.166666667 402 c 128,-1,2
 146 402 146 402 161 397.5 c 128,-1,3
 176 393 176 393 191 393 c 2,4,-1
 197 393 l 1,5,6
 199 394 199 394 202.5 401 c 128,-1,7
 206 408 206 408 210 415.5 c 0,8,9
 223.361702128 440.553191489 223.361702128 440.553191489 222.680851064 443.276595745 c 128,-1,10
 222 446 222 446 223.5 448.5 c 128,-1,11
 225 451 225 451 226.5 452 c 128,-1,12
 228 453 228 453 232.5 459.5 c 128,-1,13
 237 466 237 466 240 479 c 128,-1,14
 243 492 243 492 254 502 c 1,15,16
 257 512 257 512 262.5 520.5 c 128,-1,17
 268 529 268 529 271 535 c 128,-1,18
 274 541 274 541 274.5 544 c 128,-1,19
 275 547 275 547 278 549 c 1,20,-1
 283 556 l 2,21,22
 285 558 285 558 286.5 557.5 c 128,-1,23
 288 557 288 557 289 558 c 0,24,25
 290 560 290 560 289.5 560.5 c 128,-1,26
 289 561 289 561 289 563 c 256,27,28
 289 565 289 565 292 566 c 128,-1,29
 295 567 295 567 295 570 c 256,30,31
 295 577 295 577 286.5 577 c 128,-1,32
 278 577 278 577 271 568 c 1,33,34
 266 570 266 570 261.5 570 c 2,35,-1
 252 570 l 2,36,37
 244 570 244 570 242 566 c 128,-1,38
 240 562 240 562 234.5 562 c 128,-1,39
 229 562 229 562 224 565 c 128,-1,40
 219 568 219 568 214 570 c 1,41,42
 206 568 206 568 203.5 563 c 128,-1,43
 201 558 201 558 188 558 c 1,44,-1
 156 562 l 2,45,46
 153 562 153 562 141 554 c 1,47,48
 128 558 128 558 115 558 c 128,-1,49
 102 558 102 558 89 558 c 2,50,-1
 51 560 l 2,51,52
 42 561 42 561 35.5 564.5 c 128,-1,53
 29 568 29 568 15 566 c 1,54,55
 10 572 10 572 5 577.5 c 128,-1,56
 0 583 0 583 0 588.5 c 128,-1,57
 0 594 0 594 2 600 c 1,58,59
 10 605 10 605 20 605 c 2,60,-1
 39 605 l 1,61,-1
 48 607 l 2,62,63
 49 607 49 607 55 604.5 c 0,64,65
 65.8 600 65.8 600 94 600 c 1,66,-1
 116 602 l 1,67,-1
 140 598 l 1,68,-1
 168 600 l 1,69,-1
 186 598 l 2,70,71
 190 598 190 598 194.5 599.5 c 128,-1,72
 199 601 199 601 208 602.5 c 128,-1,73
 217 604 217 604 232 603.5 c 128,-1,74
 247 603 247 603 265.5 605.5 c 0,75,76
 321 613 321 613 350 613 c 2,77,-1
 361 613 l 1,78,79
 365 608 365 608 369.5 606 c 128,-1,80
 374 604 374 604 374 596.5 c 128,-1,81
 374 589 374 589 364.5 584.5 c 128,-1,82
 355 580 355 580 348 577 c 1,83,84
 343 567 343 567 336 561 c 128,-1,85
 329 555 329 555 325 548 c 128,-1,86
 321 541 321 541 319.5 534.5 c 128,-1,87
 318 528 318 528 315 521.5 c 128,-1,88
 312 515 312 515 306.5 506.5 c 128,-1,89
 301 498 301 498 296 485.5 c 128,-1,90
 291 473 291 473 287.5 458.5 c 128,-1,91
 284 444 284 444 275 432 c 1,92,-1
 275 419 l 1,93,94
 264.714285714 408.714285714 264.714285714 408.714285714 259 383 c 1,95,96
 268 371 268 371 318 371 c 2,97,-1
 327.5 371 l 2,98,99
 331 371 331 371 336 372 c 1,100,101
 341 369 341 369 344 364 c 128,-1,102
 347 359 347 359 350 354 c 1,103,104
 349 349 349 349 344.5 346.5 c 128,-1,105
 340 344 340 344 337 338 c 128,-1,106
 334 332 334 332 322 332 c 256,107,108
 310 332 310 332 303 338 c 1,109,-1
 299 338 l 1,110,-1
 266 343 l 257,111,112
 258 343 258 343 255.5 341.5 c 0,113,114
 246.571428571 336.142857143 246.571428571 336.142857143 242 327 c 0,115,116
 240 325 240 325 240 321.5 c 128,-1,117
 240 318 240 318 238.5 316 c 128,-1,118
 237 314 237 314 235 313 c 0,119,120
 229 310 229 310 230.5 307 c 128,-1,121
 232 304 232 304 232 302 c 256,122,123
 225.92 291.36 225.92 291.36 226.96 286.68 c 128,-1,124
 228 282 228 282 226 277 c 128,-1,125
 224 272 224 272 221 269 c 128,-1,126
 218 266 218 266 216 261 c 1,127,-1
 214 250 l 2,128,129
 211 233 211 233 203 218.5 c 128,-1,130
 195 204 195 204 195 186 c 1,131,132
 182.870967742 175.387096774 182.870967742 175.387096774 173.435483871 145.193548387 c 0,133,134
 156.040816327 89.5306122449 156.040816327 89.5306122449 150 85 c 1,135,-1
 150 82 l 2,136,137
 150 79 150 79 148 73 c 128,-1,138
 146 67 146 67 145 63.5 c 128,-1,139
 144 60 144 60 143 58.5 c 0,140,141
 139.846153846 53.7692307692 139.846153846 53.7692307692 140.423076923 50.8846153846 c 128,-1,142
 141 48 141 48 141 43.5 c 128,-1,143
 141 39 141 39 134.5 34 c 128,-1,144
 128 29 128 29 130 19 c 1,145,146
 125 15 125 15 123 8 c 128,-1,147
 121 1 121 1 118 -4 c 1,148,149
 105.441860465 -9.23255813953 105.441860465 -9.23255813953 75 -12 c 1,150,151
 65 -2 65 -2 65 10 c 0,152,153
 65 33 65 33 79 47 c 1,154,155
 84 54 84 54 85 69.5 c 128,-1,156
 86 85 86 85 94 94 c 1,157,158
 96 101 96 101 97.5 109 c 128,-1,159
 99 117 99 117 102 124 c 1,160,-1
 106 126 l 2,161,162
 108 128 108 128 107 131.5 c 128,-1,163
 106 135 106 135 109 141.5 c 0,164,165
 123.392405063 172.683544304 123.392405063 172.683544304 122 188 c 1,166,167
 125 194 125 194 129 198 c 128,-1,168
 133 202 133 202 135 205.5 c 128,-1,169
 137 209 137 209 136.5 212 c 128,-1,170
 136 215 136 215 138 221 c 128,-1,171
 140 227 140 227 144 236.5 c 128,-1,172
 148 246 148 246 151 254.5 c 128,-1,173
 154 263 154 263 155.5 270.5 c 128,-1,174
 157 278 157 278 161 291 c 128,-1,175
 165 304 165 304 173 322 c 128,-1,176
 181 340 181 340 184 359 c 1,177,178
 180 368 180 368 171.5 367 c 128,-1,179
 163 366 163 366 143.5 366 c 128,-1,180
 124 366 124 366 96 372 c 1,181,-1
 91 386 l 1,0,1
EndSplineSet
EndChar

StartChar: eight
Encoding: 56 56 25
Width: 379
Flags: HW
LayerCount: 2
Fore
SplineSet
339 305 m 1,0,-1
 337 295 l 1,1,2
 348 279 348 279 348 265 c 128,-1,3
 348 251 348 251 345.5 241.5 c 128,-1,4
 343 232 343 232 340.5 223 c 128,-1,5
 338 214 338 214 335.5 206.5 c 128,-1,6
 333 199 333 199 333 196 c 2,7,-1
 335 188 l 1,8,9
 335 167 335 167 330 159.5 c 128,-1,10
 325 152 325 152 320 147 c 128,-1,11
 315 142 315 142 311.5 138 c 128,-1,12
 308 134 308 134 303 132 c 1,13,14
 300 123 300 123 294.5 116 c 128,-1,15
 289 109 289 109 286.5 103 c 128,-1,16
 284 97 284 97 284 94 c 128,-1,17
 284 91 284 91 282 88.5 c 128,-1,18
 280 86 280 86 272.5 81.5 c 128,-1,19
 265 77 265 77 260 71 c 1,20,21
 237 71 237 71 219 53 c 1,22,23
 204 50 204 50 200 45.5 c 128,-1,24
 196 41 196 41 190 39.5 c 128,-1,25
 184 38 184 38 177.5 38.5 c 128,-1,26
 171 39 171 39 163 39 c 128,-1,27
 155 39 155 39 151.5 36.5 c 128,-1,28
 148 34 148 34 142 34 c 128,-1,29
 136 34 136 34 131 38 c 128,-1,30
 126 42 126 42 119 43 c 1,31,-1
 113 42 l 1,32,-1
 111 43 l 1,33,34
 104 50 104 50 100 50.5 c 128,-1,35
 96 51 96 51 90 54 c 128,-1,36
 84 57 84 57 80.5 61.5 c 128,-1,37
 77 66 77 66 73 66 c 128,-1,38
 69 66 69 66 68 65 c 1,39,40
 63 71 63 71 58.5 76 c 128,-1,41
 54 81 54 81 51 86 c 1,42,43
 46 90 46 90 44 94 c 1,44,-1
 40 96 l 1,45,-1
 40 100 l 1,46,47
 37 103 37 103 33.5 103 c 128,-1,48
 30 103 30 103 26 111.5 c 128,-1,49
 22 120 22 120 17 131 c 128,-1,50
 12 142 12 142 6 154 c 1,51,-1
 6 161 l 1,52,-1
 0 249 l 1,53,54
 0 301 0 301 7.5 308.5 c 0,55,56
 14.5454545455 315.545454545 14.5454545455 315.545454545 13.2727272727 321.272727273 c 128,-1,57
 12 327 12 327 13.5 330 c 128,-1,58
 15 333 15 333 20 338 c 1,59,-1
 24 348 l 1,60,61
 26 350 26 350 26.5 350 c 128,-1,62
 27 350 27 350 29.5 356 c 128,-1,63
 32 362 32 362 36 370 c 128,-1,64
 40 378 40 378 48.5 383 c 128,-1,65
 57 388 57 388 61 392.5 c 128,-1,66
 65 397 65 397 67 401.5 c 128,-1,67
 69 406 69 406 74 413 c 128,-1,68
 79 420 79 420 90 427.5 c 128,-1,69
 101 435 101 435 106 446 c 1,70,71
 103 450 103 450 102.5 454.5 c 128,-1,72
 102 459 102 459 100 462 c 1,73,74
 86.170212766 467.531914894 86.170212766 467.531914894 79.5 512 c 0,75,76
 78 522 78 522 78 530 c 0,77,78
 78 561.857142857 78 561.857142857 94.5 576 c 0,79,80
 98 579 98 579 96 584 c 1,81,82
 104 588 104 588 109.5 594.5 c 128,-1,83
 115 601 115 601 124 603 c 1,84,85
 126 608 126 608 129.5 610 c 128,-1,86
 133 612 133 612 138.5 617.5 c 0,87,88
 153 632 153 632 166 632 c 128,-1,89
 179 632 179 632 187 630 c 128,-1,90
 195 628 195 628 199 626 c 128,-1,91
 203 624 203 624 205 624 c 256,92,93
 207 624 207 624 207 624.5 c 128,-1,94
 207 625 207 625 209 626 c 1,95,-1
 217 625 l 2,96,97
 220 625 220 625 222 626 c 1,98,99
 230 622 230 622 240 617.5 c 128,-1,100
 250 613 250 613 256 607 c 1,101,-1
 258 603 l 1,102,-1
 263 604 l 258,103,104
 265.666666667 604 265.666666667 604 274.833333333 593 c 0,105,106
 286.5 579 286.5 579 292 568 c 1,107,-1
 291 563 l 2,108,109
 291 562 291 562 298 553.5 c 128,-1,110
 305 545 305 545 305 532 c 1,111,-1
 309 521 l 1,112,113
 305 509 305 509 305 498.5 c 128,-1,114
 305 488 305 488 307 483 c 1,115,116
 290 458 290 458 266 440 c 1,117,118
 269 437 269 437 270 432.5 c 128,-1,119
 271 428 271 428 273 425.5 c 128,-1,120
 275 423 275 423 277.5 423 c 128,-1,121
 280 423 280 423 282 421 c 256,122,123
 284 419 284 419 283 417 c 128,-1,124
 282 415 282 415 284 412.5 c 128,-1,125
 286 410 286 410 289.5 407 c 128,-1,126
 293 404 293 404 295 401.5 c 128,-1,127
 297 399 297 399 297 397 c 128,-1,128
 297 395 297 395 299 393 c 256,129,130
 301 391 301 391 302.5 391 c 128,-1,131
 304 391 304 391 305.5 388.5 c 128,-1,132
 307 386 307 386 309 380 c 0,133,134
 312.6 369.2 312.6 369.2 316.8 363.6 c 0,135,136
 325.285714286 352.285714286 325.285714286 352.285714286 324.642857143 347.142857143 c 128,-1,137
 324 342 324 342 325.5 338 c 128,-1,138
 327 334 327 334 329 331.5 c 0,139,140
 335 324 335 324 335 317.5 c 128,-1,141
 335 311 335 311 339 308 c 1,142,-1
 339 305 l 1,0,-1
191 425 m 2,143,-1
 147 427 l 2,144,145
 145 427 145 427 145 425 c 1,146,147
 134 420 134 420 127 410 c 128,-1,148
 120 400 120 400 109 395 c 1,149,150
 106 381 106 381 98 374.5 c 128,-1,151
 90 368 90 368 83 356 c 1,152,153
 84 353 84 353 84 347 c 128,-1,154
 84 341 84 341 80.5 334 c 128,-1,155
 77 327 77 327 75 316 c 0,156,157
 72 299.5 72 299.5 72 275.75 c 128,-1,158
 72 252 72 252 72.5 247 c 128,-1,159
 73 242 73 242 74 237.5 c 128,-1,160
 75 233 75 233 76.5 229 c 128,-1,161
 78 225 78 225 79.5 214.5 c 128,-1,162
 81 204 81 204 80.5 188 c 128,-1,163
 80 172 80 172 82 163 c 128,-1,164
 84 154 84 154 89 142.5 c 128,-1,165
 94 131 94 131 100 118.5 c 0,166,167
 113.294117647 90.8039215686 113.294117647 90.8039215686 121.147058824 85.4019607843 c 0,168,169
 136.268602541 75 136.268602541 75 156.13430127 75 c 0,170,171
 198.75 75 198.75 75 232 94 c 1,172,-1
 241 100 l 2,173,174
 245 102 245 102 249.5 103.5 c 0,175,176
 258.8 106.6 258.8 106.6 265.9 120.8 c 128,-1,177
 273 135 273 135 271 139 c 1,178,179
 280 146 280 146 287 154 c 128,-1,180
 294 162 294 162 301 169 c 256,181,182
 309 177 309 177 309 210 c 1,183,184
 314 215 314 215 313.5 220 c 128,-1,185
 313 225 313 225 314.5 228.5 c 128,-1,186
 316 232 316 232 317.5 232.5 c 128,-1,187
 319 233 319 233 321 235.5 c 0,188,189
 324 239.25 324 239.25 324 251.625 c 128,-1,190
 324 264 324 264 319.5 271 c 128,-1,191
 315 278 315 278 313 286.5 c 128,-1,192
 311 295 311 295 310 303.5 c 128,-1,193
 309 312 309 312 307 321 c 1,194,195
 302 325 302 325 300.5 332 c 128,-1,196
 299 339 299 339 297 344 c 1,197,198
 289.333333333 351.666666667 289.333333333 351.666666667 280 368 c 1,199,-1
 280 372 l 1,200,-1
 275 374 l 1,201,202
 271 379 271 379 269.5 384.5 c 0,203,204
 265.882352941 397.764705882 265.882352941 397.764705882 260.941176471 398.382352941 c 128,-1,205
 256 399 256 399 252 401.5 c 128,-1,206
 248 404 248 404 244 409.5 c 128,-1,207
 240 415 240 415 232 417 c 1,208,-1
 232 419 l 2,209,210
 232 423 232 423 228 424 c 128,-1,211
 224 425 224 425 222 427 c 1,212,213
 206 425 206 425 191 425 c 2,143,-1
167 467 m 2,214,-1
 200 472 l 1,215,216
 215 472 215 472 230 466 c 1,217,218
 252 474.8 252 474.8 268 478 c 1,219,220
 276 499.333333333 276 499.333333333 276 512.166666667 c 128,-1,221
 276 525 276 525 269 542 c 128,-1,222
 262 559 262 559 254 564 c 1,223,-1
 248 566 l 1,224,225
 246 568 246 568 244.5 570 c 128,-1,226
 243 572 243 572 240 574.5 c 128,-1,227
 237 577 237 577 232.5 579 c 128,-1,228
 228 581 228 581 226 586 c 1,229,-1
 221 586 l 2,230,231
 214 586 214 586 208.5 590 c 128,-1,232
 203 594 203 594 196 594 c 2,233,-1
 194 594 l 1,234,235
 179.333333333 584.833333333 179.333333333 584.833333333 170 586 c 1,236,237
 148 567 148 567 134 549 c 1,238,-1
 133 541 l 1,239,240
 133 531 133 531 136.5 522 c 128,-1,241
 140 513 140 513 138 504 c 1,242,243
 142 501 142 501 142.5 495.5 c 128,-1,244
 143 490 143 490 145 486.5 c 128,-1,245
 147 483 147 483 149 481.5 c 128,-1,246
 151 480 151 480 152.5 478 c 128,-1,247
 154 476 154 476 154 472 c 128,-1,248
 154 468 154 468 158 470 c 1,249,250
 162 467 162 467 167 467 c 2,214,-1
EndSplineSet
EndChar

StartChar: nine
Encoding: 57 57 26
Width: 350
Flags: HW
LayerCount: 2
Fore
SplineSet
317 318 m 1,0,-1
 319 305 l 1,1,-1
 313 259 l 1,2,3
 308 255 308 255 307.5 247 c 128,-1,4
 307 239 307 239 300 236 c 1,5,6
 302 231 302 231 302 227 c 0,7,8
 300 216 300 216 299 210 c 0,9,10
 296 192 296 192 294.5 188 c 128,-1,11
 293 184 293 184 286 178 c 128,-1,12
 279 172 279 172 283 161 c 1,13,14
 279 161 279 161 278.5 158 c 128,-1,15
 278 155 278 155 272 156 c 1,16,-1
 272 153 l 1,17,18
 273 145 273 145 268 139.5 c 128,-1,19
 263 134 263 134 261 128 c 1,20,21
 259 127 259 127 256 126.5 c 128,-1,22
 253 126 253 126 248 122.5 c 128,-1,23
 243 119 243 119 237.5 111 c 128,-1,24
 232 103 232 103 221 102 c 1,25,26
 217 100 217 100 215 95.5 c 128,-1,27
 213 91 213 91 210.5 88.5 c 128,-1,28
 208 86 208 86 207 86.5 c 128,-1,29
 206 87 206 87 205 86.5 c 0,30,31
 202.666666667 85.3333333333 202.666666667 85.3333333333 196 77 c 1,32,-1
 195 77 l 2,33,34
 187 77 187 77 184.5 74 c 128,-1,35
 182 71 182 71 178 67 c 1,36,-1
 174 68 l 1,37,38
 164 68 164 68 154 58 c 1,39,40
 152 58 152 58 151.5 60 c 128,-1,41
 151 62 151 62 148 62 c 1,42,43
 144 57 144 57 138 55.5 c 128,-1,44
 132 54 132 54 127 49 c 1,45,46
 125 50 125 50 119.5 50 c 128,-1,47
 114 50 114 50 108 47 c 1,48,49
 103 47 103 47 100 49.5 c 128,-1,50
 97 52 97 52 92.5 53 c 128,-1,51
 88 54 88 54 82.5 53 c 128,-1,52
 77 52 77 52 69.5 52 c 128,-1,53
 62 52 62 52 60 55 c 128,-1,54
 58 58 58 58 52.5 60.5 c 128,-1,55
 47 63 47 63 41.5 62.5 c 0,56,57
 32.1176470588 61.6470588235 32.1176470588 61.6470588235 29.5588235294 69.3235294118 c 128,-1,58
 27 77 27 77 25 81 c 1,59,-1
 20 83 l 1,60,-1
 22 87 l 2,61,62
 22 89 22 89 19 90.5 c 128,-1,63
 16 92 16 92 14.5 95.5 c 128,-1,64
 13 99 13 99 13 105 c 128,-1,65
 13 111 13 111 11 117 c 128,-1,66
 9 123 9 123 4.5 128.5 c 128,-1,67
 0 134 0 134 0 140 c 128,-1,68
 0 146 0 146 3 150 c 1,69,-1
 8 151 l 1,70,71
 19 151 19 151 26 140.5 c 128,-1,72
 33 130 33 130 31 120 c 1,73,74
 33 114 33 114 37 110 c 128,-1,75
 41 106 41 106 41 98 c 1,76,77
 48 96 48 96 54.5 90.5 c 128,-1,78
 61 85 61 85 68 83 c 128,-1,79
 75 81 75 81 81 82 c 128,-1,80
 87 83 87 83 92 83 c 2,81,-1
 115 81 l 2,82,83
 124.375 81 124.375 81 138.1875 87.5 c 128,-1,84
 152 94 152 94 159.5 97.5 c 128,-1,85
 167 101 167 101 171 104.5 c 128,-1,86
 175 108 175 108 178 112 c 128,-1,87
 181 116 181 116 185 119.5 c 128,-1,88
 189 123 189 123 194.5 126.5 c 128,-1,89
 200 130 200 130 201.5 132.5 c 128,-1,90
 203 135 203 135 203 136.5 c 128,-1,91
 203 138 203 138 206 141.5 c 128,-1,92
 209 145 209 145 212 153.5 c 128,-1,93
 215 162 215 162 218 166 c 128,-1,94
 221 170 221 170 222 178 c 128,-1,95
 223 186 223 186 225 191 c 128,-1,96
 227 196 227 196 230 199 c 128,-1,97
 233 202 233 202 236 207 c 1,98,99
 234 209 234 209 234 213 c 128,-1,100
 234 217 234 217 235.5 224.5 c 128,-1,101
 237 232 237 232 239 241 c 0,102,103
 243.52173913 261.347826087 243.52173913 261.347826087 249 265 c 1,104,-1
 255 325 l 1,105,-1
 251 342 l 1,106,-1
 253 354 l 1,107,-1
 248 390 l 1,108,109
 248 404.666666667 248 404.666666667 244 411.333333333 c 128,-1,110
 240 418 240 418 233 425 c 1,111,112
 207.125 396.25 207.125 396.25 200 382 c 1,113,-1
 199 382 l 2,114,115
 191 382 191 382 186.5 376.5 c 0,116,117
 180.239130435 368.847826087 180.239130435 368.847826087 166 366 c 1,118,119
 162 364 162 364 155 360 c 128,-1,120
 148 356 148 356 144.5 356 c 128,-1,121
 141 356 141 356 138 356 c 128,-1,122
 135 356 135 356 135 354.5 c 128,-1,123
 135 353 135 353 128 353 c 2,124,-1
 95 356 l 1,125,-1
 80 355 l 2,126,127
 69 355 69 355 65 360.5 c 128,-1,128
 61 366 61 366 56.5 368 c 128,-1,129
 52 370 52 370 47.5 369 c 128,-1,130
 43 368 43 368 40.5 370 c 128,-1,131
 38 372 38 372 36 375 c 128,-1,132
 34 378 34 378 31 378 c 1,133,134
 30 380 30 380 29.5 384.5 c 128,-1,135
 29 389 29 389 27 391.5 c 128,-1,136
 25 394 25 394 21 396.5 c 128,-1,137
 17 399 17 399 15.5 401.5 c 128,-1,138
 14 404 14 404 14 407.5 c 128,-1,139
 14 411 14 411 13 413 c 1,140,-1
 9 415 l 1,141,-1
 9 419 l 1,142,143
 4 429 4 429 4 436 c 258,144,-1
 4 451 l 2,145,146
 4 467 4 467 6 471 c 0,147,148
 10.4 479.8 10.4 479.8 9.2 483.4 c 128,-1,149
 8 487 8 487 8 491.5 c 128,-1,150
 8 496 8 496 10.5 498.5 c 128,-1,151
 13 501 13 501 14.5 505 c 128,-1,152
 16 509 16 509 15.5 513 c 128,-1,153
 15 517 15 517 16 521 c 1,154,155
 18 523 18 523 20 524.5 c 128,-1,156
 22 526 22 526 23.5 528.5 c 128,-1,157
 25 531 25 531 24.5 534 c 128,-1,158
 24 537 24 537 25.5 539 c 128,-1,159
 27 541 27 541 33 547 c 1,160,161
 35.8571428571 555.571428571 35.8571428571 555.571428571 44.4285714286 565.285714286 c 128,-1,162
 53 575 53 575 60 577 c 1,163,164
 69 592 69 592 89 597.5 c 128,-1,165
 109 603 109 603 123 611 c 1,166,-1
 124 611 l 1,167,-1
 136 609 l 1,168,-1
 159 617 l 258,169,170
 161 617 161 617 161 615 c 1,171,172
 167 613 167 613 170.5 610 c 128,-1,173
 174 607 174 607 182 607 c 1,174,175
 184 602 184 602 189.5 600 c 128,-1,176
 195 598 195 598 200 596 c 1,177,178
 204 585 204 585 213 579 c 128,-1,179
 222 573 222 573 225 562 c 1,180,181
 227 562 227 562 227 560.5 c 128,-1,182
 227 559 227 559 228.5 558 c 128,-1,183
 230 557 230 557 231.5 557.5 c 128,-1,184
 233 558 233 558 235.5 556.5 c 128,-1,185
 238 555 238 555 238 552 c 128,-1,186
 238 549 238 549 241.5 544 c 128,-1,187
 245 539 245 539 251 533.5 c 128,-1,188
 257 528 257 528 259 517 c 1,189,190
 263 511 263 511 267.5 505.5 c 128,-1,191
 272 500 272 500 275.5 495 c 128,-1,192
 279 490 279 490 280 486.5 c 128,-1,193
 281 483 281 483 283 479.5 c 0,194,195
 287 472.5 287 472.5 291.5 464.75 c 128,-1,196
 296 457 296 457 299 446.5 c 128,-1,197
 302 436 302 436 304.5 428 c 128,-1,198
 307 420 307 420 308 417.5 c 128,-1,199
 309 415 309 415 310 413.5 c 128,-1,200
 311 412 311 412 311 409.5 c 2,201,-1
 311 400 l 2,202,203
 311 395 311 395 312.5 392.5 c 128,-1,204
 314 390 314 390 316 382 c 0,205,206
 319 370 319 370 319 338 c 1,207,-1
 317 318 l 1,0,-1
125 391 m 1,208,-1
 136 389 l 1,209,-1
 137 389 l 1,210,-1
 140 393 l 1,211,212
 142 394 142 394 143 393.5 c 128,-1,213
 144 393 144 393 147 393 c 128,-1,214
 150 393 150 393 155.5 396.5 c 128,-1,215
 161 400 161 400 164.5 400.5 c 128,-1,216
 168 401 168 401 170 402.5 c 128,-1,217
 172 404 172 404 172 405.5 c 128,-1,218
 172 407 172 407 174 408 c 128,-1,219
 176 409 176 409 178 408.5 c 128,-1,220
 180 408 180 408 182 409.5 c 128,-1,221
 184 411 184 411 185.5 414 c 128,-1,222
 187 417 187 417 189 419 c 1,223,-1
 194 419 l 1,224,225
 202 424 202 424 201.5 427.5 c 128,-1,226
 201 431 201 431 204 436 c 1,227,-1
 208 438 l 2,228,229
 210 440 210 440 209.5 442.5 c 128,-1,230
 209 445 209 445 209 447.5 c 128,-1,231
 209 450 209 450 211.5 452 c 128,-1,232
 214 454 214 454 214.5 457 c 128,-1,233
 215 460 215 460 217 464 c 1,234,235
 213 471 213 471 209.5 472 c 128,-1,236
 206 473 206 473 206 484 c 256,237,238
 206 499.8 206 499.8 194 519 c 1,239,240
 191 527 191 527 189.5 526 c 128,-1,241
 188 525 188 525 186 527 c 1,242,243
 174.470588235 555.823529412 174.470588235 555.823529412 168.735294118 560.411764706 c 128,-1,244
 163 565 163 565 161 567.5 c 128,-1,245
 159 570 159 570 157 574 c 128,-1,246
 155 578 155 578 151 579 c 1,247,248
 151 582 151 582 146.5 579.5 c 128,-1,249
 142 577 142 577 134 577 c 2,250,-1
 110 579 l 1,251,252
 104 574 104 574 102 569 c 128,-1,253
 100 564 100 564 95 560 c 1,254,255
 94 547 94 547 91 535.5 c 128,-1,256
 88 524 88 524 85 512.5 c 0,257,258
 77 481.833333333 77 481.833333333 77 461.916666667 c 0,259,260
 77 415.4 77 415.4 93 393 c 1,261,262
 101 389 101 389 109 390 c 128,-1,263
 117 391 117 391 125 391 c 1,208,-1
EndSplineSet
EndChar

StartChar: colon
Encoding: 58 58 27
Width: 174
Flags: HW
LayerCount: 2
Fore
SplineSet
46 369 m 1,0,1
 28.8571428571 382.714285714 28.8571428571 382.714285714 25 384 c 1,2,-1
 25 386 l 2,3,4
 25 391 25 391 20 392 c 1,5,6
 24.9702970297 444.188118812 24.9702970297 444.188118812 57 457 c 1,7,8
 66 455 66 455 71.5 453 c 128,-1,9
 77 451 77 451 85 451 c 1,10,11
 93 442 93 442 102 436 c 128,-1,12
 111 430 111 430 119 422 c 1,13,14
 120 419 120 419 120 413.5 c 128,-1,15
 120 408 120 408 118.5 403.5 c 128,-1,16
 117 399 117 399 119 392 c 1,17,18
 105.285714286 380.571428571 105.285714286 380.571428571 95 378 c 1,19,20
 93 374 93 374 89 372.5 c 128,-1,21
 85 371 85 371 82 369 c 1,22,-1
 46 369 l 1,0,1
123 83 m 2,23,24
 123 68 123 68 118.5 51.5 c 128,-1,25
 114 35 114 35 94 35 c 0,26,27
 67 35 67 35 62.5 39.5 c 0,28,29
 54.1428571429 47.8571428571 54.1428571429 47.8571428571 49.5714285714 48.4285714286 c 128,-1,30
 45 49 45 49 46 54 c 1,31,-1
 43 53 l 2,32,33
 40 53 40 53 36 55 c 1,34,35
 32 65 32 65 32 74 c 0,36,37
 32 89 32 89 34 101 c 1,38,39
 43 106 43 106 54 115.5 c 128,-1,40
 65 125 65 125 71.5 125 c 128,-1,41
 78 125 78 125 83.5 122.5 c 128,-1,42
 89 120 89 120 94.5 116 c 128,-1,43
 100 112 100 112 105.5 108 c 128,-1,44
 111 104 111 104 113 103 c 0,45,46
 119 97 119 97 123 91 c 1,47,-1
 123 83 l 2,23,24
EndSplineSet
EndChar

StartChar: semicolon
Encoding: 59 59 28
Width: 172
Flags: HW
LayerCount: 2
Fore
SplineSet
82 119 m 1,0,-1
 112 87 l 1,1,-1
 112 75 l 2,2,3
 112 60 112 60 107 45 c 128,-1,4
 102 30 102 30 101 29 c 1,5,-1
 101 26 l 2,6,7
 101 -13.9090909091 101 -13.9090909091 78 -39 c 1,8,-1
 74 -39 l 1,9,10
 73 -40 73 -40 65.5 -51 c 128,-1,11
 58 -62 58 -62 58 -65 c 1,12,13
 40 -71 40 -71 36.5 -71 c 128,-1,14
 33 -71 33 -71 27 -69 c 1,15,16
 25 -60 25 -60 25 -55.5 c 128,-1,17
 25 -51 25 -51 30 -42.5 c 128,-1,18
 35 -34 35 -34 41.5 -23 c 0,19,20
 58 4.92307692308 58 4.92307692308 58 33 c 2,21,-1
 58 42 l 1,22,23
 56 46 56 46 52.5 46 c 2,24,-1
 45 46 l 258,25,26
 41 46 41 46 37 48 c 1,27,28
 35 55 35 55 27.5 58.5 c 128,-1,29
 20 62 20 62 20 70.5 c 128,-1,30
 20 79 20 79 23 84.5 c 128,-1,31
 26 90 26 90 27 95 c 1,32,33
 61.5744680851 116.276595745 61.5744680851 116.276595745 82 119 c 1,0,-1
56 435 m 1,34,-1
 59 434 l 2,35,36
 61 434 61 434 63.5 436 c 128,-1,37
 66 438 66 438 69.5 439.5 c 128,-1,38
 73 441 73 441 81.5 441 c 2,39,-1
 96 441 l 2,40,41
 110 441 110 441 120.5 427 c 128,-1,42
 131 413 131 413 131 400.5 c 0,43,44
 131 384 131 384 115 352 c 1,45,46
 104 351 104 351 94.5 348 c 128,-1,47
 85 345 85 345 71 345 c 128,-1,48
 57 345 57 345 50 354.5 c 128,-1,49
 43 364 43 364 31 371 c 1,50,51
 29 381 29 381 29 390 c 0,52,53
 29 408.666666667 29 408.666666667 33 414 c 1,54,-1
 37 416 l 1,55,-1
 37 420 l 1,56,57
 41 425 41 425 47.5 427 c 128,-1,58
 54 429 54 429 56 435 c 1,34,-1
EndSplineSet
EndChar

StartChar: less
Encoding: 60 60 29
Width: 478
Flags: HW
LayerCount: 2
Fore
SplineSet
308 408 m 1,0,1
 317 414 317 414 328 414 c 1,2,3
 331 417 331 417 334.5 419 c 128,-1,4
 338 421 338 421 340 425 c 1,5,6
 348 427 348 427 353 431 c 128,-1,7
 358 435 358 435 366 439.5 c 128,-1,8
 374 444 374 444 384 448.5 c 128,-1,9
 394 453 394 453 401 456 c 128,-1,10
 408 459 408 459 409 458.5 c 128,-1,11
 410 458 410 458 415 463 c 1,12,13
 419 464 419 464 422.5 463.5 c 128,-1,14
 426 463 426 463 430 463 c 256,15,16
 434 463 434 463 440 465 c 1,17,18
 447 458 447 458 447 450 c 128,-1,19
 447 442 447 442 446 439 c 1,20,21
 437 436 437 436 430 437 c 1,22,23
 423 433 423 433 417.5 427.5 c 128,-1,24
 412 422 412 422 407.5 419.5 c 128,-1,25
 403 417 403 417 401.5 417 c 128,-1,26
 400 417 400 417 399 416 c 2,27,-1
 397 412 l 1,28,29
 389 406 389 406 380 401 c 128,-1,30
 371 396 371 396 364 388 c 1,31,32
 344 386 344 386 340 371 c 1,33,-1
 330 371 l 1,34,35
 323 367 323 367 321 356 c 1,36,-1
 310 356 l 1,37,38
 311 354 311 354 308.5 354 c 128,-1,39
 306 354 306 354 304.5 352.5 c 128,-1,40
 303 351 303 351 303.5 349.5 c 128,-1,41
 304 348 304 348 302 347 c 2,42,-1
 287 339 l 2,43,44
 274 332 274 332 260.5 321 c 128,-1,45
 247 310 247 310 238 306.5 c 128,-1,46
 229 303 229 303 225.5 304 c 128,-1,47
 222 305 222 305 216.5 303 c 128,-1,48
 211 301 211 301 206 296 c 128,-1,49
 201 291 201 291 193 292 c 1,50,51
 179 282 179 282 169 272.5 c 128,-1,52
 159 263 159 263 141 260 c 1,53,54
 134 251 134 251 120 247 c 1,55,56
 116 242 116 242 114 237 c 128,-1,57
 112 232 112 232 108 228 c 1,58,59
 103 227 103 227 98.5 227 c 128,-1,60
 94 227 94 227 90 225 c 1,61,-1
 90 222 l 2,62,63
 90 214 90 214 99.5 211 c 128,-1,64
 109 208 109 208 114 203 c 1,65,-1
 121 204 l 258,66,67
 123 204 123 204 130 200.5 c 128,-1,68
 137 197 137 197 143.5 195.5 c 128,-1,69
 150 194 150 194 158 194 c 128,-1,70
 166 194 166 194 171.5 192 c 128,-1,71
 177 190 177 190 179.5 187.5 c 128,-1,72
 182 185 182 185 186.5 183 c 128,-1,73
 191 181 191 181 195.5 181 c 128,-1,74
 200 181 200 181 204 179 c 2,75,-1
 218 172 l 2,76,77
 227 167 227 167 237.5 165.5 c 128,-1,78
 248 164 248 164 259.5 159 c 128,-1,79
 271 154 271 154 284.5 146 c 128,-1,80
 298 138 298 138 314 138 c 1,81,82
 315 133 315 133 320 132.5 c 128,-1,83
 325 132 325 132 327 128 c 1,84,85
 329 130 329 130 331.5 130 c 128,-1,86
 334 130 334 130 337 127 c 128,-1,87
 340 124 340 124 343 122.5 c 128,-1,88
 346 121 346 121 349.5 121.5 c 128,-1,89
 352.810810811 121.972972973 352.810810811 121.972972973 361.905405405 118.486486486 c 128,-1,90
 371 115 371 115 377.5 115 c 128,-1,91
 384 115 384 115 391 113 c 2,92,-1
 415 106 l 1,93,94
 421 100 421 100 421 88 c 128,-1,95
 421 76 421 76 409 66 c 1,96,97
 395 67 395 67 384.5 72.5 c 128,-1,98
 374 78 374 78 366 77.5 c 2,99,-1
 358 77 l 2,100,101
 353 77 353 77 353 81.5 c 128,-1,102
 353 86 353 86 347 86 c 128,-1,103
 341 86 341 86 334 93 c 1,104,105
 320 93 l 2,106,107
 314 93 314 93 309.5 96 c 2,108,-1
 299 103 l 1,109,110
 279 105 279 105 263 111 c 1,111,112
 262 113 l 2,113,114
 261 113 261 113 261 112.5 c 128,-1,115
 261 112 261 112 258 112 c 128,-1,116
 255 112 255 112 250.5 116 c 128,-1,117
 246 120 246 120 240 119 c 1,118,119
 234 121 234 121 233 125 c 128,-1,120
 232 129 232 129 226 129 c 2,121,-1
 212 127 l 1,122,123
 204.333333333 127 204.333333333 127 195 134 c 1,124,-1
 182 134 l 1,125,126
 182 135 182 135 177.5 137 c 128,-1,127
 173 139 173 139 167.5 142 c 0,128,129
 153.2 149.8 153.2 149.8 152 151 c 0,130,131
 140 154 140 154 126.5 156 c 128,-1,132
 113 158 113 158 104 166 c 1,133,-1
 99 166 l 1,134,-1
 79 168 l 1,135,136
 77 172 77 172 73.5 174.5 c 128,-1,137
 70 177 70 177 69 181 c 1,138,139
 60 183 60 183 52.5 187 c 128,-1,140
 45 191 45 191 38 193.5 c 128,-1,141
 31 196 31 196 23.5 195.5 c 0,142,143
 10 194.6 10 194.6 10 207 c 256,144,145
 10 215.5 10 215.5 15 228 c 1,146,147
 28 230 28 230 42 240 c 128,-1,148
 56 250 56 250 63 254 c 128,-1,149
 70 258 70 258 73 259 c 128,-1,150
 76 260 76 260 83 264.5 c 128,-1,151
 90 269 90 269 100 277 c 128,-1,152
 110 285 110 285 122 290 c 1,153,154
 129 296 129 296 140.5 302.5 c 128,-1,155
 152 309 152 309 163.5 316 c 128,-1,156
 175 323 175 323 186.5 329 c 128,-1,157
 198 335 198 335 214 347 c 1,158,-1
 224 350 l 1,159,160
 232 355 232 355 239.5 362 c 128,-1,161
 247 369 247 369 257 371 c 1,162,163
 267.833333333 382.916666667 267.833333333 382.916666667 308 403 c 1,164,-1
 308 408 l 1,0,1
EndSplineSet
EndChar

StartChar: equal
Encoding: 61 61 30
Width: 469
Flags: HW
LayerCount: 2
Fore
SplineSet
303 186 m 1,0,1
 399.666666667 186 399.666666667 186 419 188 c 1,2,3
 424 183 424 183 431 177.5 c 128,-1,4
 438 172 438 172 438 165.5 c 128,-1,5
 438 159 438 159 433.5 156.5 c 128,-1,6
 429 154 429 154 426 150 c 1,7,8
 421 154 421 154 414 153.5 c 128,-1,9
 407 153 407 153 400 153 c 1,10,-1
 385 156 l 2,11,12
 381 156 381 156 379.5 153 c 128,-1,13
 378 150 378 150 375 150 c 2,14,-1
 365 151 l 1,15,16
 342 150 l 1,17,-1
 328 152 l 258,18,19
 324 152 324 152 323 149 c 128,-1,20
 322 146 322 146 318 145 c 1,21,22
 315 147 315 147 310 147 c 258,23,-1
 290 145 l 2,24,25
 282 145 282 145 275.5 149 c 128,-1,26
 269 153 269 153 257.5 153 c 128,-1,27
 246 153 246 153 236 143 c 1,28,29
 229 151 229 151 220 148.5 c 128,-1,30
 211 146 211 146 203 152 c 1,31,32
 191 146 191 146 176.5 145 c 128,-1,33
 162 144 162 144 150 141 c 1,34,-1
 126 154 l 1,35,36
 116 152 116 152 104.5 152 c 2,37,-1
 82 152 l 2,38,39
 78 152 78 152 76 155 c 128,-1,40
 74 158 74 158 70.5 158 c 128,-1,41
 67 158 67 158 67 156 c 1,42,-1
 58 158 l 1,43,44
 53 158 53 158 41 152 c 1,45,46
 39 157 39 157 33 157.5 c 128,-1,47
 27 158 27 158 22 160 c 1,48,49
 20 163 20 163 20 171.5 c 128,-1,50
 20 180 20 180 26 188 c 1,51,-1
 29 187 l 2,52,53
 32 187 32 187 34 190 c 128,-1,54
 36 193 36 193 38 193 c 2,55,-1
 49 190 l 1,56,-1
 62 195 l 1,57,58
 67 195 67 195 75 193 c 0,59,60
 87 190 87 190 114 190 c 1,61,-1
 124 193 l 1,62,-1
 145 188 l 1,63,-1
 159 190 l 257,64,-1
 171 188 l 1,65,-1
 197 193 l 1,66,-1
 206 190 l 1,67,-1
 216 193 l 1,68,-1
 248 188 l 1,69,-1
 262 189 l 1,70,-1
 282 185 l 1,71,-1
 303 186 l 1,0,1
385 370 m 2,72,-1
 400 372 l 1,73,74
 410 372 410 372 418 363 c 128,-1,75
 426 354 426 354 426 346 c 2,76,-1
 425 336 l 1,77,78
 419 334 419 334 412.5 335 c 128,-1,79
 406 336 406 336 401 331 c 1,80,81
 392 333 392 333 383 333 c 128,-1,82
 374 333 374 333 366 338 c 1,83,84
 340.333333333 333.333333333 340.333333333 333.333333333 327 325 c 1,85,-1
 315 325 l 2,86,87
 306 325 306 325 299 321 c 1,88,89
 294 325 294 325 288 325 c 2,90,-1
 270 323 l 1,91,92
 256 323 256 323 241 327 c 128,-1,93
 226 331 226 331 213 331 c 128,-1,94
 200 331 200 331 191.5 327 c 128,-1,95
 183 323 183 323 174 323 c 2,96,-1
 145 325 l 1,97,-1
 135 329 l 1,98,-1
 118 325 l 257,99,-1
 98 329 l 1,100,-1
 86 325 l 1,101,-1
 84 325 l 1,102,-1
 84 326 l 1,103,104
 85 328 85 328 81.5 327.5 c 128,-1,105
 78 327 78 327 76.5 328.5 c 128,-1,106
 75 330 75 330 75 332.5 c 128,-1,107
 75 335 75 335 73 335 c 256,108,109
 71 335 71 335 71 334 c 1,110,111
 65 336 65 336 59.5 334 c 128,-1,112
 54 332 54 332 48 332 c 1,113,114
 31 337.666666667 31 337.666666667 31 356 c 0,115,116
 31 359 31 359 33 366 c 1,117,118
 41.75 371 41.75 371 61 371 c 2,119,-1
 126 368 l 2,120,121
 145 368 145 368 152 361 c 1,122,-1
 175 366 l 1,123,-1
 201 361 l 1,124,-1
 244 364 l 1,125,-1
 261 361 l 1,126,127
 284.333333333 361 284.333333333 361 297.166666667 364.5 c 128,-1,128
 310 368 310 368 316 368 c 1,129,-1
 327 366 l 1,130,-1
 372 370 l 1,131,-1
 379 372 l 1,132,133
 383 370 383 370 385 370 c 2,72,-1
EndSplineSet
EndChar

StartChar: greater
Encoding: 62 62 31
Width: 501
Flags: HW
LayerCount: 2
Fore
SplineSet
469 278 m 1,0,1
 480 268.571428571 480 268.571428571 480 252 c 2,2,-1
 479 234 l 1,3,4
 472 230 472 230 467 223 c 1,5,6
 458 222 458 222 442.5 217.5 c 128,-1,7
 427 213 427 213 422 213 c 1,8,9
 418 215 l 257,10,11
 408.875 215 408.875 215 394.4375 204.5 c 128,-1,12
 380 194 380 194 379 191 c 1,13,-1
 375 191 l 1,14,-1
 353 187 l 1,15,16
 352 182 352 182 347.5 181 c 128,-1,17
 343 180 343 180 339 178 c 1,18,19
 335 172 335 172 328 168 c 128,-1,20
 321 164 321 164 317 160 c 1,21,-1
 313 160 l 2,22,23
 294 160 294 160 274 146 c 1,24,-1
 266 147 l 1,25,26
 248 147 248 147 238 132 c 1,27,28
 232 130 232 130 226 128 c 128,-1,29
 220 126 220 126 217 121 c 1,30,-1
 215 121 l 1,31,-1
 208 123 l 2,32,33
 204.5 123 204.5 123 202.75 119.5 c 0,34,35
 199.5 113 199.5 113 191.25 113 c 128,-1,36
 183 113 183 113 179 109 c 128,-1,37
 175 105 175 105 170.5 103 c 128,-1,38
 166 101 166 101 164.5 101.5 c 128,-1,39
 163 102 163 102 158.5 99.5 c 128,-1,40
 154 97 154 97 149 96.5 c 128,-1,41
 144 96 144 96 138 95 c 128,-1,42
 132 94 132 94 131 91.5 c 128,-1,43
 130 89 130 89 127 87 c 1,44,45
 126 84 126 84 122 84.5 c 128,-1,46
 118 85 118 85 117 81 c 1,47,-1
 111 81 l 2,48,49
 100 81 100 81 95 83 c 1,50,51
 82.25 66 82.25 66 76 61 c 1,52,-1
 63 61 l 2,53,54
 53 61 53 61 48 63 c 1,55,-1
 48 65 l 1,56,-1
 43 78 l 1,57,58
 43 94.125 43 94.125 77 100.5 c 0,59,60
 90.7904761905 103.085714286 90.7904761905 103.085714286 99.3952380952 109.042857143 c 128,-1,61
 108 115 108 115 113 117 c 128,-1,62
 118 119 118 119 122.5 118 c 128,-1,63
 127 117 127 117 132.5 119 c 128,-1,64
 138 121 138 121 144 126.5 c 128,-1,65
 150 132 150 132 157 135 c 128,-1,66
 164 138 164 138 171 139.5 c 128,-1,67
 178 141 178 141 189 145.5 c 128,-1,68
 200 150 200 150 214.5 155.5 c 128,-1,69
 229 161 229 161 241 170 c 1,70,71
 258 171 258 171 272 177.5 c 128,-1,72
 286 184 286 184 302 187 c 1,73,74
 307 191 307 191 314 195 c 128,-1,75
 321 199 321 199 323.5 201 c 128,-1,76
 326 203 326 203 326 204.5 c 128,-1,77
 326 206 326 206 330 209 c 128,-1,78
 334 212 334 212 342 212.5 c 128,-1,79
 350 213 350 213 355 221 c 1,80,81
 384.347826087 225.891304348 384.347826087 225.891304348 396 239 c 0,82,83
 398 241 398 241 403.5 242.5 c 128,-1,84
 409 244 409 244 409 249 c 256,85,86
 409 254 409 254 403 255.5 c 128,-1,87
 397 257 397 257 392 258 c 1,88,89
 386 265 386 265 378 265 c 2,90,-1
 361 265 l 2,91,92
 347 265 347 265 342 269 c 128,-1,93
 337 273 337 273 327.5 276 c 128,-1,94
 318 279 318 279 311 279 c 128,-1,95
 304 279 304 279 298.5 280 c 128,-1,96
 293 281 293 281 290 284 c 256,97,98
 288 286 288 286 282 287 c 128,-1,99
 276 288 276 288 271.5 290 c 128,-1,100
 267 292 267 292 264 295.5 c 0,101,102
 257.571428571 303 257.571428571 303 251.285714286 303 c 2,103,-1
 240.5 303 l 2,104,105
 230 303 230 303 225 313 c 1,106,-1
 219 312 l 1,107,108
 211 312 211 312 207 315.5 c 128,-1,109
 203 319 203 319 196 322 c 1,110,111
 193 326 193 326 191 331.5 c 128,-1,112
 189 337 189 337 183 337 c 1,113,-1
 165 333 l 1,114,115
 156 333 156 333 148 340.5 c 128,-1,116
 140 348 140 348 127 347 c 1,117,118
 119 355 119 355 106.5 357.5 c 128,-1,119
 94 360 94 360 86 371 c 1,120,121
 75 372 75 372 60 379 c 128,-1,122
 45 386 45 386 39.5 391.5 c 128,-1,123
 34 397 34 397 33 404.5 c 128,-1,124
 32 412 32 412 31 416 c 1,125,126
 37.6666666667 426 37.6666666667 426 51.8333333333 426 c 0,127,128
 80 426 80 426 88 418 c 1,129,130
 94 416 94 416 103 415 c 128,-1,131
 112 414 112 414 115.5 412.5 c 128,-1,132
 119 411 119 411 120 409.5 c 0,133,134
 124.586206897 402.620689655 124.586206897 402.620689655 131.793103448 401.310344828 c 128,-1,135
 139 400 139 400 145.5 397.5 c 128,-1,136
 152 395 152 395 158 391 c 128,-1,137
 164 387 164 387 174 382.5 c 128,-1,138
 184 378 184 378 198.5 374 c 128,-1,139
 213 370 213 370 224.5 364 c 128,-1,140
 236 358 236 358 244 353.5 c 128,-1,141
 252 349 252 349 260 345.5 c 128,-1,142
 268 342 268 342 275 339.5 c 128,-1,143
 282 337 282 337 289.5 332.5 c 128,-1,144
 297 328 297 328 307 327 c 128,-1,145
 317 326 317 326 326 322 c 1,146,147
 337.619047619 310.380952381 337.619047619 310.380952381 352.80952381 309.69047619 c 128,-1,148
 368 309 368 309 374.5 306.5 c 128,-1,149
 381 304 381 304 383.5 302.5 c 128,-1,150
 386 301 386 301 389.5 299.5 c 128,-1,151
 393 298 393 298 398 298.5 c 128,-1,152
 403 299 403 299 411.5 297 c 128,-1,153
 420 295 420 295 431 289 c 128,-1,154
 442 283 442 283 454 278 c 1,155,-1
 469 278 l 1,0,1
EndSplineSet
EndChar

StartChar: question
Encoding: 63 63 32
Width: 372
Flags: HW
LayerCount: 2
Fore
SplineSet
56 726 m 1,0,-1
 55 735 l 2,1,2
 55 743 55 743 65.5 758.5 c 128,-1,3
 76 774 76 774 78 786 c 1,4,5
 87 792 87 792 97 802 c 1,6,7
 102 809 102 809 109.5 811 c 128,-1,8
 117 813 117 813 122 815 c 128,-1,9
 127 817 127 817 127 818 c 128,-1,10
 127 819 127 819 130 820 c 128,-1,11
 133 821 133 821 136 820.5 c 128,-1,12
 139 820 139 820 146 822.5 c 128,-1,13
 153 825 153 825 160.5 829.5 c 128,-1,14
 168 834 168 834 176 834 c 128,-1,15
 184 834 184 834 184 831 c 1,16,17
 215.475409836 828.37704918 215.475409836 828.37704918 229 821 c 1,18,-1
 238 814 l 1,19,20
 255.647058824 803.411764706 255.647058824 803.411764706 264.823529412 792.705882353 c 128,-1,21
 274 782 274 782 280 774.5 c 128,-1,22
 286 767 286 767 291 761.5 c 128,-1,23
 296 756 296 756 296.5 750.5 c 128,-1,24
 297 745 297 745 300 741 c 1,25,-1
 303 739 l 1,26,27
 310 725 310 725 313.5 709 c 128,-1,28
 317 693 317 693 326 679 c 1,29,30
 324 673 324 673 324 665 c 128,-1,31
 324 657 324 657 327.5 648 c 128,-1,32
 331 639 331 639 331 626 c 0,33,34
 331 609.5 331 609.5 324.5 589.25 c 128,-1,35
 318 569 318 569 317 561.5 c 128,-1,36
 316 554 316 554 312.5 549.5 c 128,-1,37
 309 545 309 545 305.5 542.5 c 128,-1,38
 302 540 302 540 300 537 c 128,-1,39
 298 534 298 534 298.5 531 c 128,-1,40
 299 528 299 528 296.5 524.5 c 128,-1,41
 294 521 294 521 289.5 518.5 c 128,-1,42
 285 516 285 516 281.5 511.5 c 128,-1,43
 278 507 278 507 276 503 c 128,-1,44
 274 499 274 499 269 494 c 1,45,-1
 268 489 l 1,46,47
 266 488 266 488 264 488.5 c 128,-1,48
 262 489 262 489 260 486 c 256,49,50
 258 483 258 483 247.5 475.5 c 128,-1,51
 237 468 237 468 232 469 c 1,52,53
 229 465 229 465 225.5 462 c 128,-1,54
 222 459 222 459 220 454 c 1,55,56
 212 455 212 455 207 451 c 128,-1,57
 202 447 202 447 196 443 c 1,58,-1
 193 443 l 2,59,60
 187 443 187 443 175.5 439.5 c 128,-1,61
 164 436 164 436 164 431 c 1,62,-1
 168 425 l 257,63,-1
 165 418 l 1,64,-1
 168 402 l 1,65,66
 168 363.5 168 363.5 164.5 351.25 c 128,-1,67
 161 339 161 339 161 334 c 2,68,-1
 162 317 l 1,69,-1
 158 289 l 2,70,71
 158 282 158 282 161 275 c 1,72,73
 156 263 156 263 140.5 256 c 128,-1,74
 125 249 125 249 114.5 249 c 128,-1,75
 104 249 104 249 102 258.5 c 128,-1,76
 100 268 100 268 95 273 c 1,77,-1
 99 307 l 1,78,-1
 98 326 l 1,79,-1
 101 340 l 2,80,81
 102 343 102 343 101.5 346 c 128,-1,82
 101 349 101 349 101 354.5 c 128,-1,83
 101 360 101 360 105 366.5 c 128,-1,84
 109 373 109 373 109 380 c 1,85,-1
 106 395 l 1,86,87
 106 415 106 415 111 433.5 c 128,-1,88
 116 452 116 452 116 471 c 1,89,-1
 113 492 l 1,90,-1
 116 507 l 1,91,92
 121.647058824 529.588235294 121.647058824 529.588235294 128 537 c 1,93,-1
 141 539 l 2,94,95
 146 539 146 539 153.5 531 c 128,-1,96
 161 523 161 523 163 518.5 c 128,-1,97
 165 514 165 514 164.5 508 c 128,-1,98
 164 502 164 502 169 500 c 1,99,-1
 169 497 l 1,100,-1
 168 484 l 1,101,-1
 168 480 l 1,102,103
 174 478 174 478 180.5 478 c 128,-1,104
 187 478 187 478 195 485.5 c 128,-1,105
 203 493 203 493 212 495 c 1,106,107
 212 500 212 500 215.5 502 c 128,-1,108
 219 504 219 504 221 507.5 c 128,-1,109
 223 511 223 511 224 514.5 c 128,-1,110
 225 518 225 518 230 518 c 1,111,112
 231 526 231 526 234.5 530 c 128,-1,113
 238 534 238 534 241 539 c 1,114,-1
 241 541 l 2,115,116
 241 554 241 554 246.5 567 c 128,-1,117
 252 580 252 580 252 593 c 1,118,-1
 250 597 l 1,119,120
 253 603 253 603 253 604 c 2,121,-1
 251 622 l 1,122,-1
 252 652 l 2,123,124
 252 665 252 665 246 677 c 1,125,126
 248 681 248 681 248 688 c 128,-1,127
 248 695 248 695 239 710 c 1,128,-1
 239 714 l 2,129,130
 239 721 239 721 236 727 c 128,-1,131
 233 733 233 733 232 737.5 c 128,-1,132
 231 742 231 742 231.5 745 c 128,-1,133
 232 748 232 748 231 751.5 c 128,-1,134
 230 755 230 755 225 761 c 128,-1,135
 220 767 220 767 218 773 c 1,136,137
 210 774 210 774 207.5 778.5 c 128,-1,138
 205 783 205 783 201 790 c 1,139,140
 196 792 196 792 187.5 794 c 128,-1,141
 179 796 179 796 176 801 c 1,142,143
 168 800 168 800 164 794 c 128,-1,144
 160 788 160 788 150 792 c 1,145,146
 142 790 142 790 139 784 c 128,-1,147
 136 778 136 778 128 778 c 1,148,149
 124 773 124 773 123 767 c 1,150,151
 116 767 116 767 112.5 763 c 128,-1,152
 109 759 109 759 103 756 c 1,153,154
 103 741 103 741 95 737 c 128,-1,155
 87 733 87 733 83.5 726 c 128,-1,156
 80 719 80 719 80.5 717.5 c 128,-1,157
 81 716 81 716 81 712 c 1,158,-1
 78 701 l 257,159,-1
 79 687 l 1,160,-1
 78 664 l 2,161,162
 78 653 78 653 73.5 647.5 c 128,-1,163
 69 642 69 642 69 638 c 0,164,165
 69 628 69 628 79 624 c 1,166,167
 88.5789473684 632.210526316 88.5789473684 632.210526316 90.2894736842 647.605263158 c 0,168,169
 93.8620689655 679.75862069 93.8620689655 679.75862069 98 687 c 1,170,171
 102 689 102 689 106 688.5 c 128,-1,172
 110 688 110 688 113.5 688 c 128,-1,173
 117 688 117 688 121 690 c 0,174,175
 122 690 122 690 126.5 682.5 c 128,-1,176
 131 675 131 675 131 674 c 2,177,-1
 130 669 l 2,178,179
 130 666 130 666 132 667 c 128,-1,180
 134 668 134 668 134 655.5 c 128,-1,181
 134 643 134 643 125.5 631.5 c 128,-1,182
 117 620 117 620 109 608 c 1,183,-1
 108 608 l 1,184,-1
 95 606 l 1,185,186
 89 603 89 603 85.5 597 c 128,-1,187
 82 591 82 591 72.5 591 c 128,-1,188
 63 591 63 591 56.5 598 c 128,-1,189
 50 605 50 605 42 609 c 1,190,-1
 42 615 l 1,191,-1
 41 634 l 2,192,193
 41 645 41 645 45 655 c 128,-1,194
 49 665 49 665 49 676 c 2,195,-1
 48 702 l 2,196,197
 48 712 48 712 51 723 c 1,198,-1
 56 726 l 1,0,-1
133 51 m 2,199,-1
 134 43 l 1,200,201
 141 41 141 41 144.5 38 c 128,-1,202
 148 35 148 35 157 34 c 1,203,204
 159 29 159 29 162.5 24.5 c 128,-1,205
 166 20 166 20 166 12 c 128,-1,206
 166 4 166 4 162.5 -1.5 c 128,-1,207
 159 -7 159 -7 154.5 -9.5 c 128,-1,208
 150 -12 150 -12 146 -14 c 128,-1,209
 142 -16 142 -16 142 -19 c 1,210,-1
 134 -16 l 257,211,212
 131 -16 131 -16 125 -23 c 128,-1,213
 119 -30 119 -30 114 -32 c 1,214,215
 105 -30 105 -30 95 -30 c 128,-1,216
 85 -30 85 -30 81 -22 c 1,217,-1
 79 -22 l 1,218,-1
 70 -25 l 1,219,220
 63 -25 63 -25 59 -16 c 128,-1,221
 55 -7 55 -7 55 1 c 128,-1,222
 55 9 55 9 58 10.5 c 128,-1,223
 61 12 61 12 65 19 c 128,-1,224
 69 26 69 26 73 29.5 c 128,-1,225
 77 33 77 33 82 38 c 128,-1,226
 87 43 87 43 87 44.5 c 128,-1,227
 87 46 87 46 90.5 49.5 c 128,-1,228
 94 53 94 53 101 55.5 c 128,-1,229
 108 58 108 58 113 63 c 1,230,-1
 116 63 l 2,231,232
 122 63 122 63 125.5 60.5 c 128,-1,233
 129 58 129 58 134 56 c 1,234,235
 133 55 133 55 133 51 c 2,199,-1
EndSplineSet
EndChar

StartChar: at
Encoding: 64 64 33
Width: 627
Flags: HW
LayerCount: 2
Fore
SplineSet
591 450 m 1,0,-1
 593 441 l 2,1,2
 593 438 593 438 590 437 c 1,3,-1
 590 436 l 2,4,5
 590 432 590 432 593.5 431 c 128,-1,6
 597 430 597 430 596 427 c 1,7,-1
 596 425 l 1,8,9
 593 423.5 593 423.5 593 414.75 c 128,-1,10
 593 406 593 406 587 406 c 1,11,-1
 587 404 l 1,12,13
 586 401 586 401 589.5 399.5 c 128,-1,14
 593 398 593 398 593 395.5 c 128,-1,15
 593 393 593 393 590.5 390.5 c 128,-1,16
 588 388 588 388 587.5 382 c 128,-1,17
 587 376 587 376 584.5 372.5 c 128,-1,18
 582 369 582 369 582.5 367 c 128,-1,19
 583 365 583 365 583 361.5 c 128,-1,20
 583 358 583 358 578.5 355 c 128,-1,21
 574 352 574 352 572.5 349.5 c 128,-1,22
 571 347 571 347 571.5 345 c 128,-1,23
 572 343 572 343 570.5 341 c 128,-1,24
 569 339 569 339 567.5 339 c 128,-1,25
 566 339 566 339 562.5 335 c 128,-1,26
 559 331 559 331 557.5 323.5 c 128,-1,27
 556 316 556 316 549 311 c 1,28,29
 548 308 548 308 547.5 303 c 128,-1,30
 547 298 547 298 545.5 296 c 128,-1,31
 544 294 544 294 542.5 294 c 128,-1,32
 541 294 541 294 539.5 292 c 128,-1,33
 538 290 538 290 539 288 c 128,-1,34
 540 286 540 286 538 284 c 256,35,36
 536 282 536 282 527.5 277 c 128,-1,37
 519 272 519 272 515 274 c 1,38,39
 513.290322581 260.322580645 513.290322581 260.322580645 496 256 c 1,40,41
 480.4 230 480.4 230 476.2 230 c 0,42,43
 471.333333333 230 471.333333333 230 468 225 c 1,44,45
 465 223 465 223 461.5 223 c 0,46,47
 459.5 223 459.5 223 451.75 219.5 c 128,-1,48
 444 216 444 216 440.5 216.5 c 128,-1,49
 437 217 437 217 435 217 c 2,50,-1
 421 213 l 1,51,52
 400 213 400 213 381 232 c 0,53,54
 376 237 376 237 368 241 c 1,55,56
 365 249 365 249 356 256 c 1,57,-1
 356 260 l 1,58,59
 357 267 357 267 351.5 275.5 c 128,-1,60
 346 284 346 284 339.5 284 c 128,-1,61
 333 284 333 284 328.5 274.5 c 128,-1,62
 324 265 324 265 318 264 c 1,63,64
 313 256 313 256 307 244 c 128,-1,65
 301 232 301 232 294.5 227.5 c 128,-1,66
 288 223 288 223 285.5 218 c 128,-1,67
 283 213 283 213 278 209 c 1,68,69
 272 209 272 209 269 205 c 1,70,71
 261 211 261 211 250 211 c 1,72,-1
 222 239 l 1,73,-1
 223 241 l 1,74,75
 223 246 223 246 219 250 c 128,-1,76
 215 254 215 254 212 260 c 0,77,78
 204 276 204 276 204 290.5 c 128,-1,79
 204 305 204 305 205.5 309 c 0,80,81
 211 323.666666667 211 323.666666667 211 334.833333333 c 128,-1,82
 211 346 211 346 212.5 352.5 c 128,-1,83
 214 359 214 359 215.5 362.5 c 128,-1,84
 217 366 217 366 221.5 380 c 0,85,86
 229.506024096 404.907630522 229.506024096 404.907630522 258 441 c 1,87,88
 265.2 451.8 265.2 451.8 269.1 454.4 c 128,-1,89
 273 457 273 457 276 459 c 128,-1,90
 279 461 279 461 283 466 c 128,-1,91
 287 471 287 471 289.5 472.5 c 128,-1,92
 292 474 292 474 294.5 473.5 c 0,93,94
 298.764705882 472.647058824 298.764705882 472.647058824 300.882352941 475.823529412 c 128,-1,95
 303 479 303 479 306 480.5 c 128,-1,96
 309 482 309 482 324 484.5 c 128,-1,97
 339 487 339 487 344 488 c 1,98,99
 352 485 352 485 356 478.5 c 128,-1,100
 360 472 360 472 370 471 c 1,101,102
 372 465 372 465 377.5 461.5 c 128,-1,103
 383 458 383 458 385 453.5 c 128,-1,104
 387 449 387 449 388.5 449 c 128,-1,105
 390 449 390 449 391.5 447 c 128,-1,106
 393 445 393 445 392.5 444 c 128,-1,107
 392 443 392 443 393.5 440.5 c 128,-1,108
 395 438 395 438 397.5 436 c 128,-1,109
 400 434 400 434 401.5 430.5 c 128,-1,110
 403 427 403 427 402 419.5 c 128,-1,111
 401 412 401 412 401 407 c 2,112,-1
 401 403 l 2,113,114
 401 398 401 398 400.5 374 c 128,-1,115
 400 350 400 350 401.5 323 c 0,116,117
 405.444444444 252 405.444444444 252 428 252 c 1,118,-1
 437 254 l 1,119,-1
 444 252 l 257,120,121
 452.714285714 252 452.714285714 252 454.857142857 257 c 128,-1,122
 457 262 457 262 459 266 c 1,123,124
 462 268 462 268 470.5 274.5 c 128,-1,125
 479 281 479 281 488.5 288 c 0,126,127
 519.299363057 310.694267516 519.299363057 310.694267516 520.5 321.5 c 0,128,129
 521 326 521 326 529 331 c 1,130,-1
 529 332 l 2,131,132
 529 340 529 340 535 345 c 128,-1,133
 541 350 541 350 543 354 c 128,-1,134
 545 358 545 358 544.5 361.5 c 128,-1,135
 544 365 544 365 545.5 368.5 c 128,-1,136
 547 372 547 372 548 372 c 128,-1,137
 549 372 549 372 549 375 c 128,-1,138
 549 378 549 378 557 386 c 1,139,-1
 556 390 l 1,140,141
 556 398 556 398 559.5 402 c 128,-1,142
 563 406 563 406 563 411 c 258,143,-1
 561 430 l 1,144,-1
 564 439 l 1,145,146
 564 458 564 458 551 471 c 1,147,-1
 551 475 l 1,148,-1
 549 495 l 1,149,150
 542 501 542 501 536.5 508.5 c 128,-1,151
 531 516 531 516 527 520.5 c 128,-1,152
 523 525 523 525 520.5 527 c 128,-1,153
 518 529 518 529 517 531 c 1,154,-1
 518 537 l 1,155,-1
 517 538 l 1,156,-1
 514 540 l 1,157,158
 512 547 512 547 512 552 c 128,-1,159
 512 557 512 557 510.5 559 c 0,160,161
 507.5 563 507.5 563 496.75 563 c 128,-1,162
 486 563 486 563 481 566 c 128,-1,163
 476 569 476 569 471 573 c 0,164,165
 459.181818182 582.454545455 459.181818182 582.454545455 457 589 c 1,166,167
 441.4 591.6 441.4 591.6 421 612 c 1,168,169
 419 610 419 610 415.5 610 c 128,-1,170
 412 610 412 610 409.5 613 c 128,-1,171
 407 616 407 616 399 614 c 1,172,173
 398 617 398 617 386 622.5 c 128,-1,174
 374 628 374 628 371 628 c 2,175,-1
 360 626 l 1,176,177
 354.333333333 626 354.333333333 626 331 636 c 1,178,179
 323 633 323 633 314 633 c 128,-1,180
 305 633 305 633 298.5 630.5 c 128,-1,181
 292 628 292 628 282 618 c 1,182,183
 278 620 278 620 274 620 c 128,-1,184
 270 620 270 620 266 622 c 1,185,-1
 254 618 l 2,186,187
 252 618 252 618 246 621 c 1,188,189
 239 617 239 617 233 610.5 c 128,-1,190
 227 604 227 604 219 606 c 1,191,192
 214 604 214 604 211.5 599.5 c 128,-1,193
 209 595 209 595 205 591 c 1,194,195
 174 585 174 585 171 555 c 1,196,197
 160 550 160 550 151 535.5 c 128,-1,198
 142 521 142 521 140 508 c 1,199,200
 134 508 134 508 131 503.5 c 128,-1,201
 128 499 128 499 122 498 c 1,202,-1
 123 496 l 1,203,204
 123 490 123 490 121 487 c 128,-1,205
 119 484 119 484 121 478 c 1,206,207
 116 475 116 475 113.5 470.5 c 128,-1,208
 111 466 111 466 104 465 c 1,209,210
 101 451 101 451 95 441.5 c 128,-1,211
 89 432 89 432 91 416 c 1,212,213
 84 408 84 408 84 397 c 1,214,-1
 79 345 l 1,215,-1
 81 329 l 1,216,-1
 79 319 l 1,217,-1
 83 299 l 1,218,219
 83 292 83 292 85 288 c 128,-1,220
 87 284 87 284 89 276.5 c 128,-1,221
 91 269 91 269 91.5 258 c 128,-1,222
 92 247 92 247 100 241 c 1,223,224
 106.666666667 206.333333333 106.666666667 206.333333333 122 191 c 0,225,226
 123 189 123 189 122.5 188.5 c 128,-1,227
 122 188 122 188 122 186 c 256,228,229
 122 184 122 184 124.5 182.5 c 128,-1,230
 127 181 127 181 128.5 179 c 128,-1,231
 130 177 130 177 129.5 174.5 c 128,-1,232
 129 172 129 172 130.5 169 c 128,-1,233
 132 166 132 166 135.5 163 c 128,-1,234
 139 160 139 160 141.5 156.5 c 128,-1,235
 144 153 144 153 146 148 c 128,-1,236
 148 143 148 143 156.5 136.5 c 128,-1,237
 165 130 165 130 167.5 125 c 0,238,239
 173.80952381 112.380952381 173.80952381 112.380952381 183.404761905 108.69047619 c 128,-1,240
 193 105 193 105 195 99 c 1,241,242
 206 95 206 95 217.5 87 c 128,-1,243
 229 79 229 79 236 77.5 c 128,-1,244
 243 76 243 76 249 77 c 128,-1,245
 255 78 255 78 261 78 c 2,246,-1
 299 74 l 2,247,248
 305 73 305 73 310.5 73.5 c 128,-1,249
 316 74 316 74 328.5 74 c 128,-1,250
 341 74 341 74 356 70 c 1,251,-1
 374 78 l 1,252,253
 380 75 380 75 387 75 c 0,254,255
 395 75 395 75 419 81 c 1,256,257
 423 84 423 84 426 85.5 c 128,-1,258
 429 87 429 87 427 93 c 1,259,260
 431 91 431 91 435 91 c 2,261,-1
 453 93 l 1,262,263
 463 85 463 85 463 77.5 c 0,264,265
 463 69 463 69 461 61 c 1,266,267
 456 59 456 59 449.5 57 c 128,-1,268
 443 55 443 55 441 50 c 1,269,270
 439 52 439 52 436.5 52 c 128,-1,271
 434 52 434 52 431 49.5 c 128,-1,272
 428 47 428 47 425.5 46 c 128,-1,273
 423 45 423 45 420 45.5 c 128,-1,274
 417 46 417 46 414 46 c 2,275,-1
 397 41 l 257,276,277
 393 41 393 41 392 44 c 1,278,279
 388 45 388 45 388.5 40.5 c 128,-1,280
 389 36 389 36 384 38 c 1,281,-1
 379 38 l 2,282,283
 370 38 370 38 361.5 42 c 128,-1,284
 353 46 353 46 347 46 c 128,-1,285
 341 46 341 46 329 40 c 1,286,287
 329 42 329 42 327 42 c 256,288,289
 325 42 325 42 324.5 41 c 128,-1,290
 324 40 324 40 320 38.5 c 128,-1,291
 316 37 316 37 310 37 c 128,-1,292
 304 37 304 37 299 32 c 1,293,294
 292 35 292 35 285.5 35 c 2,295,-1
 270 35 l 258,296,297
 261 35 261 35 254 38 c 1,298,-1
 237 34 l 1,299,300
 229 34 229 34 223.5 38 c 128,-1,301
 218 42 218 42 213.5 42 c 128,-1,302
 209 42 209 42 203 40 c 1,303,304
 196 45 196 45 187.5 47.5 c 128,-1,305
 179 50 179 50 173 55 c 1,306,-1
 171 55 l 2,307,308
 159 55 159 55 152.5 61.5 c 128,-1,309
 146 68 146 68 136 70 c 1,310,311
 129.181818182 81.3636363636 129.181818182 81.3636363636 121 83 c 1,312,313
 119 86 119 86 118 89.5 c 128,-1,314
 117 93 117 93 115 95 c 1,315,316
 101 97 101 97 96 105.5 c 128,-1,317
 91 114 91 114 81 119 c 1,318,319
 81 123 81 123 79.5 126 c 128,-1,320
 78 129 78 129 76.5 132.5 c 128,-1,321
 75 136 75 136 68.5 143.5 c 0,322,323
 61.3606557377 151.737704918 61.3606557377 151.737704918 59.6803278689 156.868852459 c 128,-1,324
 58 162 58 162 56.5 163 c 128,-1,325
 55 164 55 164 53.5 166 c 128,-1,326
 52 168 52 168 52.5 170 c 128,-1,327
 53 172 53 172 51.5 174 c 128,-1,328
 50 176 50 176 47 177.5 c 128,-1,329
 44 179 44 179 44 181 c 128,-1,330
 44 183 44 183 46 185 c 1,331,332
 39 190 39 190 35 197 c 128,-1,333
 31 204 31 204 26 211 c 1,334,-1
 26 215 l 2,335,336
 26 236 26 236 14 252 c 1,337,-1
 12 292 l 2,338,339
 12 294 12 294 10 300 c 1,340,-1
 16 332 l 1,341,-1
 14 345 l 1,342,343
 14 354 14 354 23 378 c 1,344,345
 28.7358490566 426.754716981 28.7358490566 426.754716981 47 461 c 0,346,347
 49 464 49 464 51 466 c 0,348,349
 56.2 471.2 56.2 471.2 57.6 476.1 c 128,-1,350
 59 481 59 481 61 483.5 c 128,-1,351
 63 486 63 486 65.5 489 c 128,-1,352
 68 492 68 492 68 495 c 2,353,-1
 68 497 l 1,354,-1
 69 496 l 1,355,356
 72 496 72 496 72.5 499 c 128,-1,357
 73 502 73 502 77 500 c 1,358,-1
 77 502 l 2,359,360
 77 504 77 504 78.5 506 c 128,-1,361
 80 508 80 508 83 514 c 128,-1,362
 86 520 86 520 93 528.5 c 128,-1,363
 100 537 100 537 106 546 c 1,364,-1
 111 549 l 1,365,366
 113 552 113 552 113 555.5 c 128,-1,367
 113 559 113 559 116.5 563.5 c 128,-1,368
 120 568 120 568 127 573 c 128,-1,369
 134 578 134 578 136 587 c 1,370,371
 144 589 144 589 150 594.5 c 128,-1,372
 156 600 156 600 164 602 c 1,373,374
 167 605 167 605 169 610 c 128,-1,375
 171 615 171 615 174 617.5 c 128,-1,376
 177 620 177 620 178 619 c 128,-1,377
 179 618 179 618 181 620 c 128,-1,378
 183 622 183 622 183 623.5 c 128,-1,379
 183 625 183 625 185 626 c 2,380,-1
 194 632 l 2,381,382
 201 637 201 637 209 640.5 c 128,-1,383
 217 644 217 644 224 649 c 1,384,-1
 239 649 l 2,385,386
 243 649 243 649 243.5 651 c 128,-1,387
 244 653 244 653 246 655 c 1,388,-1
 275 659 l 1,389,390
 278 662 278 662 279.5 662 c 2,391,-1
 283 662 l 2,392,393
 296 662 296 662 299 668 c 1,394,395
 301 667 301 667 305 667 c 2,396,-1
 331 672 l 1,397,398
 351 672 351 672 370 665.5 c 128,-1,399
 389 659 389 659 410 657 c 1,400,401
 413 652 413 652 418.5 651 c 0,402,403
 425.32 649.76 425.32 649.76 430.66 645.88 c 128,-1,404
 436 642 436 642 439.5 641 c 128,-1,405
 443 640 443 640 446 638 c 1,406,407
 450.5 632 450.5 632 453 632 c 0,408,409
 459 632 459 632 468 614 c 1,410,-1
 470 614 l 1,411,-1
 478 616 l 1,412,-1
 480 616 l 1,413,414
 497.741935484 594.709677419 497.741935484 594.709677419 511 592.5 c 0,415,416
 517.6 591.4 517.6 591.4 516.5 587 c 0,417,418
 515.121212121 581.484848485 515.121212121 581.484848485 523 580.5 c 0,419,420
 527 580 527 580 527 569 c 1,421,422
 537 567 537 567 542.5 559 c 128,-1,423
 548 551 548 551 553 544 c 1,424,-1
 557 544 l 1,425,-1
 557 540 l 1,426,427
 570.2 523.5 570.2 523.5 574 514 c 1,428,-1
 577 502 l 1,429,-1
 581 495 l 1,430,431
 584 482 584 482 583.5 473 c 128,-1,432
 583 464 583 464 591 453 c 1,433,-1
 591 450 l 1,0,-1
315 322 m 1,434,-1
 313 331 l 1,435,436
 318 336 318 336 325 349 c 128,-1,437
 332 362 332 362 333 371 c 1,438,439
 350.714285714 388.714285714 350.714285714 388.714285714 356 431 c 1,440,441
 349 435 349 435 346 442.5 c 128,-1,442
 343 450 343 450 335.5 450 c 128,-1,443
 328 450 328 450 323.5 448 c 128,-1,444
 319 446 319 446 315 445 c 1,445,446
 312 439 312 439 308 434 c 128,-1,447
 304 429 304 429 302.5 426 c 128,-1,448
 301 423 301 423 299.5 419 c 0,449,450
 290.615384615 395.307692308 290.615384615 395.307692308 291.307692308 391.153846154 c 128,-1,451
 292 387 292 387 292 379.5 c 128,-1,452
 292 372 292 372 286.5 360 c 128,-1,453
 281 348 281 348 281 340 c 128,-1,454
 281 332 281 332 282 329 c 1,455,456
 276 326 276 326 277 320 c 128,-1,457
 278 314 278 314 276 310 c 128,-1,458
 274 306 274 306 272 306 c 128,-1,459
 270 306 270 306 270 299 c 2,460,-1
 271 279 l 2,461,462
 271 273 271 273 275 274 c 1,463,464
 276 273 276 273 279 273 c 256,465,466
 285.545454545 273 285.545454545 273 294.272727273 289 c 128,-1,467
 303 305 303 305 303 307 c 1,468,469
 307 309 307 309 309.5 312.5 c 128,-1,470
 312 316 312 316 315 319 c 1,471,-1
 315 322 l 1,434,-1
EndSplineSet
EndChar

StartChar: A
Encoding: 65 65 34
Width: 549
Flags: HW
LayerCount: 2
Fore
SplineSet
560 -35 m 1,0,1
 574 -43.4 574 -43.4 574 -57 c 0,2,3
 574 -60 574 -60 573 -62 c 1,4,5
 575 -68 575 -68 565.5 -70.5 c 128,-1,6
 556 -73 556 -73 552 -74 c 1,7,8
 544.244897959 -80.2040816327 544.244897959 -80.2040816327 537.62244898 -79.6020408163 c 128,-1,9
 531 -79 531 -79 527.5 -80 c 128,-1,10
 524 -81 524 -81 522.5 -82 c 128,-1,11
 521 -83 521 -83 519 -84 c 1,12,-1
 511 -84 l 2,13,14
 506 -84 506 -84 500.5 -89 c 128,-1,15
 495 -94 495 -94 487 -94 c 1,16,17
 472 -92 l 1,18,-1
 441 -98 l 2,19,20
 436 -98 436 -98 434 -97 c 1,21,22
 427 -99 427 -99 422 -102 c 128,-1,23
 417 -105 417 -105 409 -105 c 1,24,25
 406 -100 406 -100 403 -95 c 128,-1,26
 400 -90 400 -90 400 -83 c 1,27,28
 402.96 -74.12 402.96 -74.12 413.98 -70.06 c 128,-1,29
 425 -66 425 -66 435 -62.5 c 128,-1,30
 445 -59 445 -59 453 -55.5 c 128,-1,31
 461 -52 461 -52 461 -45 c 1,32,-1
 451 -9 l 1,33,34
 449 -6 449 -6 447 -3.5 c 128,-1,35
 445 -1 445 -1 443.5 4 c 128,-1,36
 442 9 442 9 442 16.5 c 128,-1,37
 442 24 442 24 440 30 c 256,38,39
 438 36 438 36 436 42 c 128,-1,40
 434 48 434 48 432 53 c 1,41,42
 427 57 427 57 420 65.5 c 128,-1,43
 413 74 413 74 406 74 c 1,44,-1
 393 72 l 257,45,-1
 381 74 l 2,46,47
 377 74 377 74 373 72.5 c 128,-1,48
 369 71 369 71 361 69.5 c 128,-1,49
 353 68 353 68 343.5 68 c 2,50,-1
 325 68 l 1,51,-1
 308 70 l 1,52,-1
 303 68 l 1,53,-1
 287 72 l 1,54,-1
 276 71 l 2,55,56
 272 71 272 71 269 74 c 1,57,58
 257 68 257 68 253 68 c 2,59,-1
 230 72 l 1,60,-1
 219 70 l 1,61,-1
 204 74 l 1,62,-1
 177 72 l 1,63,-1
 161 72 l 2,64,65
 108.777777778 72 108.777777778 72 90 59 c 1,66,-1
 90 55 l 1,67,-1
 86 55 l 1,68,69
 79.2222222222 48.2222222222 79.2222222222 48.2222222222 69.1111111111 12.1111111111 c 128,-1,70
 59 -24 59 -24 59 -29 c 128,-1,71
 59 -34 59 -34 65.5 -37 c 128,-1,72
 72 -40 72 -40 77 -40 c 256,73,74
 82 -40 82 -40 94 -37 c 1,75,76
 103 -43 103 -43 110 -52 c 1,77,78
 109 -60 109 -60 106 -66 c 128,-1,79
 103 -72 103 -72 100 -78 c 1,80,-1
 60 -73 l 1,81,-1
 53 -70 l 1,82,-1
 38 -72 l 1,83,-1
 19 -67 l 1,84,-1
 9 -69 l 257,85,-1
 -2 -68 l 2,86,87
 -9.5 -68 -9.5 -68 -11 -71 c 1,88,89
 -13 -71 -13 -71 -13 -70 c 128,-1,90
 -13 -69 -13 -69 -15 -69 c 2,91,-1
 -30 -74 l 257,92,93
 -34 -74 -34 -74 -44 -71.5 c 128,-1,94
 -54 -69 -54 -69 -54 -63 c 0,95,96
 -54 -60 -54 -60 -57 -60 c 1,97,98
 -59 -62 -59 -62 -60.5 -62 c 128,-1,99
 -62 -62 -62 -62 -64.5 -59 c 128,-1,100
 -67 -56 -67 -56 -67 -48 c 128,-1,101
 -67 -40 -67 -40 -59 -33 c 1,102,103
 -53 -31 -53 -31 -50 -31 c 2,104,-1
 -34 -33 l 257,105,-1
 -19 -31 l 1,106,-1
 -10 -32 l 1,107,108
 4.85714285714 -32 4.85714285714 -32 10 4 c 0,109,110
 12 18 12 18 14 32 c 128,-1,111
 16 46 16 46 22 52 c 1,112,113
 20 53 20 53 20 56 c 128,-1,114
 20 59 20 59 22 65 c 128,-1,115
 24 71 24 71 25.5 77 c 128,-1,116
 27 83 27 83 29 88.5 c 128,-1,117
 31 94 31 94 32 97 c 256,118,119
 33 100 33 100 34.5 102.5 c 128,-1,120
 36 105 36 105 37.5 111 c 128,-1,121
 39 117 39 117 39 124 c 128,-1,122
 39 131 39 131 40.5 136.5 c 128,-1,123
 42 142 42 142 43 145 c 128,-1,124
 44 148 44 148 47.5 161 c 128,-1,125
 51 174 51 174 54 196.5 c 128,-1,126
 57 219 57 219 63 241.5 c 128,-1,127
 69 264 69 264 76 286.5 c 128,-1,128
 83 309 83 309 86.5 324 c 128,-1,129
 90 339 90 339 91 345.5 c 128,-1,130
 92 352 92 352 93.5 356.5 c 0,131,132
 96.6666666667 366 96.6666666667 366 100 371 c 1,133,134
 102 376 102 376 103.5 382 c 128,-1,135
 105 388 105 388 108.5 398 c 128,-1,136
 112 408 112 408 114 424.5 c 128,-1,137
 116 441 116 441 119 450 c 128,-1,138
 122 459 122 459 122.5 460 c 128,-1,139
 123 461 123 461 123 466 c 128,-1,140
 123 471 123 471 124.5 473 c 128,-1,141
 126 475 126 475 128 478 c 1,142,-1
 133 506 l 1,143,-1
 135 507 l 1,144,-1
 134 511 l 1,145,146
 134 524.555555556 134 524.555555556 145.5 546.277777778 c 128,-1,147
 157 568 157 568 159 570 c 1,148,149
 160 575 160 575 159.5 580.5 c 128,-1,150
 159 586 159 586 160.5 589.5 c 128,-1,151
 162 593 162 593 164 594.5 c 0,152,153
 166.705882353 596.529411765 166.705882353 596.529411765 169 608 c 1,154,-1
 173 610 l 1,155,-1
 173 615 l 2,156,157
 173 619 173 619 179 622 c 1,158,159
 181 630 181 630 182.5 637 c 128,-1,160
 184 644 184 644 186 651 c 1,161,-1
 193 664 l 2,162,163
 195 667 195 667 195 670.5 c 128,-1,164
 195 674 195 674 197.5 678.5 c 128,-1,165
 200 683 200 683 205 688 c 128,-1,166
 210 693 210 693 212.5 702.5 c 128,-1,167
 215 712 215 712 213.5 722.5 c 128,-1,168
 212 733 212 733 218 743 c 1,169,170
 224 746 224 746 235.5 746 c 128,-1,171
 247 746 247 746 255 732.5 c 128,-1,172
 263 719 263 719 263 705 c 1,173,174
 268 698 268 698 270.5 690 c 128,-1,175
 273 682 273 682 279 677 c 1,176,-1
 279 675 l 2,177,178
 279 659 279 659 287 643 c 0,179,180
 302 613 302 613 302 603 c 1,181,182
 305.368421053 599.631578947 305.368421053 599.631578947 308.684210526 585.815789474 c 128,-1,183
 312 572 312 572 325 559 c 1,184,-1
 324 556 l 1,185,186
 324 545 324 545 329.5 535.5 c 128,-1,187
 335 526 335 526 337.5 517.5 c 128,-1,188
 340 509 340 509 340 502.5 c 0,189,190
 340 484.25 340 484.25 350.5 456.125 c 0,191,192
 371.736196319 399.242331288 371.736196319 399.242331288 374 380 c 1,193,-1
 373 379 l 1,194,195
 373 376 373 376 375.5 375.5 c 128,-1,196
 378 375 378 375 380 371.5 c 128,-1,197
 382 368 382 368 382 361.5 c 0,198,199
 382 353.5 382 353.5 391 343 c 1,200,201
 396 334 396 334 398.5 323.5 c 128,-1,202
 401 313 401 313 409 305 c 1,203,-1
 409 303 l 2,204,205
 409 296 409 296 412 290 c 128,-1,206
 415 284 415 284 416.5 279 c 128,-1,207
 418 274 418 274 418.5 270.5 c 128,-1,208
 419 267 419 267 420.5 264 c 128,-1,209
 422 261 422 261 425.5 252.5 c 128,-1,210
 429 244 429 244 432.5 234 c 128,-1,211
 436 224 436 224 439 216 c 128,-1,212
 442 208 442 208 442 206 c 2,213,-1
 442 203 l 1,214,215
 447 198 447 198 448 192.5 c 128,-1,216
 449 187 449 187 451 181 c 1,217,218
 457 173 457 173 458 163 c 128,-1,219
 459 153 459 153 461.5 144 c 128,-1,220
 464 135 464 135 467.5 129 c 128,-1,221
 471 123 471 123 474.5 116 c 128,-1,222
 478 109 478 109 479.5 98.5 c 128,-1,223
 481 88 481 88 483 80.5 c 128,-1,224
 485 73 485 73 488.5 66.5 c 128,-1,225
 492 60 492 60 494 52.5 c 128,-1,226
 496 45 496 45 495.5 37 c 128,-1,227
 495 29 495 29 497 22 c 128,-1,228
 499 15 499 15 501 12 c 0,229,230
 504.333333333 7 504.333333333 7 507 -5 c 1,231,232
 513.25 -17.5 513.25 -17.5 515.125 -28.75 c 128,-1,233
 517 -40 517 -40 524 -46 c 1,234,-1
 527 -47 l 1,235,236
 539 -47 539 -47 544.5 -41.5 c 128,-1,237
 550 -36 550 -36 560 -35 c 1,0,1
314 111 m 0,238,239
 315 110.666666667 315 110.666666667 325 104 c 1,240,241
 336 108 336 108 346.5 108 c 2,242,-1
 369 108 l 2,243,244
 384 108 384 108 399 111 c 1,245,246
 398 115 398 115 404 119 c 1,247,-1
 404 122 l 2,248,249
 404 133 404 133 400.5 142.5 c 128,-1,250
 397 152 397 152 395.5 159 c 128,-1,251
 394 166 394 166 394.5 170 c 128,-1,252
 395 174 395 174 393 177.5 c 128,-1,253
 391 181 391 181 389 183.5 c 128,-1,254
 387 186 387 186 385 190.5 c 128,-1,255
 383 195 383 195 382 201.5 c 0,256,257
 380.777777778 209.444444444 380.777777778 209.444444444 377.388888889 216.222222222 c 128,-1,258
 374 223 374 223 374 227 c 128,-1,259
 374 231 374 231 372 237 c 2,260,-1
 350 284 l 2,261,262
 349 286 349 286 349.5 286.5 c 128,-1,263
 350 287 350 287 350 289 c 256,264,265
 350 292.666666667 350 292.666666667 344.5 301.833333333 c 0,266,267
 329.470588235 326.882352941 329.470588235 326.882352941 330.735294118 331.941176471 c 128,-1,268
 332 337 332 337 329 345.5 c 128,-1,269
 326 354 326 354 321 367 c 128,-1,270
 316 380 316 380 314 394 c 1,271,272
 309 396 309 396 309.5 398.5 c 128,-1,273
 310 401 310 401 308 406 c 1,274,-1
 304 410 l 1,275,276
 302 415 302 415 302 421 c 128,-1,277
 302 427 302 427 301 433 c 1,278,279
 289 448.428571429 289 448.428571429 289 474 c 1,280,-1
 279 495 l 1,281,282
 282 501 282 501 282 506 c 128,-1,283
 282 511 282 511 277.5 513.5 c 128,-1,284
 273 516 273 516 273 526 c 128,-1,285
 273 536 273 536 267 545 c 128,-1,286
 261 554 261 554 261 567 c 1,287,288
 260 569 260 569 257.5 569.5 c 128,-1,289
 255 570 255 570 251 574.5 c 128,-1,290
 247 579 247 579 243.5 586 c 128,-1,291
 240 593 240 593 231 598 c 1,292,-1
 231 600 l 1,293,294
 228 600 228 600 228 598 c 1,295,296
 226 598 226 598 223 592.5 c 128,-1,297
 220 587 220 587 218 576.5 c 128,-1,298
 216 566 216 566 208 557 c 1,299,300
 207 553 207 553 207.5 549.5 c 128,-1,301
 208 546 208 546 206.5 541.5 c 0,302,303
 203.5 532.5 203.5 532.5 201 520 c 1,304,305
 195 512 195 512 194 502 c 0,306,307
 192.352941176 485.529411765 192.352941176 485.529411765 186 476 c 1,308,309
 185 471 185 471 184.5 465 c 128,-1,310
 184 459 184 459 182.5 454.5 c 128,-1,311
 181 450 181 450 179.5 446.5 c 128,-1,312
 178 443 178 443 177 439 c 2,313,-1
 171 388 l 1,314,315
 160 372 160 372 161 354 c 1,316,317
 158 352 158 352 157.5 348.5 c 128,-1,318
 157 345 157 345 154 343 c 1,319,320
 151.072727273 316.654545455 151.072727273 316.654545455 131 274 c 1,321,-1
 131 256 l 1,322,323
 124.705882353 246.558823529 124.705882353 246.558823529 119.352941176 215.779411765 c 128,-1,324
 114 185 114 185 114 181 c 1,325,326
 112 179 112 179 111 175.5 c 128,-1,327
 110 172 110 172 105 170 c 1,328,329
 106 167 106 167 106 162 c 2,330,-1
 100 119 l 1,331,332
 109 111 109 111 125 111 c 2,333,-1
 197 114 l 2,334,335
 203 114 203 114 209 114 c 2,336,-1
 251 109 l 1,337,-1
 287 111 l 1,338,-1
 306 109 l 2,339,340
 310 109 310 109 314 111 c 0,238,239
EndSplineSet
EndChar

StartChar: B
Encoding: 66 66 35
Width: 464
Flags: HW
LayerCount: 2
Fore
SplineSet
423 579 m 1,0,-1
 421 570 l 1,1,2
 423 568 423 568 423 563.5 c 128,-1,3
 423 559 423 559 420 550.5 c 128,-1,4
 417 542 417 542 415 533 c 128,-1,5
 413 524 413 524 413 512 c 128,-1,6
 413 500 413 500 410 490 c 128,-1,7
 407 480 407 480 401.5 473.5 c 128,-1,8
 396 467 396 467 397 459 c 1,9,-1
 395 459 l 2,10,11
 392 459 392 459 391.5 455.5 c 128,-1,12
 391 452 391 452 389.5 449 c 128,-1,13
 388 446 388 446 383 442 c 128,-1,14
 378 438 378 438 376 435 c 2,15,-1
 368 422 l 2,16,17
 366 419 366 419 362.5 416.5 c 128,-1,18
 359 414 359 414 359 410 c 2,19,-1
 359 408 l 1,20,21
 348 404 348 404 344 390 c 1,22,23
 337.307692308 388.884615385 337.307692308 388.884615385 327 376 c 1,24,25
 325 376 325 376 318 373.5 c 128,-1,26
 311 371 311 371 309 369 c 1,27,-1
 309 365 l 1,28,29
 307 362 307 362 305 363.5 c 128,-1,30
 303 365 303 365 301 362.5 c 128,-1,31
 299 360 299 360 299 358 c 128,-1,32
 299 356 299 356 297 354 c 1,33,-1
 285 354 l 1,34,35
 277.666666667 350.333333333 277.666666667 350.333333333 273 341 c 1,36,-1
 258 335 l 1,37,38
 261 326 261 326 273 324 c 1,39,40
 278 315 278 315 289 311 c 1,41,42
 295 298 295 298 307 290 c 0,43,44
 332.379310345 273.08045977 332.379310345 273.08045977 344.689655172 245.040229885 c 128,-1,45
 357 217 357 217 357 193.5625 c 128,-1,46
 357 170.125 357 170.125 344 162 c 1,47,48
 345 161 345 161 345 156.5 c 128,-1,49
 345 152 345 152 343 146.5 c 128,-1,50
 341 141 341 141 340 136 c 1,51,52
 336 134 336 134 333 131.5 c 128,-1,53
 330 129 330 129 325 128 c 1,54,55
 322 126 322 126 323 121.5 c 128,-1,56
 324 117 324 117 321 115 c 1,57,58
 321 113 321 113 318.5 113.5 c 128,-1,59
 316 114 316 114 315 114 c 258,60,-1
 312 113 l 2,61,62
 311 112 311 112 311.5 110.5 c 128,-1,63
 312 109 312 109 310.5 107 c 128,-1,64
 309 105 309 105 307.5 105.5 c 128,-1,65
 306 106 306 106 304.5 104.5 c 128,-1,66
 303 103 303 103 303.5 101.5 c 128,-1,67
 304 100 304 100 301.5 97 c 128,-1,68
 299 94 299 94 293.5 92 c 128,-1,69
 288 90 288 90 285 83 c 1,70,-1
 283 83 l 1,71,72
 274 84 274 84 271 79.5 c 128,-1,73
 268 75 268 75 264.5 72 c 128,-1,74
 261 69 261 69 257.5 69 c 128,-1,75
 254 69 254 69 250.5 67.5 c 128,-1,76
 247 66 247 66 248.5 64.5 c 128,-1,77
 250 63 250 63 245.5 63 c 0,78,79
 240 63 240 63 232 55 c 1,80,81
 224 50 224 50 216 46.5 c 128,-1,82
 208 43 208 43 201 36 c 1,83,-1
 193 36 l 2,84,85
 186 36 186 36 185 34 c 1,86,87
 179 34 179 34 177.5 30 c 128,-1,88
 176 26 176 26 173 23 c 0,89,90
 171 22 171 22 165 18 c 128,-1,91
 159 14 159 14 151 10.5 c 0,92,93
 134.111111111 3.11111111111 134.111111111 3.11111111111 130 -1 c 1,94,-1
 127 -1 l 1,95,96
 124 -3 124 -3 120 1 c 1,97,98
 118 0 118 0 118 -3 c 128,-1,99
 118 -6 118 -6 116 -7 c 1,100,101
 111 -4 111 -4 103.5 -4 c 128,-1,102
 96 -4 96 -4 87.5 -10.5 c 128,-1,103
 79 -17 79 -17 67 -17 c 2,104,-1
 61 -17 l 1,105,106
 55 -11 55 -11 55 -1 c 128,-1,107
 55 9 55 9 58.5 14.5 c 128,-1,108
 62 20 62 20 67.5 22.5 c 128,-1,109
 73 25 73 25 78 26 c 128,-1,110
 83 27 83 27 87 32 c 1,111,-1
 88 81 l 2,112,113
 88 83 88 83 89 83 c 128,-1,114
 90 83 90 83 90 85 c 2,115,-1
 87 95 l 1,116,117
 87 100 87 100 89 102 c 1,118,119
 89 114 89 114 83 138 c 0,120,121
 78 162 78 162 78.5 186.5 c 0,122,123
 79.261682243 223.822429907 79.261682243 223.822429907 75 243 c 257,124,-1
 77 252 l 257,125,-1
 73 262 l 257,126,-1
 75 272 l 1,127,-1
 70 325 l 2,128,129
 70 330 70 330 73 335 c 1,130,131
 65 364.333333333 65 364.333333333 65 382 c 2,132,-1
 66 419 l 2,133,134
 66 424 66 424 66 429 c 128,-1,135
 66 434 66 434 65 439 c 2,136,-1
 61 454 l 257,137,-1
 63 467 l 1,138,139
 63 481 63 481 58.5 496 c 128,-1,140
 54 511 54 511 54 528 c 1,141,-1
 57 551 l 258,142,143
 57 554 57 554 55.5 557 c 128,-1,144
 54 560 54 560 53 564 c 128,-1,145
 52 568 52 568 52.5 573 c 128,-1,146
 53 578 53 578 53 583 c 258,147,-1
 52 604 l 2,148,149
 52 614 52 614 55 620 c 1,150,151
 52 628 52 628 52 636 c 128,-1,152
 52 644 52 644 52 652 c 2,153,-1
 49 676 l 1,154,-1
 53 684 l 1,155,-1
 53 687 l 1,156,157
 50 700 50 700 50.5 714.5 c 128,-1,158
 51 729 51 729 48.5 741 c 0,159,160
 43.0833333333 767 43.0833333333 767 8 767 c 1,161,-1
 -43 764 l 1,162,-1
 -47 764 l 1,163,164
 -51 774 -51 774 -51 787 c 2,165,-1
 -51 792 l 1,166,167
 -44 797 -44 797 -35 797.5 c 0,168,169
 12.5714285714 800.142857143 12.5714285714 800.142857143 46.2857142857 806.071428571 c 128,-1,170
 80 812 80 812 84 813.5 c 128,-1,171
 88 815 88 815 92 815 c 258,172,-1
 106 813 l 1,173,-1
 148 815 l 1,174,-1
 196 809 l 1,175,176
 207 809 207 809 217 803.5 c 128,-1,177
 227 798 227 798 235 796 c 128,-1,178
 243 794 243 794 247 794.5 c 128,-1,179
 251 795 251 795 255 793.5 c 128,-1,180
 259 792 259 792 266 789 c 128,-1,181
 273 786 273 786 281 782 c 0,182,183
 299 773 299 773 303 769 c 1,184,-1
 306 770 l 1,185,186
 318 770 318 770 334 758 c 256,187,188
 338 755 338 755 341.5 749 c 128,-1,189
 345 743 345 743 349 738.5 c 128,-1,190
 353 734 353 734 360 728.5 c 128,-1,191
 367 723 367 723 370.5 719 c 128,-1,192
 374 715 374 715 375 712 c 128,-1,193
 376 709 376 709 380 703.5 c 128,-1,194
 384 698 384 698 388.5 694 c 128,-1,195
 393 690 393 690 396 683 c 128,-1,196
 399 676 399 676 399 671.5 c 128,-1,197
 399 667 399 667 400.5 662.5 c 128,-1,198
 402 658 402 658 404.5 655.5 c 128,-1,199
 407 653 407 653 408 649 c 1,200,-1
 407 640 l 258,201,202
 407 633.8 407 633.8 411 623.4 c 128,-1,203
 415 613 415 613 417 607.5 c 128,-1,204
 419 602 419 602 421 600 c 1,205,206
 419 598 419 598 419 595 c 2,207,-1
 423 579 l 1,0,-1
354 537 m 1,208,-1
 358 569 l 1,209,-1
 356 585 l 1,210,211
 358 587 358 587 358 589.5 c 128,-1,212
 358 592 358 592 356.5 594 c 128,-1,213
 355 596 355 596 353.5 599 c 128,-1,214
 352 602 352 602 349 616.5 c 128,-1,215
 346 631 346 631 346 634.5 c 128,-1,216
 346 638 346 638 348 644 c 1,217,218
 337.909090909 657.454545455 337.909090909 657.454545455 334 677 c 1,219,220
 329 680 329 680 327.5 685 c 128,-1,221
 326 690 326 690 322.5 694.5 c 128,-1,222
 319 699 319 699 314.5 703 c 128,-1,223
 310 707 310 707 310 715 c 1,224,225
 287.875 724.833333333 287.875 724.833333333 278 738 c 1,226,227
 278 733 278 733 272 733 c 1,228,229
 262 737 262 737 256 741.5 c 128,-1,230
 250 746 250 746 238 745 c 1,231,232
 229 751 229 751 223 758 c 128,-1,233
 217 765 217 765 208.5 765 c 128,-1,234
 200 765 200 765 197 764 c 1,235,236
 177 768 177 768 164 768 c 0,237,238
 134 768 134 768 128.5 765.5 c 128,-1,239
 123 763 123 763 120 763.5 c 128,-1,240
 117 764 117 764 111.5 764 c 128,-1,241
 106 764 106 764 104 762 c 0,242,243
 103 760 103 760 103 756 c 2,244,-1
 106 737 l 1,245,-1
 102 724 l 1,246,-1
 104 678 l 2,247,248
 104 670 104 670 106.5 666 c 128,-1,249
 109 662 109 662 109 658 c 1,250,-1
 106 649 l 257,251,-1
 110 641 l 1,252,-1
 109 634 l 258,253,254
 109 632 109 632 110.5 627.5 c 128,-1,255
 112 623 112 623 111 616.5 c 128,-1,256
 110 610 110 610 110 605 c 2,257,-1
 116 557 l 2,258,259
 117 552 117 552 116.5 547.5 c 128,-1,260
 116 543 116 543 116 538 c 2,261,-1
 122 486 l 1,262,-1
 120 478 l 1,263,-1
 126 461 l 1,264,-1
 124 455 l 1,265,266
 124 446 124 446 128 438 c 128,-1,267
 132 430 132 430 132 422 c 2,268,-1
 130 399 l 1,269,270
 130 382 130 382 136 337 c 1,271,272
 141 332 141 332 145.5 332.5 c 128,-1,273
 150 333 150 333 156 333 c 1,274,-1
 167 331 l 1,275,276
 183.5 331 183.5 331 236 352 c 0,277,278
 246 357 246 357 255 366.5 c 128,-1,279
 264 376 264 376 275 376 c 1,280,281
 285 390 285 390 299 398 c 1,282,283
 303 404 303 404 309.5 411.5 c 0,284,285
 334.972972973 440.891891892 334.972972973 440.891891892 342 469 c 0,286,287
 343 471 343 471 344 472.5 c 128,-1,288
 345 474 345 474 346 476.5 c 128,-1,289
 347 479 347 479 346.5 482 c 128,-1,290
 346 485 346 485 346 491 c 128,-1,291
 346 497 346 497 351 505.5 c 128,-1,292
 356 514 356 514 356 523 c 1,293,-1
 354 537 l 1,208,-1
301 185 m 2,294,-1
 303 199 l 1,295,296
 303 207 303 207 298.5 212.5 c 128,-1,297
 294 218 294 218 295 226 c 1,298,299
 290 230 290 230 288 235 c 128,-1,300
 286 240 286 240 282 245 c 1,301,302
 242 280.789473684 242 280.789473684 242 285.394736842 c 128,-1,303
 242 290 242 290 240 292 c 1,304,305
 213.333333333 300 213.333333333 300 201.166666667 300 c 128,-1,306
 189 300 189 300 173 292 c 1,307,-1
 167 292 l 2,308,309
 155 292 155 292 145 288 c 1,310,311
 144 276 144 276 139.5 267.5 c 128,-1,312
 135 259 135 259 135 248.5 c 128,-1,313
 135 238 135 238 136.5 228.5 c 128,-1,314
 138 219 138 219 139.5 207 c 128,-1,315
 141 195 141 195 140.5 181.5 c 128,-1,316
 140 168 140 168 141 159 c 128,-1,317
 142 150 142 150 143.5 146 c 128,-1,318
 145 142 145 142 145 138 c 2,319,-1
 143 130 l 1,320,-1
 145 123 l 1,321,-1
 143 103 l 1,322,-1
 147 84 l 1,323,-1
 145 68 l 2,324,325
 145 63 145 63 150 57 c 1,326,-1
 154 57 l 2,327,328
 162 57 162 57 167 60 c 128,-1,329
 172 63 172 63 181 61 c 1,330,331
 186 69 186 69 195.5 71.5 c 128,-1,332
 205 74 205 74 212 78 c 1,333,-1
 214 81 l 1,334,335
 218 83 218 83 222 83.5 c 128,-1,336
 226 84 226 84 230 85 c 1,337,338
 243 103 243 103 263 113 c 1,339,340
 266 118 266 118 270 120 c 128,-1,341
 274 122 274 122 277 125.5 c 128,-1,342
 280 129 280 129 280 132.5 c 0,343,344
 280 135.333333333 280 135.333333333 286.5 144.666666667 c 0,345,346
 297.493087558 160.451612903 297.493087558 160.451612903 301 185 c 2,294,-1
EndSplineSet
EndChar

StartChar: C
Encoding: 67 67 36
Width: 671
Flags: HW
LayerCount: 2
Fore
SplineSet
608 200 m 1,0,1
 630 190.571428571 630 190.571428571 630 177 c 256,2,3
 630 169 630 169 622.5 164.5 c 128,-1,4
 615 160 615 160 611 155.5 c 128,-1,5
 607 151 607 151 606 146.5 c 128,-1,6
 605 142 605 142 602 138 c 1,7,8
 589 132.8 589 132.8 589 125 c 1,9,-1
 587 125 l 2,10,11
 584 125 584 125 582 123.5 c 128,-1,12
 580 122 580 122 577 121 c 1,13,14
 574 116 574 116 570.5 111 c 128,-1,15
 567 106 567 106 565 101 c 1,16,17
 560 99 560 99 556 95.5 c 128,-1,18
 552 92 552 92 547 91 c 1,19,20
 543 83 543 83 535.5 77.5 c 128,-1,21
 528 72 528 72 523 63 c 1,22,23
 516 63 516 63 512.5 59.5 c 128,-1,24
 509 56 509 56 502.5 56 c 128,-1,25
 496 56 496 56 494.5 53 c 128,-1,26
 493 50 493 50 484 52 c 1,27,28
 481.5 50.5 481.5 50.5 469 38 c 1,29,-1
 447 34 l 1,30,-1
 433 38 l 1,31,32
 400.333333333 38 400.333333333 38 389.666666667 34 c 2,33,-1
 375 28.5 l 2,34,35
 365.666666667 25 365.666666667 25 349 25 c 1,36,-1
 321 29 l 2,37,38
 315 29 315 29 307 25 c 1,39,40
 303 28 303 28 298 28 c 128,-1,41
 293 28 293 28 286.5 28 c 128,-1,42
 280 28 280 28 277.5 31 c 128,-1,43
 275 34 275 34 265 34 c 2,44,-1
 264 34 l 1,45,-1
 260 38 l 1,46,47
 212.727272727 55.7272727273 212.727272727 55.7272727273 189 61 c 1,48,49
 183.125 74.21875 183.125 74.21875 164 79 c 1,50,51
 164 82 164 82 162 82.5 c 0,52,53
 156 84 156 84 156 87.5 c 128,-1,54
 156 91 156 91 154 93 c 1,55,56
 133.702380952 98.5357142857 133.702380952 98.5357142857 119 125 c 1,57,58
 111 126 111 126 103 130 c 1,59,60
 101 133 101 133 96.5 137.5 c 128,-1,61
 92 142 92 142 87.5 148 c 128,-1,62
 83 154 83 154 79.5 158 c 128,-1,63
 76 162 76 162 76 164 c 1,64,65
 69 167 69 167 61 172 c 1,66,67
 45.1176470588 201.117647059 45.1176470588 201.117647059 41.0588235294 220.058823529 c 128,-1,68
 37 239 37 239 34.5 244.5 c 128,-1,69
 32 250 32 250 28.5 255.5 c 128,-1,70
 25 261 25 261 22.5 265.5 c 128,-1,71
 20 270 20 270 21 274 c 128,-1,72
 22 278 22 278 20 282 c 2,73,-1
 16 294 l 2,74,75
 15 297 15 297 15.5 300.5 c 128,-1,76
 16 304 16 304 16 307 c 2,77,-1
 10 348 l 1,78,-1
 12 384 l 1,79,-1
 12 402 l 2,80,81
 12 419 12 419 18 436.5 c 128,-1,82
 24 454 24 454 29 469 c 1,83,84
 28 471 28 471 28 474 c 128,-1,85
 28 477 28 477 30.5 485 c 128,-1,86
 33 493 33 493 36.5 501.5 c 128,-1,87
 40 510 40 510 43 517.5 c 128,-1,88
 46 525 46 525 48.5 528.5 c 128,-1,89
 51 532 51 532 55 537.5 c 128,-1,90
 59 543 59 543 61 548.5 c 0,91,92
 67.2352941176 565.647058824 67.2352941176 565.647058824 74.1176470588 574.823529412 c 128,-1,93
 81 584 81 584 81 593 c 1,94,95
 102 606 102 606 106 628 c 1,96,97
 113.428571429 630.476190476 113.428571429 630.476190476 126.714285714 645.238095238 c 128,-1,98
 140 660 140 660 140 662 c 1,99,100
 143 663 143 663 142.5 665 c 128,-1,101
 142 667 142 667 144 669 c 2,102,-1
 148 671 l 1,103,104
 153 680 153 680 162.5 687 c 128,-1,105
 172 694 172 694 172 698 c 1,106,107
 180 700 180 700 187 706.5 c 128,-1,108
 194 713 194 713 200 716 c 128,-1,109
 206 719 206 719 210.5 721 c 128,-1,110
 215 723 215 723 217 728 c 1,111,-1
 220 727 l 1,112,113
 226 727 226 727 228 731.5 c 128,-1,114
 230 736 230 736 242 736 c 0,115,116
 243 736 243 736 245 740 c 1,117,118
 253 742 253 742 260 743 c 128,-1,119
 267 744 267 744 274 752 c 1,120,121
 291 752 291 752 307 762 c 1,122,123
 309 761 309 761 314 761 c 256,124,125
 319 761 319 761 322.5 763 c 128,-1,126
 326 765 326 765 332.5 766 c 128,-1,127
 339 767 339 767 349 766.5 c 128,-1,128
 359 766 359 766 365.5 769 c 128,-1,129
 372 772 372 772 372.5 773 c 128,-1,130
 373 774 373 774 380 774 c 1,131,-1
 406 769 l 257,132,-1
 428 772 l 1,133,-1
 442 768 l 1,134,-1
 453 769 l 1,135,-1
 453 768 l 2,136,137
 453 765 453 765 455.5 765.5 c 128,-1,138
 458 766 458 766 460 766 c 256,139,140
 466 766 466 766 469 760 c 1,141,-1
 474 760 l 2,142,143
 491.25 760 491.25 760 527 734 c 0,144,145
 539 726 539 726 543.5 722 c 128,-1,146
 548 718 548 718 563 715 c 1,147,148
 565 721 565 721 566.5 728.5 c 128,-1,149
 568 736 568 736 571 744 c 0,150,151
 577.75 762 577.75 762 593 762 c 0,152,153
 600 762 600 762 605 756 c 128,-1,154
 610 750 610 750 610 744 c 128,-1,155
 610 738 610 738 608 732 c 1,156,157
 609 730 609 730 609 724.5 c 0,158,159
 609 717.5 609 717.5 605 702.75 c 0,160,161
 598 676.9375 598 676.9375 598 645 c 1,162,-1
 600 635 l 1,163,164
 600 614 600 614 608 606 c 1,165,166
 602.8 599.5 602.8 599.5 597 585 c 1,167,168
 593 583 593 583 589.5 581 c 128,-1,169
 586 579 586 579 579.5 579 c 128,-1,170
 573 579 573 579 567 586 c 128,-1,171
 561 593 561 593 559.5 596.5 c 128,-1,172
 558 600 558 600 558 603.5 c 2,173,-1
 558 611 l 2,174,175
 558 615 558 615 556.5 621 c 128,-1,176
 555 627 555 627 552 631.5 c 128,-1,177
 549 636 549 636 551 642 c 1,178,179
 545 646 545 646 540 651 c 1,180,-1
 540 657 l 2,181,182
 540 680 540 680 513 693.5 c 0,183,184
 508 696 508 696 508 700 c 1,185,-1
 493 705 l 1,186,187
 490 710 490 710 484 711.5 c 128,-1,188
 478 713 478 713 476 719 c 1,189,-1
 474 719 l 1,190,-1
 464 716 l 1,191,-1
 449 726 l 1,192,193
 446 725 446 725 440 725 c 256,194,195
 434 725 434 725 429 730 c 1,196,197
 429 728 429 728 426.5 728 c 128,-1,198
 424 728 424 728 424 730 c 1,199,-1
 406 726 l 1,200,201
 397 726 397 726 391.5 730 c 128,-1,202
 386 734 386 734 374 734 c 128,-1,203
 362 734 362 734 354 726 c 1,204,205
 322.714285714 726 322.714285714 726 307 715 c 1,206,-1
 303 715 l 2,207,208
 290 715 290 715 282.5 711.5 c 128,-1,209
 275 708 275 708 272.5 708.5 c 128,-1,210
 270 709 270 709 267.5 709 c 128,-1,211
 265 709 265 709 263 707.5 c 128,-1,212
 261 706 261 706 249.5 701.5 c 0,213,214
 234.427184466 695.601941748 234.427184466 695.601941748 209 673 c 1,215,216
 208 674 208 674 203.5 674 c 128,-1,217
 199 674 199 674 191 672.5 c 128,-1,218
 183 671 183 671 183 665 c 128,-1,219
 183 659 183 659 179 657 c 2,220,-1
 164 649 l 1,221,222
 155.470588235 629.098039216 155.470588235 629.098039216 144 624 c 1,223,-1
 138 610 l 1,224,225
 134 609 134 609 133 605.5 c 128,-1,226
 132 602 132 602 128 600 c 1,227,228
 128 590 128 590 123 584.5 c 128,-1,229
 118 579 118 579 119 567 c 1,230,231
 114 565 114 565 113 561 c 128,-1,232
 112 557 112 557 106 555 c 1,233,234
 108 554 108 554 108 549 c 128,-1,235
 108 544 108 544 101 536 c 1,236,237
 101 522 101 522 91 492 c 128,-1,238
 81 462 81 462 79 459 c 1,239,240
 81 458 81 458 81 454 c 2,241,-1
 79 441 l 1,242,-1
 82 422 l 257,243,-1
 81 403 l 2,244,245
 81 395 81 395 81 387 c 128,-1,246
 81 379 81 379 82.5 373.5 c 128,-1,247
 84 368 84 368 85.5 364.5 c 128,-1,248
 87 361 87 361 87 359.5 c 2,249,-1
 87 342 l 2,250,251
 87 329 87 329 92.5 317 c 128,-1,252
 98 305 98 305 98.5 295 c 128,-1,253
 99 285 99 285 104.5 283.5 c 128,-1,254
 110 282 110 282 110 275 c 1,255,-1
 106 268 l 1,256,-1
 106 266 l 1,257,258
 133.029411765 198.426470588 133.029411765 198.426470588 178 155.5 c 0,259,260
 189 145 189 145 198 132 c 1,261,262
 204.5 132 204.5 132 221 121 c 1,263,-1
 230 113 l 1,264,265
 239 108 239 108 246 104.5 c 128,-1,266
 253 101 253 101 258 93 c 1,267,268
 266 92 266 92 272.5 87.5 c 128,-1,269
 279 83 279 83 283 83 c 2,270,-1
 292 85 l 1,271,-1
 294 85 l 1,272,273
 296.052631579 80.8947368421 296.052631579 80.8947368421 310.526315789 76.9473684211 c 128,-1,274
 325 73 325 73 327 73 c 258,275,-1
 337 74 l 2,276,277
 345 74 345 74 352.5 71.5 c 128,-1,278
 360 69 360 69 369 70 c 1,279,-1
 373 70 l 1,280,281
 375 72 375 72 378 72 c 2,282,-1
 384 70 l 1,283,-1
 402 74 l 1,284,-1
 434 72 l 2,285,286
 450 72 450 72 457 76 c 128,-1,287
 464 80 464 80 463 83 c 1,288,289
 481.5 83 481.5 83 487.75 88 c 128,-1,290
 494 93 494 93 496.5 95 c 128,-1,291
 499 97 499 97 502.5 98 c 128,-1,292
 506 99 506 99 508 100.5 c 128,-1,293
 510 102 510 102 510 103.5 c 128,-1,294
 510 105 510 105 512 107 c 128,-1,295
 514 109 514 109 515 108.5 c 128,-1,296
 516 108 516 108 518.5 109.5 c 128,-1,297
 521 111 521 111 528 117 c 128,-1,298
 535 123 535 123 542.5 129.5 c 0,299,300
 561.538461538 146 561.538461538 146 565 146 c 1,301,302
 567 152 567 152 570 156 c 128,-1,303
 573 160 573 160 574 166 c 1,304,305
 587 171 587 171 592 183 c 128,-1,306
 597 195 597 195 608 200 c 1,0,1
EndSplineSet
EndChar

StartChar: D
Encoding: 68 68 37
Width: 526
Flags: HW
LayerCount: 2
Fore
SplineSet
472 494 m 1,0,-1
 469 480 l 2,1,2
 469 476 469 476 471 472 c 128,-1,3
 473 468 473 468 474.5 462 c 128,-1,4
 476 456 476 456 475.5 447 c 128,-1,5
 475 438 475 438 475 411 c 128,-1,6
 475 384 475 384 469.5 384 c 0,7,8
 468 384 468 384 468 377 c 128,-1,9
 468 370 468 370 465 369 c 128,-1,10
 462 368 462 368 462 359 c 1,11,-1
 461 358 l 1,12,-1
 457 356 l 1,13,14
 455 352 455 352 455.5 348 c 128,-1,15
 456 344 456 344 455 339 c 1,16,17
 447 333 447 333 444 325.5 c 128,-1,18
 441 318 441 318 437 310 c 1,19,-1
 433 308 l 1,20,-1
 435 304 l 258,21,22
 435 302 435 302 432.5 300.5 c 128,-1,23
 430 299 430 299 430 295.5 c 128,-1,24
 430 292 430 292 426 291 c 128,-1,25
 422 290 422 290 424 284 c 1,26,27
 422 282 422 282 418 282 c 128,-1,28
 414 282 414 282 412 280 c 0,29,30
 397.162162162 251.972972973 397.162162162 251.972972973 365 229 c 1,31,32
 362 224 362 224 361.5 219 c 128,-1,33
 361 214 361 214 359 210 c 1,34,35
 354 206 354 206 349 205.5 c 128,-1,36
 344 205 344 205 337 198 c 1,37,38
 310.642857143 186.285714286 310.642857143 186.285714286 304 173 c 1,39,-1
 302 173 l 2,40,41
 289 173 289 173 285.5 169.5 c 128,-1,42
 282 166 282 166 275 157 c 1,43,44
 267 157 267 157 263.5 152 c 128,-1,45
 260 147 260 147 255 142 c 1,46,-1
 253 142 l 1,47,48
 247 143 247 143 242.5 139.5 c 128,-1,49
 238 136 238 136 231 137 c 1,50,51
 228 136 228 136 226.5 133 c 128,-1,52
 225 130 225 130 223 128 c 1,53,-1
 222 128 l 2,54,55
 211.777777778 128 211.777777778 128 195.888888889 117 c 128,-1,56
 180 106 180 106 178 104 c 1,57,58
 173 104 173 104 167 104.5 c 128,-1,59
 161 105 161 105 154 103.5 c 128,-1,60
 147 102 147 102 145.5 96.5 c 0,61,62
 142.909090909 87 142.909090909 87 117.621212121 87 c 128,-1,63
 92.3333333333 87 92.3333333333 87 85 76 c 1,64,-1
 79 77 l 1,65,-1
 34 71 l 1,66,67
 20 71 20 71 13 76 c 1,68,69
 12 79 12 79 12 89 c 128,-1,70
 12 99 12 99 22 109 c 1,71,72
 28 110 28 110 34 111.5 c 128,-1,73
 40 113 40 113 44.5 113 c 128,-1,74
 49 113 49 113 55 111 c 1,75,76
 60 115 60 115 67 116 c 128,-1,77
 74 117 74 117 79 120 c 1,78,79
 79 191.2 79 191.2 75.5 206.6 c 128,-1,80
 72 222 72 222 72 224 c 2,81,-1
 73 238 l 1,82,-1
 70 254 l 2,83,84
 70 257 70 257 73 260 c 1,85,86
 63 274 63 274 64 294.5 c 128,-1,87
 65 315 65 315 65 328 c 128,-1,88
 65 341 65 341 62 345 c 1,89,-1
 65 350 l 1,90,91
 65 356 65 356 62 365 c 128,-1,92
 59 374 59 374 59 385 c 2,93,-1
 61 438 l 2,94,95
 61 446 61 446 58 461 c 1,96,-1
 59 471 l 257,97,-1
 55 479 l 1,98,-1
 58 490 l 258,99,100
 58 493 58 493 57 493 c 128,-1,101
 56 493 56 493 56 495 c 256,102,103
 56 497 56 497 57 497 c 128,-1,104
 58 497 58 497 58 499 c 256,105,106
 58 501 58 501 56.5 502 c 128,-1,107
 55 503 55 503 55 511 c 2,108,-1
 55 512 l 1,109,110
 48 561 48 561 48 566 c 1,111,112
 46 570 46 570 46 572 c 258,113,-1
 49 578 l 257,114,-1
 45 590 l 1,115,-1
 48 605 l 258,116,117
 48 609 48 609 47 613 c 128,-1,118
 46 617 46 617 45 621.5 c 128,-1,119
 44 626 44 626 44.5 630 c 128,-1,120
 45 634 45 634 44 638 c 128,-1,121
 43 642 43 642 41.5 645 c 128,-1,122
 40 648 40 648 39 650.5 c 128,-1,123
 38 653 38 653 38.5 655 c 128,-1,124
 39 657 39 657 39 659 c 2,125,-1
 39 660 l 1,126,-1
 36 665 l 1,127,128
 38 671 38 671 38 673 c 2,129,-1
 33 724 l 1,130,-1
 36 742 l 1,131,132
 36 752 36 752 30 759.5 c 128,-1,133
 24 767 24 767 24 770.5 c 128,-1,134
 24 774 24 774 26 778 c 1,135,136
 24 780 24 780 16 785 c 128,-1,137
 8 790 8 790 5 790 c 256,138,139
 2 790 2 790 1 787 c 128,-1,140
 0 784 0 784 -4 782.5 c 128,-1,141
 -8 781 -8 781 -17.5 780 c 128,-1,142
 -27 779 -27 779 -31 777.5 c 128,-1,143
 -35 776 -35 776 -38.5 776 c 128,-1,144
 -42 776 -42 776 -43.5 779.5 c 128,-1,145
 -45 783 -45 783 -52.5 783 c 128,-1,146
 -60 783 -60 783 -66.5 776 c 128,-1,147
 -73 769 -73 769 -84 769 c 1,148,149
 -92 777 -92 777 -92 785 c 2,150,-1
 -91 805 l 1,151,152
 -85 811 -85 811 -77.5 810.5 c 128,-1,153
 -70 810 -70 810 -64 811 c 128,-1,154
 -58 812 -58 812 -55.5 814 c 128,-1,155
 -53 816 -53 816 -50 817 c 128,-1,156
 -47 818 -47 818 -44 817 c 128,-1,157
 -41 816 -41 816 -39.5 816 c 128,-1,158
 -38 816 -38 816 -30 820 c 1,159,-1
 -19 819 l 258,160,161
 -16 819 -16 819 -14 820.5 c 128,-1,162
 -12 822 -12 822 -7.5 823 c 0,163,164
 1.5 825 1.5 825 19 825 c 1,165,-1
 32 822 l 257,166,-1
 43 826 l 257,167,-1
 55 823 l 1,168,-1
 63 825 l 1,169,-1
 69 823 l 257,170,-1
 75 826 l 1,171,172
 82 826 82 826 88 824 c 128,-1,173
 94 822 94 822 101.5 821 c 128,-1,174
 109 820 109 820 118 820.5 c 128,-1,175
 127 821 127 821 136 819 c 2,176,-1
 154 815 l 2,177,178
 158 814 158 814 161.5 814.5 c 128,-1,179
 165 815 165 815 168.5 814 c 128,-1,180
 172 813 172 813 174.5 811.5 c 128,-1,181
 177 810 177 810 181 809 c 128,-1,182
 185 808 185 808 191 808 c 128,-1,183
 197 808 197 808 204.5 806 c 128,-1,184
 212 804 212 804 220.5 801 c 128,-1,185
 229 798 229 798 236.5 795.5 c 128,-1,186
 244 793 244 793 248.5 792.5 c 128,-1,187
 253 792 253 792 259.5 789 c 128,-1,188
 266 786 266 786 273.5 780.5 c 128,-1,189
 281 775 281 775 291.5 769.5 c 128,-1,190
 302 764 302 764 315.5 757 c 128,-1,191
 329 750 329 750 337 742.5 c 128,-1,192
 345 735 345 735 348.5 730 c 128,-1,193
 352 725 352 725 357 719.5 c 128,-1,194
 362 714 362 714 368.5 708.5 c 128,-1,195
 375 703 375 703 379 698 c 128,-1,196
 383 693 383 693 385 689 c 128,-1,197
 387 685 387 685 389.5 682 c 128,-1,198
 392 679 392 679 393.5 679 c 0,199,200
 395.333333333 679 395.333333333 679 398 671 c 1,201,202
 400 669 400 669 402 666 c 128,-1,203
 404 663 404 663 408 663 c 1,204,205
 421.793103448 628.517241379 421.793103448 628.517241379 440 607 c 1,206,207
 448.117647059 574.529411765 448.117647059 574.529411765 455.558823529 561.764705882 c 128,-1,208
 463 549 463 549 464 538.5 c 128,-1,209
 465 528 465 528 467 519.5 c 128,-1,210
 469 511 469 511 470.5 505.5 c 128,-1,211
 472 500 472 500 472 494 c 1,0,-1
145 187 m 258,212,213
 145 179 145 179 148 137 c 1,214,-1
 154 137 l 2,215,216
 160 137 160 137 169 141 c 128,-1,217
 178 145 178 145 183.5 147.5 c 128,-1,218
 189 150 189 150 197.5 152.5 c 128,-1,219
 206 155 206 155 210 158 c 0,220,221
 216.285714286 162.714285714 216.285714286 162.714285714 227 167 c 1,222,-1
 262 191 l 2,223,224
 297 216 297 216 330.5 252 c 0,225,226
 375.945736434 300.837209302 375.945736434 300.837209302 391 346 c 0,227,228
 407 394 407 394 407 419 c 128,-1,229
 407 444 407 444 403 469 c 128,-1,230
 399 494 399 494 398 519 c 1,231,232
 392 524 392 524 392 532 c 128,-1,233
 392 540 392 540 390.5 544.5 c 128,-1,234
 389 549 389 549 388 551.5 c 128,-1,235
 387 554 387 554 387 556 c 2,236,-1
 388 559 l 1,237,238
 375 572 375 572 375 601 c 1,239,240
 369 609 369 609 363 615.5 c 128,-1,241
 357 622 357 622 358 633 c 1,242,243
 344.615384615 641.923076923 344.615384615 641.923076923 346 653 c 1,244,245
 336 657 336 657 329 667 c 1,246,247
 327 676 327 676 319.5 682.5 c 128,-1,248
 312 689 312 689 310 698 c 1,249,250
 302 701 302 701 295 705 c 128,-1,251
 288 709 288 709 288 719 c 1,252,253
 281 719 281 719 275.5 724.5 c 128,-1,254
 270 730 270 730 266 730 c 128,-1,255
 262 730 262 730 260.5 729.5 c 128,-1,256
 259 729 259 729 259 729.5 c 128,-1,257
 259 730 259 730 252.5 731.5 c 0,258,259
 238.85915493 734.647887324 238.85915493 734.647887324 226 744 c 1,260,-1
 224 744 l 2,261,262
 216 744 216 744 196 754 c 1,263,264
 175 751 175 751 168.5 751 c 128,-1,265
 162 751 162 751 155 754 c 128,-1,266
 148 757 148 757 139.5 758.5 c 128,-1,267
 131 760 131 760 121 760 c 128,-1,268
 111 760 111 760 101 760 c 1,269,-1
 97 759 l 1,270,271
 97 757 97 757 97 755 c 128,-1,272
 97 753 97 753 95 753 c 1,273,-1
 95 751 l 2,274,275
 95 733 95 733 97.5 721.5 c 128,-1,276
 100 710 100 710 100 704.5 c 128,-1,277
 100 699 100 699 98 697 c 1,278,279
 105 687 105 687 103.5 675 c 128,-1,280
 102 663 102 663 105 651 c 1,281,282
 111 637.8 111 637.8 111 610 c 1,283,-1
 118 579 l 1,284,-1
 115 557 l 258,285,286
 115 552 115 552 117 548 c 128,-1,287
 119 544 119 544 120 539.5 c 128,-1,288
 121 535 121 535 120.5 531.5 c 128,-1,289
 120 528 120 528 120 524 c 2,290,-1
 122 511 l 2,291,292
 130 455 130 455 130 439.5 c 2,293,-1
 130 417.5 l 2,294,295
 130 411 130 411 129 404 c 1,296,297
 133 398 133 398 133 393 c 2,298,-1
 131 381 l 1,299,-1
 134 358 l 1,300,-1
 132 351 l 1,301,-1
 135 335 l 1,302,303
 133 333 133 333 133 329 c 128,-1,304
 133 325 133 325 135 320 c 128,-1,305
 137 315 137 315 138 310.5 c 128,-1,306
 139 306 139 306 138.5 302.5 c 128,-1,307
 138 299 138 299 139.5 288.5 c 128,-1,308
 141 278 141 278 144 261.5 c 128,-1,309
 147 245 147 245 147 228 c 2,310,-1
 145 187 l 258,212,213
EndSplineSet
EndChar

